<?xml version="1.0" encoding="utf-8" standalone="no"?>
<!DOCTYPE svg PUBLIC "-//W3C//DTD SVG 1.1//EN"
  "http://www.w3.org/Graphics/SVG/1.1/DTD/svg11.dtd">
<svg xmlns:xlink="http://www.w3.org/1999/xlink" width="421.080404pt" height="259.926175pt" viewBox="0 0 421.080404 259.926175" xmlns="http://www.w3.org/2000/svg" version="1.1">
 <metadata>
  <rdf:RDF xmlns:dc="http://purl.org/dc/elements/1.1/" xmlns:cc="http://creativecommons.org/ns#" xmlns:rdf="http://www.w3.org/1999/02/22-rdf-syntax-ns#">
   <cc:Work>
    <dc:type rdf:resource="http://purl.org/dc/dcmitype/StillImage"/>
    <dc:date>2023-04-14T11:10:24.943536</dc:date>
    <dc:format>image/svg+xml</dc:format>
    <dc:creator>
     <cc:Agent>
      <dc:title>Matplotlib v3.7.1, https://matplotlib.org/</dc:title>
     </cc:Agent>
    </dc:creator>
   </cc:Work>
  </rdf:RDF>
 </metadata>
 <defs>
  <style type="text/css">*{stroke-linejoin: round; stroke-linecap: butt}</style>
 </defs>
 <g id="figure_1">
  <g id="patch_1">
   <path d="M 0 259.926175 
L 421.080404 259.926175 
L 421.080404 0 
L 0 0 
L 0 259.926175 
z
" style="fill: none; opacity: 0"/>
  </g>
  <g id="axes_1">
   <g id="patch_2">
    <path d="M 40.10024 229.894685 
L 323.807011 229.894685 
L 323.807011 3.00024 
L 40.10024 3.00024 
z
" style="fill: #ffffff; opacity: 0.2"/>
   </g>
   <g id="line2d_1">
    <path d="M 10.624468 260.926175 
L 11.945734 259.571637 
L 15.618169 255.806719 
L 19.290605 252.041802 
L 22.96304 248.276885 
L 26.635476 244.511968 
L 30.307911 240.747051 
L 33.980347 236.982134 
L 37.652782 233.217217 
L 41.325217 229.452299 
L 44.997653 225.687382 
L 48.670088 221.922465 
L 52.342524 218.157548 
L 56.014959 214.392631 
L 59.687395 210.627714 
L 63.35983 206.862797 
L 67.032266 203.097879 
L 70.704701 199.332962 
L 74.377136 195.568045 
L 78.049572 191.803128 
L 81.722007 188.038211 
L 85.394443 184.273294 
L 89.066878 180.508377 
L 92.739314 176.74346 
L 96.411749 172.978542 
L 100.084184 169.213625 
L 103.75662 165.448708 
L 107.429055 161.683791 
L 111.101491 157.918874 
L 114.773926 154.153957 
L 118.446362 150.38904 
L 122.118797 146.624122 
L 125.791232 142.859205 
L 129.463668 139.094288 
L 133.136103 135.329371 
L 136.808539 131.564454 
L 140.480974 127.799537 
L 144.15341 124.03462 
L 147.825845 120.269702 
L 151.49828 116.504785 
L 155.170716 112.739868 
L 158.843151 108.974951 
L 162.515587 105.210034 
L 166.188022 101.445117 
L 169.860458 97.6802 
L 173.532893 93.915283 
L 177.205329 90.150365 
L 180.877764 86.385448 
L 184.550199 82.620531 
L 188.222635 78.855614 
L 191.89507 75.090697 
L 195.567506 71.32578 
L 199.239941 67.560863 
L 202.912377 63.795945 
L 206.584812 60.031028 
L 210.257247 56.266111 
L 213.929683 52.501194 
L 217.602118 48.736277 
L 221.274554 44.97136 
L 224.946989 41.206443 
L 228.619425 37.441525 
L 232.29186 33.676608 
L 235.964295 29.911691 
L 239.636731 26.146774 
L 243.309166 22.381857 
L 246.981602 18.61694 
L 250.654037 14.852023 
L 254.326473 11.087106 
L 257.998908 7.322188 
L 261.671344 3.557271 
L 265.343779 -0.207646 
L 266.11667 -1 
" clip-path="url(#p8f97ff4a99)" style="fill: none; stroke: #000000; stroke-linecap: square"/>
   </g>
   <g id="line2d_2">
    <path d="M 277.402157 229.894685 
L 277.402157 3.00024 
" clip-path="url(#p8f97ff4a99)" style="fill: none; stroke-dasharray: 1,1.65; stroke-dashoffset: 0; stroke: #000000"/>
   </g>
   <g id="line2d_3">
    <path d="M 40.10024 52.058808 
L 323.807011 52.058808 
" clip-path="url(#p8f97ff4a99)" style="fill: none; stroke-dasharray: 3.7,1.6; stroke-dashoffset: 0; stroke: #000000"/>
   </g>
   <g id="patch_3">
    <path d="M -72.897181 229.894685 
L -72.897181 3.00024 
L 148.340706 3.00024 
L 148.340706 229.894685 
z
" clip-path="url(#p8f97ff4a99)" style="fill: #fad7a0; opacity: 0.2"/>
   </g>
   <g id="patch_4">
    <path d="M 148.340706 229.894685 
L 148.340706 3.00024 
L 231.767232 3.00024 
L 231.767232 229.894685 
z
" clip-path="url(#p8f97ff4a99)" style="fill: #d7bde2; opacity: 0.2"/>
   </g>
   <g id="patch_5">
    <path d="M 231.767232 229.894685 
L 231.767232 3.00024 
L 277.441621 3.00024 
L 277.441621 229.894685 
z
" clip-path="url(#p8f97ff4a99)" style="fill: #16a085; opacity: 0.1"/>
   </g>
   <g id="matplotlib.axis_1">
    <g id="xtick_1">
     <g id="line2d_4">
      <defs>
       <path id="m6af91cb235" d="M 0 0 
L 0 -2.5 
" style="stroke: #000000; stroke-width: 0.8"/>
      </defs>
      <g>
       <use xlink:href="#m6af91cb235" x="127.62745" y="229.894685" style="stroke: #000000; stroke-width: 0.8"/>
      </g>
     </g>
     <g id="line2d_5">
      <defs>
       <path id="me02a2b2993" d="M 0 0 
L 0 2.5 
" style="stroke: #000000; stroke-width: 0.8"/>
      </defs>
      <g>
       <use xlink:href="#me02a2b2993" x="127.62745" y="3.00024" style="stroke: #000000; stroke-width: 0.8"/>
      </g>
     </g>
     <g id="text_1">
      <!-- $\mathdefault{10^{-2}}$ -->
      <g transform="translate(117.82745 240.894685) scale(0.1 -0.1)">
       <defs>
        <path id="Roboto-Regular-31" d="M 2278 4575 
L 2278 0 
L 1700 0 
L 1700 3853 
L 534 3428 
L 534 3950 
L 2188 4575 
L 2278 4575 
z
" transform="scale(0.015625)"/>
        <path id="Roboto-Regular-30" d="M 3234 1944 
Q 3234 825 2848 381 
Q 2463 -63 1800 -63 
Q 1156 -63 764 368 
Q 372 800 359 1872 
L 359 2638 
Q 359 3753 750 4183 
Q 1141 4613 1794 4613 
Q 2447 4613 2834 4195 
Q 3222 3778 3234 2709 
L 3234 1944 
z
M 2653 2734 
Q 2653 3503 2434 3822 
Q 2216 4141 1794 4141 
Q 1388 4141 1167 3831 
Q 947 3522 941 2778 
L 941 1850 
Q 941 1088 1164 750 
Q 1388 413 1800 413 
Q 2222 413 2436 745 
Q 2650 1078 2653 1825 
L 2653 2734 
z
" transform="scale(0.015625)"/>
        <path id="Roboto-Regular-2212" d="M 3134 2509 
L 3134 2034 
L 525 2034 
L 525 2509 
L 3134 2509 
z
" transform="scale(0.015625)"/>
        <path id="Roboto-Regular-32" d="M 3359 475 
L 3359 0 
L 381 0 
L 381 416 
L 1925 2134 
Q 2306 2566 2439 2819 
Q 2572 3072 2572 3328 
Q 2572 3663 2364 3900 
Q 2156 4138 1778 4138 
Q 1322 4138 1097 3878 
Q 872 3619 872 3213 
L 294 3213 
Q 294 3788 672 4200 
Q 1050 4613 1778 4613 
Q 2422 4613 2786 4278 
Q 3150 3944 3150 3397 
Q 3150 2997 2903 2592 
Q 2656 2188 2297 1797 
L 1078 475 
L 3359 475 
z
" transform="scale(0.015625)"/>
       </defs>
       <use xlink:href="#Roboto-Regular-31" transform="translate(0 0.565625)"/>
       <use xlink:href="#Roboto-Regular-30" transform="translate(56.201172 0.565625)"/>
       <use xlink:href="#Roboto-Regular-2212" transform="translate(113.326836 37.545313) scale(0.7)"/>
       <use xlink:href="#Roboto-Regular-32" transform="translate(153.35125 37.545313) scale(0.7)"/>
      </g>
     </g>
    </g>
    <g id="xtick_2">
     <g id="line2d_6">
      <g>
       <use xlink:href="#m6af91cb235" x="309.413004" y="229.894685" style="stroke: #000000; stroke-width: 0.8"/>
      </g>
     </g>
     <g id="line2d_7">
      <g>
       <use xlink:href="#me02a2b2993" x="309.413004" y="3.00024" style="stroke: #000000; stroke-width: 0.8"/>
      </g>
     </g>
     <g id="text_2">
      <!-- $\mathdefault{10^{-1}}$ -->
      <g transform="translate(299.613004 240.894685) scale(0.1 -0.1)">
       <use xlink:href="#Roboto-Regular-31" transform="translate(0 0.98125)"/>
       <use xlink:href="#Roboto-Regular-30" transform="translate(56.201172 0.98125)"/>
       <use xlink:href="#Roboto-Regular-2212" transform="translate(113.326836 37.960938) scale(0.7)"/>
       <use xlink:href="#Roboto-Regular-31" transform="translate(153.35125 37.960938) scale(0.7)"/>
      </g>
     </g>
    </g>
    <g id="xtick_3">
     <g id="line2d_8">
      <defs>
       <path id="m7c47f52f81" d="M 0 0 
L 0 -2 
" style="stroke: #000000; stroke-width: 0.6"/>
      </defs>
      <g>
       <use xlink:href="#m7c47f52f81" x="55.287705" y="229.894685" style="stroke: #000000; stroke-width: 0.6"/>
      </g>
     </g>
     <g id="line2d_9">
      <defs>
       <path id="md77e63184d" d="M 0 0 
L 0 2 
" style="stroke: #000000; stroke-width: 0.6"/>
      </defs>
      <g>
       <use xlink:href="#md77e63184d" x="55.287705" y="3.00024" style="stroke: #000000; stroke-width: 0.6"/>
      </g>
     </g>
    </g>
    <g id="xtick_4">
     <g id="line2d_10">
      <g>
       <use xlink:href="#m7c47f52f81" x="72.904546" y="229.894685" style="stroke: #000000; stroke-width: 0.6"/>
      </g>
     </g>
     <g id="line2d_11">
      <g>
       <use xlink:href="#md77e63184d" x="72.904546" y="3.00024" style="stroke: #000000; stroke-width: 0.6"/>
      </g>
     </g>
    </g>
    <g id="xtick_5">
     <g id="line2d_12">
      <g>
       <use xlink:href="#m7c47f52f81" x="87.298552" y="229.894685" style="stroke: #000000; stroke-width: 0.6"/>
      </g>
     </g>
     <g id="line2d_13">
      <g>
       <use xlink:href="#md77e63184d" x="87.298552" y="3.00024" style="stroke: #000000; stroke-width: 0.6"/>
      </g>
     </g>
    </g>
    <g id="xtick_6">
     <g id="line2d_14">
      <g>
       <use xlink:href="#m7c47f52f81" x="99.468512" y="229.894685" style="stroke: #000000; stroke-width: 0.6"/>
      </g>
     </g>
     <g id="line2d_15">
      <g>
       <use xlink:href="#md77e63184d" x="99.468512" y="3.00024" style="stroke: #000000; stroke-width: 0.6"/>
      </g>
     </g>
    </g>
    <g id="xtick_7">
     <g id="line2d_16">
      <g>
       <use xlink:href="#m7c47f52f81" x="110.01061" y="229.894685" style="stroke: #000000; stroke-width: 0.6"/>
      </g>
     </g>
     <g id="line2d_17">
      <g>
       <use xlink:href="#md77e63184d" x="110.01061" y="3.00024" style="stroke: #000000; stroke-width: 0.6"/>
      </g>
     </g>
    </g>
    <g id="xtick_8">
     <g id="line2d_18">
      <g>
       <use xlink:href="#m7c47f52f81" x="119.309399" y="229.894685" style="stroke: #000000; stroke-width: 0.6"/>
      </g>
     </g>
     <g id="line2d_19">
      <g>
       <use xlink:href="#md77e63184d" x="119.309399" y="3.00024" style="stroke: #000000; stroke-width: 0.6"/>
      </g>
     </g>
    </g>
    <g id="xtick_9">
     <g id="line2d_20">
      <g>
       <use xlink:href="#m7c47f52f81" x="182.350355" y="229.894685" style="stroke: #000000; stroke-width: 0.6"/>
      </g>
     </g>
     <g id="line2d_21">
      <g>
       <use xlink:href="#md77e63184d" x="182.350355" y="3.00024" style="stroke: #000000; stroke-width: 0.6"/>
      </g>
     </g>
    </g>
    <g id="xtick_10">
     <g id="line2d_22">
      <g>
       <use xlink:href="#m7c47f52f81" x="214.361202" y="229.894685" style="stroke: #000000; stroke-width: 0.6"/>
      </g>
     </g>
     <g id="line2d_23">
      <g>
       <use xlink:href="#md77e63184d" x="214.361202" y="3.00024" style="stroke: #000000; stroke-width: 0.6"/>
      </g>
     </g>
    </g>
    <g id="xtick_11">
     <g id="line2d_24">
      <g>
       <use xlink:href="#m7c47f52f81" x="237.073259" y="229.894685" style="stroke: #000000; stroke-width: 0.6"/>
      </g>
     </g>
     <g id="line2d_25">
      <g>
       <use xlink:href="#md77e63184d" x="237.073259" y="3.00024" style="stroke: #000000; stroke-width: 0.6"/>
      </g>
     </g>
    </g>
    <g id="xtick_12">
     <g id="line2d_26">
      <g>
       <use xlink:href="#m7c47f52f81" x="254.6901" y="229.894685" style="stroke: #000000; stroke-width: 0.6"/>
      </g>
     </g>
     <g id="line2d_27">
      <g>
       <use xlink:href="#md77e63184d" x="254.6901" y="3.00024" style="stroke: #000000; stroke-width: 0.6"/>
      </g>
     </g>
    </g>
    <g id="xtick_13">
     <g id="line2d_28">
      <g>
       <use xlink:href="#m7c47f52f81" x="269.084106" y="229.894685" style="stroke: #000000; stroke-width: 0.6"/>
      </g>
     </g>
     <g id="line2d_29">
      <g>
       <use xlink:href="#md77e63184d" x="269.084106" y="3.00024" style="stroke: #000000; stroke-width: 0.6"/>
      </g>
     </g>
    </g>
    <g id="xtick_14">
     <g id="line2d_30">
      <g>
       <use xlink:href="#m7c47f52f81" x="281.254066" y="229.894685" style="stroke: #000000; stroke-width: 0.6"/>
      </g>
     </g>
     <g id="line2d_31">
      <g>
       <use xlink:href="#md77e63184d" x="281.254066" y="3.00024" style="stroke: #000000; stroke-width: 0.6"/>
      </g>
     </g>
    </g>
    <g id="xtick_15">
     <g id="line2d_32">
      <g>
       <use xlink:href="#m7c47f52f81" x="291.796164" y="229.894685" style="stroke: #000000; stroke-width: 0.6"/>
      </g>
     </g>
     <g id="line2d_33">
      <g>
       <use xlink:href="#md77e63184d" x="291.796164" y="3.00024" style="stroke: #000000; stroke-width: 0.6"/>
      </g>
     </g>
    </g>
    <g id="xtick_16">
     <g id="line2d_34">
      <g>
       <use xlink:href="#m7c47f52f81" x="301.094953" y="229.894685" style="stroke: #000000; stroke-width: 0.6"/>
      </g>
     </g>
     <g id="line2d_35">
      <g>
       <use xlink:href="#md77e63184d" x="301.094953" y="3.00024" style="stroke: #000000; stroke-width: 0.6"/>
      </g>
     </g>
    </g>
    <g id="text_3">
     <!-- Settling number, $\mathcal{S} = t_{0}/t_{\rm s} = v_{\rm s}/u_{0}$ -->
     <g transform="translate(108.803625 254.425935) scale(0.1 -0.1)">
      <defs>
       <path id="Roboto-Regular-53" d="M 2953 1150 
Q 2953 1463 2742 1650 
Q 2531 1838 1856 2036 
Q 1181 2234 789 2542 
Q 397 2850 397 3375 
Q 397 3906 820 4259 
Q 1244 4613 1944 4613 
Q 2713 4613 3130 4191 
Q 3547 3769 3547 3238 
L 2947 3238 
Q 2947 3619 2700 3869 
Q 2453 4119 1944 4119 
Q 1463 4119 1231 3908 
Q 1000 3697 1000 3381 
Q 1000 3097 1245 2908 
Q 1491 2719 2044 2563 
Q 2834 2341 3196 2014 
Q 3559 1688 3559 1156 
Q 3559 600 3125 268 
Q 2691 -63 1972 -63 
Q 1553 -63 1158 93 
Q 763 250 508 558 
Q 253 866 253 1319 
L 853 1319 
Q 853 853 1193 640 
Q 1534 428 1972 428 
Q 2444 428 2698 623 
Q 2953 819 2953 1150 
z
" transform="scale(0.015625)"/>
       <path id="Roboto-Regular-65" d="M 3116 591 
Q 2950 341 2647 139 
Q 2344 -63 1844 -63 
Q 1138 -63 714 396 
Q 291 856 291 1572 
L 291 1703 
Q 291 2256 502 2645 
Q 713 3034 1050 3239 
Q 1388 3444 1769 3444 
Q 2494 3444 2826 2970 
Q 3159 2497 3159 1788 
L 3159 1528 
L 872 1528 
Q 884 1063 1148 736 
Q 1413 409 1875 409 
Q 2181 409 2393 534 
Q 2606 659 2766 869 
L 3116 591 
z
M 1769 2969 
Q 1425 2969 1187 2719 
Q 950 2469 891 2000 
L 2581 2000 
L 2581 2044 
Q 2559 2381 2386 2675 
Q 2213 2969 1769 2969 
z
" transform="scale(0.015625)"/>
       <path id="Roboto-Regular-74" d="M 1872 0 
Q 1675 -63 1425 -63 
Q 1103 -63 875 134 
Q 647 331 647 841 
L 647 2938 
L 28 2938 
L 28 3381 
L 647 3381 
L 647 4203 
L 1225 4203 
L 1225 3381 
L 1856 3381 
L 1856 2938 
L 1225 2938 
L 1225 838 
Q 1225 578 1337 506 
Q 1450 434 1597 434 
Q 1706 434 1869 472 
L 1872 0 
z
" transform="scale(0.015625)"/>
       <path id="Roboto-Regular-6c" d="M 1069 4800 
L 1069 0 
L 488 0 
L 488 4800 
L 1069 4800 
z
" transform="scale(0.015625)"/>
       <path id="Roboto-Regular-69" d="M 444 4278 
Q 444 4419 530 4516 
Q 616 4613 784 4613 
Q 950 4613 1039 4516 
Q 1128 4419 1128 4278 
Q 1128 4144 1039 4048 
Q 950 3953 784 3953 
Q 616 3953 530 4048 
Q 444 4144 444 4278 
z
M 1069 3381 
L 1069 0 
L 488 0 
L 488 3381 
L 1069 3381 
z
" transform="scale(0.015625)"/>
       <path id="Roboto-Regular-6e" d="M 1844 2956 
Q 1566 2956 1353 2806 
Q 1141 2656 1019 2416 
L 1019 0 
L 441 0 
L 441 3381 
L 988 3381 
L 1006 2959 
Q 1391 3444 2016 3444 
Q 2513 3444 2805 3166 
Q 3097 2888 3100 2231 
L 3100 0 
L 2519 0 
L 2519 2222 
Q 2519 2619 2345 2787 
Q 2172 2956 1844 2956 
z
" transform="scale(0.015625)"/>
       <path id="Roboto-Regular-67" d="M 1725 -1334 
Q 1463 -1334 1081 -1206 
Q 700 -1078 472 -747 
L 775 -403 
Q 1150 -859 1681 -859 
Q 2091 -859 2334 -629 
Q 2578 -400 2578 44 
L 2578 341 
Q 2234 -63 1631 -63 
Q 1022 -63 662 425 
Q 303 913 303 1653 
L 303 1719 
Q 303 2494 661 2969 
Q 1019 3444 1638 3444 
Q 2259 3444 2603 3006 
L 2631 3381 
L 3156 3381 
L 3156 72 
Q 3156 -600 2756 -967 
Q 2356 -1334 1725 -1334 
z
M 881 1653 
Q 881 1150 1092 789 
Q 1303 428 1772 428 
Q 2322 428 2578 928 
L 2578 2469 
Q 2469 2678 2275 2817 
Q 2081 2956 1778 2956 
Q 1306 2956 1093 2589 
Q 881 2222 881 1719 
L 881 1653 
z
" transform="scale(0.015625)"/>
       <path id="Roboto-Regular-20" transform="scale(0.015625)"/>
       <path id="Roboto-Regular-75" d="M 2538 0 
L 2525 334 
Q 2194 -63 1538 -63 
Q 1041 -63 734 231 
Q 428 525 428 1200 
L 428 3381 
L 1006 3381 
L 1006 1194 
Q 1006 738 1198 583 
Q 1391 428 1628 428 
Q 2281 428 2509 919 
L 2509 3381 
L 3091 3381 
L 3091 0 
L 2538 0 
z
" transform="scale(0.015625)"/>
       <path id="Roboto-Regular-6d" d="M 1794 2956 
Q 1225 2956 1016 2478 
L 1016 0 
L 434 0 
L 434 3381 
L 984 3381 
L 1000 3013 
Q 1366 3444 2000 3444 
Q 2325 3444 2579 3314 
Q 2834 3184 2969 2900 
Q 3138 3144 3408 3294 
Q 3678 3444 4044 3444 
Q 4588 3444 4883 3153 
Q 5178 2863 5178 2222 
L 5178 0 
L 4597 0 
L 4597 2228 
Q 4597 2653 4401 2804 
Q 4206 2956 3875 2956 
Q 3525 2956 3325 2748 
Q 3125 2541 3094 2244 
L 3094 0 
L 2516 0 
L 2516 2225 
Q 2516 2622 2319 2789 
Q 2122 2956 1794 2956 
z
" transform="scale(0.015625)"/>
       <path id="Roboto-Regular-62" d="M 3303 1653 
Q 3303 913 2959 425 
Q 2616 -63 1988 -63 
Q 1347 -63 1000 391 
L 969 0 
L 438 0 
L 438 4800 
L 1019 4800 
L 1019 3016 
Q 1363 3444 1981 3444 
Q 2619 3444 2961 2969 
Q 3303 2494 3303 1719 
L 3303 1653 
z
M 1838 2956 
Q 1522 2956 1325 2804 
Q 1128 2653 1019 2431 
L 1019 959 
Q 1131 734 1331 581 
Q 1531 428 1844 428 
Q 2313 428 2517 789 
Q 2722 1150 2722 1653 
L 2722 1719 
Q 2722 2222 2526 2589 
Q 2331 2956 1838 2956 
z
" transform="scale(0.015625)"/>
       <path id="Roboto-Regular-72" d="M 1791 2888 
Q 1225 2888 1019 2400 
L 1019 0 
L 441 0 
L 441 3381 
L 1003 3381 
L 1016 2994 
Q 1294 3444 1819 3444 
Q 1981 3444 2075 3400 
L 2072 2863 
Q 1944 2888 1791 2888 
z
" transform="scale(0.015625)"/>
       <path id="Roboto-Regular-2c" d="M 966 688 
L 966 222 
Q 966 -63 822 -380 
Q 678 -697 419 -909 
L 91 -681 
Q 391 -263 400 175 
L 400 688 
L 966 688 
z
" transform="scale(0.015625)"/>
       <path id="Cmsy10-53" d="M 116 794 
Q 116 1163 397 1453 
Q 519 1566 678 1644 
Q 838 1722 984 1722 
L 1025 1722 
Q 1069 1700 1069 1672 
Q 1069 1638 1047 1608 
Q 1025 1578 1003 1559 
Q 981 1541 934 1503 
Q 894 1472 845 1445 
Q 797 1419 778 1401 
Q 759 1384 738 1338 
Q 684 1206 684 1069 
Q 684 816 867 627 
Q 1050 438 1320 338 
Q 1591 238 1844 238 
Q 2169 238 2455 338 
Q 2741 438 2922 647 
Q 3103 856 3103 1184 
Q 3103 1384 3008 1543 
Q 2913 1703 2750 1828 
Q 2588 1953 2431 2033 
Q 2275 2113 2059 2209 
Q 1688 2381 1455 2598 
Q 1222 2816 1222 3128 
Q 1222 3513 1525 3831 
Q 1828 4150 2272 4331 
Q 2716 4513 3072 4513 
L 3109 4513 
Q 3325 4513 3558 4455 
Q 3791 4397 3950 4259 
Q 4109 4122 4109 3897 
Q 4109 3628 3975 3494 
Q 3750 3325 3578 3309 
L 3541 3309 
Q 3494 3331 3494 3366 
Q 3506 3422 3514 3447 
Q 3522 3472 3531 3522 
Q 3541 3572 3541 3616 
Q 3541 3897 3258 4015 
Q 2975 4134 2644 4134 
Q 2278 4134 2034 3943 
Q 1791 3753 1791 3413 
Q 1791 2931 2541 2584 
Q 2853 2447 3093 2308 
Q 3334 2169 3504 1959 
Q 3675 1750 3675 1466 
Q 3675 1003 3306 634 
Q 2938 266 2400 62 
Q 1863 -141 1416 -141 
L 1381 -141 
Q 1113 -141 813 -28 
Q 513 84 314 296 
Q 116 509 116 794 
z
" transform="scale(0.015625)"/>
       <path id="Cmr10-3d" d="M 481 850 
Q 428 850 393 890 
Q 359 931 359 978 
Q 359 1031 393 1068 
Q 428 1106 481 1106 
L 4500 1106 
Q 4547 1106 4581 1068 
Q 4616 1031 4616 978 
Q 4616 931 4581 890 
Q 4547 850 4500 850 
L 481 850 
z
M 481 2094 
Q 428 2094 393 2131 
Q 359 2169 359 2222 
Q 359 2269 393 2309 
Q 428 2350 481 2350 
L 4500 2350 
Q 4547 2350 4581 2309 
Q 4616 2269 4616 2222 
Q 4616 2169 4581 2131 
Q 4547 2094 4500 2094 
L 481 2094 
z
" transform="scale(0.015625)"/>
       <path id="Cmmi10-74" d="M 397 519 
Q 397 613 416 697 
L 878 2534 
L 206 2534 
Q 141 2534 141 2619 
Q 166 2759 225 2759 
L 934 2759 
L 1191 3803 
Q 1216 3888 1291 3947 
Q 1366 4006 1459 4006 
Q 1541 4006 1595 3957 
Q 1650 3909 1650 3828 
Q 1650 3809 1648 3798 
Q 1647 3788 1644 3775 
L 1388 2759 
L 2047 2759 
Q 2113 2759 2113 2675 
Q 2109 2659 2100 2621 
Q 2091 2584 2075 2559 
Q 2059 2534 2028 2534 
L 1331 2534 
L 872 684 
Q 825 503 825 372 
Q 825 97 1013 97 
Q 1294 97 1511 361 
Q 1728 625 1844 941 
Q 1869 978 1894 978 
L 1972 978 
Q 1997 978 2012 961 
Q 2028 944 2028 922 
Q 2028 909 2022 903 
Q 1881 516 1612 222 
Q 1344 -72 997 -72 
Q 744 -72 570 93 
Q 397 259 397 519 
z
" transform="scale(0.015625)"/>
       <path id="Cmr10-30" d="M 1600 -141 
Q 816 -141 533 504 
Q 250 1150 250 2041 
Q 250 2597 351 3087 
Q 453 3578 754 3920 
Q 1056 4263 1600 4263 
Q 2022 4263 2290 4056 
Q 2559 3850 2700 3523 
Q 2841 3197 2892 2823 
Q 2944 2450 2944 2041 
Q 2944 1491 2842 1011 
Q 2741 531 2444 195 
Q 2147 -141 1600 -141 
z
M 1600 25 
Q 1956 25 2131 390 
Q 2306 756 2347 1200 
Q 2388 1644 2388 2144 
Q 2388 2625 2347 3031 
Q 2306 3438 2132 3767 
Q 1959 4097 1600 4097 
Q 1238 4097 1063 3765 
Q 888 3434 847 3029 
Q 806 2625 806 2144 
Q 806 1788 823 1472 
Q 841 1156 916 820 
Q 991 484 1158 254 
Q 1325 25 1600 25 
z
" transform="scale(0.015625)"/>
       <path id="Cmmi10-3d" d="M 359 -1472 
Q 359 -1453 366 -1447 
L 2591 4722 
Q 2603 4759 2634 4779 
Q 2666 4800 2706 4800 
Q 2763 4800 2798 4765 
Q 2834 4731 2834 4672 
L 2834 4647 
L 609 -1522 
Q 572 -1600 488 -1600 
Q 434 -1600 396 -1562 
Q 359 -1525 359 -1472 
z
" transform="scale(0.015625)"/>
       <path id="Cmr10-73" d="M 213 -19 
L 213 1025 
Q 213 1075 269 1075 
L 347 1075 
Q 384 1075 397 1025 
Q 575 97 1259 97 
Q 1563 97 1767 234 
Q 1972 372 1972 659 
Q 1972 866 1812 1011 
Q 1653 1156 1434 1209 
L 1006 1294 
Q 791 1341 614 1437 
Q 438 1534 325 1695 
Q 213 1856 213 2069 
Q 213 2350 361 2529 
Q 509 2709 746 2789 
Q 984 2869 1259 2869 
Q 1588 2869 1831 2694 
L 2016 2853 
Q 2016 2869 2047 2869 
L 2094 2869 
Q 2113 2869 2128 2851 
Q 2144 2834 2144 2816 
L 2144 1978 
Q 2144 1919 2094 1919 
L 2016 1919 
Q 1959 1919 1959 1978 
Q 1959 2313 1773 2516 
Q 1588 2719 1253 2719 
Q 966 2719 755 2612 
Q 544 2506 544 2247 
Q 544 2069 695 1955 
Q 847 1841 1050 1791 
L 1484 1709 
Q 1703 1659 1892 1540 
Q 2081 1422 2192 1240 
Q 2303 1059 2303 831 
Q 2303 600 2223 429 
Q 2144 259 2001 146 
Q 1859 34 1665 -19 
Q 1472 -72 1259 -72 
Q 859 -72 575 197 
L 341 -56 
Q 341 -72 306 -72 
L 269 -72 
Q 213 -72 213 -19 
z
" transform="scale(0.015625)"/>
       <path id="Cmmi10-76" d="M 684 722 
Q 684 866 718 1037 
Q 753 1209 787 1320 
Q 822 1431 944 1753 
Q 1066 2075 1069 2088 
Q 1153 2322 1153 2472 
Q 1153 2663 1013 2663 
Q 759 2663 595 2402 
Q 431 2141 353 1819 
Q 341 1778 300 1778 
L 225 1778 
Q 172 1778 172 1838 
L 172 1856 
Q 275 2238 487 2533 
Q 700 2828 1025 2828 
Q 1253 2828 1411 2678 
Q 1569 2528 1569 2297 
Q 1569 2178 1516 2047 
Q 1391 1722 1319 1526 
Q 1247 1331 1186 1089 
Q 1125 847 1125 641 
Q 1125 400 1236 248 
Q 1347 97 1581 97 
Q 2025 97 2381 781 
Q 2494 1003 2594 1303 
Q 2694 1603 2694 1791 
Q 2694 1984 2631 2092 
Q 2569 2200 2469 2317 
Q 2369 2434 2369 2503 
Q 2369 2628 2472 2731 
Q 2575 2834 2700 2834 
Q 2853 2834 2920 2693 
Q 2988 2553 2988 2375 
Q 2988 2163 2927 1869 
Q 2866 1575 2758 1259 
Q 2650 944 2559 763 
Q 2138 -72 1575 -72 
Q 1172 -72 928 129 
Q 684 331 684 722 
z
" transform="scale(0.015625)"/>
       <path id="Cmmi10-75" d="M 678 697 
Q 678 906 734 1126 
Q 791 1347 892 1617 
Q 994 1888 1069 2088 
Q 1153 2322 1153 2472 
Q 1153 2663 1013 2663 
Q 759 2663 595 2402 
Q 431 2141 353 1819 
Q 341 1778 300 1778 
L 225 1778 
Q 172 1778 172 1838 
L 172 1856 
Q 275 2238 487 2533 
Q 700 2828 1025 2828 
Q 1253 2828 1411 2678 
Q 1569 2528 1569 2297 
Q 1569 2178 1516 2047 
Q 1488 1969 1388 1706 
Q 1288 1444 1234 1272 
Q 1181 1100 1147 934 
Q 1113 769 1113 603 
Q 1113 391 1203 244 
Q 1294 97 1497 97 
Q 1906 97 2216 603 
Q 2222 628 2226 651 
Q 2231 675 2234 697 
L 2694 2553 
Q 2716 2638 2794 2698 
Q 2872 2759 2963 2759 
Q 3041 2759 3098 2709 
Q 3156 2659 3156 2578 
Q 3156 2541 3150 2528 
L 2688 684 
Q 2644 494 2644 372 
Q 2644 97 2828 97 
Q 3034 97 3136 351 
Q 3238 606 3309 941 
Q 3322 978 3359 978 
L 3438 978 
Q 3463 978 3478 956 
Q 3494 934 3494 916 
Q 3425 641 3361 444 
Q 3297 247 3159 87 
Q 3022 -72 2816 -72 
Q 2613 -72 2452 39 
Q 2291 150 2234 341 
Q 2088 153 1894 40 
Q 1700 -72 1484 -72 
Q 1116 -72 897 129 
Q 678 331 678 697 
z
" transform="scale(0.015625)"/>
      </defs>
      <use xlink:href="#Roboto-Regular-53"/>
      <use xlink:href="#Roboto-Regular-65" transform="translate(59.375 0)"/>
      <use xlink:href="#Roboto-Regular-74" transform="translate(112.402344 0)"/>
      <use xlink:href="#Roboto-Regular-74" transform="translate(145.117188 0)"/>
      <use xlink:href="#Roboto-Regular-6c" transform="translate(177.832031 0)"/>
      <use xlink:href="#Roboto-Regular-69" transform="translate(202.148438 0)"/>
      <use xlink:href="#Roboto-Regular-6e" transform="translate(226.464844 0)"/>
      <use xlink:href="#Roboto-Regular-67" transform="translate(281.689453 0)"/>
      <use xlink:href="#Roboto-Regular-20" transform="translate(337.841797 0)"/>
      <use xlink:href="#Roboto-Regular-6e" transform="translate(362.646484 0)"/>
      <use xlink:href="#Roboto-Regular-75" transform="translate(417.871094 0)"/>
      <use xlink:href="#Roboto-Regular-6d" transform="translate(472.998047 0)"/>
      <use xlink:href="#Roboto-Regular-62" transform="translate(560.693359 0)"/>
      <use xlink:href="#Roboto-Regular-65" transform="translate(616.845703 0)"/>
      <use xlink:href="#Roboto-Regular-72" transform="translate(669.873047 0)"/>
      <use xlink:href="#Roboto-Regular-2c" transform="translate(703.759766 0)"/>
      <use xlink:href="#Roboto-Regular-20" transform="translate(723.4375 0)"/>
      <use xlink:href="#Cmsy10-53" transform="translate(748.242188 0)"/>
      <use xlink:href="#Cmr10-3d" transform="translate(826.298828 0)"/>
      <use xlink:href="#Cmmi10-74" transform="translate(921.542969 0)"/>
      <use xlink:href="#Cmr10-30" transform="translate(957.626953 -17.00625) scale(0.7)"/>
      <use xlink:href="#Cmmi10-3d" transform="translate(999.004297 0)"/>
      <use xlink:href="#Cmmi10-74" transform="translate(1049.004297 0)"/>
      <use xlink:href="#Cmr10-73" transform="translate(1085.088281 -17.00625) scale(0.7)"/>
      <use xlink:href="#Cmr10-3d" transform="translate(1136.607227 0)"/>
      <use xlink:href="#Cmmi10-76" transform="translate(1231.851367 0)"/>
      <use xlink:href="#Cmr10-73" transform="translate(1280.240039 -17.00625) scale(0.7)"/>
      <use xlink:href="#Cmmi10-3d" transform="translate(1314.200391 0)"/>
      <use xlink:href="#Cmmi10-75" transform="translate(1364.200391 0)"/>
      <use xlink:href="#Cmr10-30" transform="translate(1421.378125 -17.00625) scale(0.7)"/>
     </g>
    </g>
   </g>
   <g id="matplotlib.axis_2">
    <g id="ytick_1">
     <g id="line2d_36">
      <defs>
       <path id="m1ea8b5e0fd" d="M 0 0 
L 2.5 0 
" style="stroke: #000000; stroke-width: 0.8"/>
      </defs>
      <g>
       <use xlink:href="#m1ea8b5e0fd" x="40.10024" y="229.894685" style="stroke: #000000; stroke-width: 0.8"/>
      </g>
     </g>
     <g id="line2d_37">
      <defs>
       <path id="m937bc4cb04" d="M 0 0 
L -2.5 0 
" style="stroke: #000000; stroke-width: 0.8"/>
      </defs>
      <g>
       <use xlink:href="#m937bc4cb04" x="323.807011" y="229.894685" style="stroke: #000000; stroke-width: 0.8"/>
      </g>
     </g>
     <g id="text_4">
      <!-- $\mathdefault{10^{-1}}$ -->
      <g transform="translate(17.00024 233.644685) scale(0.1 -0.1)">
       <use xlink:href="#Roboto-Regular-31" transform="translate(0 0.98125)"/>
       <use xlink:href="#Roboto-Regular-30" transform="translate(56.201172 0.98125)"/>
       <use xlink:href="#Roboto-Regular-2212" transform="translate(113.326836 37.960938) scale(0.7)"/>
       <use xlink:href="#Roboto-Regular-31" transform="translate(153.35125 37.960938) scale(0.7)"/>
      </g>
     </g>
    </g>
    <g id="ytick_2">
     <g id="line2d_38">
      <g>
       <use xlink:href="#m1ea8b5e0fd" x="40.10024" y="43.531287" style="stroke: #000000; stroke-width: 0.8"/>
      </g>
     </g>
     <g id="line2d_39">
      <g>
       <use xlink:href="#m937bc4cb04" x="323.807011" y="43.531287" style="stroke: #000000; stroke-width: 0.8"/>
      </g>
     </g>
     <g id="text_5">
      <!-- $\mathdefault{10^{0}}$ -->
      <g transform="translate(21.00024 47.281287) scale(0.1 -0.1)">
       <use xlink:href="#Roboto-Regular-31" transform="translate(0 0.565625)"/>
       <use xlink:href="#Roboto-Regular-30" transform="translate(56.201172 0.565625)"/>
       <use xlink:href="#Roboto-Regular-30" transform="translate(113.326836 37.545313) scale(0.7)"/>
      </g>
     </g>
    </g>
    <g id="ytick_3">
     <g id="line2d_40">
      <defs>
       <path id="m3c6e5e1e37" d="M 0 0 
L 2 0 
" style="stroke: #000000; stroke-width: 0.6"/>
      </defs>
      <g>
       <use xlink:href="#m3c6e5e1e37" x="40.10024" y="173.793712" style="stroke: #000000; stroke-width: 0.6"/>
      </g>
     </g>
     <g id="line2d_41">
      <defs>
       <path id="mf2104e3856" d="M 0 0 
L -2 0 
" style="stroke: #000000; stroke-width: 0.6"/>
      </defs>
      <g>
       <use xlink:href="#mf2104e3856" x="323.807011" y="173.793712" style="stroke: #000000; stroke-width: 0.6"/>
      </g>
     </g>
    </g>
    <g id="ytick_4">
     <g id="line2d_42">
      <g>
       <use xlink:href="#m3c6e5e1e37" x="40.10024" y="140.976747" style="stroke: #000000; stroke-width: 0.6"/>
      </g>
     </g>
     <g id="line2d_43">
      <g>
       <use xlink:href="#mf2104e3856" x="323.807011" y="140.976747" style="stroke: #000000; stroke-width: 0.6"/>
      </g>
     </g>
    </g>
    <g id="ytick_5">
     <g id="line2d_44">
      <g>
       <use xlink:href="#m3c6e5e1e37" x="40.10024" y="117.692739" style="stroke: #000000; stroke-width: 0.6"/>
      </g>
     </g>
     <g id="line2d_45">
      <g>
       <use xlink:href="#mf2104e3856" x="323.807011" y="117.692739" style="stroke: #000000; stroke-width: 0.6"/>
      </g>
     </g>
    </g>
    <g id="ytick_6">
     <g id="line2d_46">
      <g>
       <use xlink:href="#m3c6e5e1e37" x="40.10024" y="99.63226" style="stroke: #000000; stroke-width: 0.6"/>
      </g>
     </g>
     <g id="line2d_47">
      <g>
       <use xlink:href="#mf2104e3856" x="323.807011" y="99.63226" style="stroke: #000000; stroke-width: 0.6"/>
      </g>
     </g>
    </g>
    <g id="ytick_7">
     <g id="line2d_48">
      <g>
       <use xlink:href="#m3c6e5e1e37" x="40.10024" y="84.875774" style="stroke: #000000; stroke-width: 0.6"/>
      </g>
     </g>
     <g id="line2d_49">
      <g>
       <use xlink:href="#mf2104e3856" x="323.807011" y="84.875774" style="stroke: #000000; stroke-width: 0.6"/>
      </g>
     </g>
    </g>
    <g id="ytick_8">
     <g id="line2d_50">
      <g>
       <use xlink:href="#m3c6e5e1e37" x="40.10024" y="72.399343" style="stroke: #000000; stroke-width: 0.6"/>
      </g>
     </g>
     <g id="line2d_51">
      <g>
       <use xlink:href="#mf2104e3856" x="323.807011" y="72.399343" style="stroke: #000000; stroke-width: 0.6"/>
      </g>
     </g>
    </g>
    <g id="ytick_9">
     <g id="line2d_52">
      <g>
       <use xlink:href="#m3c6e5e1e37" x="40.10024" y="61.591766" style="stroke: #000000; stroke-width: 0.6"/>
      </g>
     </g>
     <g id="line2d_53">
      <g>
       <use xlink:href="#mf2104e3856" x="323.807011" y="61.591766" style="stroke: #000000; stroke-width: 0.6"/>
      </g>
     </g>
    </g>
    <g id="ytick_10">
     <g id="line2d_54">
      <g>
       <use xlink:href="#m3c6e5e1e37" x="40.10024" y="52.058808" style="stroke: #000000; stroke-width: 0.6"/>
      </g>
     </g>
     <g id="line2d_55">
      <g>
       <use xlink:href="#mf2104e3856" x="323.807011" y="52.058808" style="stroke: #000000; stroke-width: 0.6"/>
      </g>
     </g>
    </g>
    <g id="text_6">
     <!-- Regime duration, $t_{\rm end}/t_{\rm s}$ -->
     <g transform="translate(10.50024 168.747463) rotate(-90) scale(0.1 -0.1)">
      <defs>
       <path id="Roboto-Regular-52" d="M 3188 0 
L 2200 1844 
L 1131 1844 
L 1131 0 
L 528 0 
L 528 4550 
L 2034 4550 
Q 2800 4550 3214 4200 
Q 3628 3850 3628 3184 
Q 3628 2759 3398 2442 
Q 3169 2125 2763 1969 
L 3831 38 
L 3831 0 
L 3188 0 
z
M 1131 4056 
L 1131 2334 
L 2053 2334 
Q 2538 2334 2783 2582 
Q 3028 2831 3028 3184 
Q 3028 3578 2792 3817 
Q 2556 4056 2034 4056 
L 1131 4056 
z
" transform="scale(0.015625)"/>
       <path id="Roboto-Regular-64" d="M 2622 0 
L 2594 363 
Q 2247 -63 1628 -63 
Q 1034 -63 668 418 
Q 303 900 297 1628 
L 297 1719 
Q 297 2494 664 2969 
Q 1031 3444 1634 3444 
Q 2231 3444 2572 3044 
L 2572 4800 
L 3153 4800 
L 3153 0 
L 2622 0 
z
M 878 1653 
Q 878 1150 1090 789 
Q 1303 428 1772 428 
Q 2309 428 2572 919 
L 2572 2475 
Q 2313 2956 1778 2956 
Q 1306 2956 1092 2589 
Q 878 2222 878 1719 
L 878 1653 
z
" transform="scale(0.015625)"/>
       <path id="Roboto-Regular-61" d="M 2528 0 
Q 2472 122 2447 356 
Q 2284 184 2040 60 
Q 1797 -63 1484 -63 
Q 966 -63 653 228 
Q 341 519 341 941 
Q 341 1484 753 1767 
Q 1166 2050 1863 2050 
L 2434 2050 
L 2434 2319 
Q 2434 2619 2254 2798 
Q 2075 2978 1722 2978 
Q 1394 2978 1192 2817 
Q 991 2656 991 2444 
L 413 2444 
Q 413 2806 778 3125 
Q 1144 3444 1756 3444 
Q 2306 3444 2659 3162 
Q 3013 2881 3013 2313 
L 3013 794 
Q 3013 325 3131 50 
L 3131 0 
L 2528 0 
z
M 1569 444 
Q 1881 444 2111 600 
Q 2341 756 2434 947 
L 2434 1644 
L 1897 1644 
Q 922 1625 922 1019 
Q 922 778 1084 611 
Q 1247 444 1569 444 
z
" transform="scale(0.015625)"/>
       <path id="Roboto-Regular-6f" d="M 288 1725 
Q 288 2459 700 2951 
Q 1113 3444 1822 3444 
Q 2531 3444 2943 2961 
Q 3356 2478 3366 1756 
L 3366 1653 
Q 3366 919 2952 428 
Q 2538 -63 1828 -63 
Q 1116 -63 702 428 
Q 288 919 288 1653 
L 288 1725 
z
M 866 1653 
Q 866 1150 1105 781 
Q 1344 413 1828 413 
Q 2300 413 2540 777 
Q 2781 1141 2784 1644 
L 2784 1725 
Q 2784 2222 2543 2595 
Q 2303 2969 1822 2969 
Q 1344 2969 1105 2595 
Q 866 2222 866 1725 
L 866 1653 
z
" transform="scale(0.015625)"/>
       <path id="Cmr10-65" d="M 1594 -72 
Q 1203 -72 876 133 
Q 550 338 364 680 
Q 178 1022 178 1403 
Q 178 1778 348 2115 
Q 519 2453 823 2661 
Q 1128 2869 1503 2869 
Q 1797 2869 2014 2770 
Q 2231 2672 2372 2497 
Q 2513 2322 2584 2084 
Q 2656 1847 2656 1563 
Q 2656 1478 2591 1478 
L 738 1478 
L 738 1409 
Q 738 878 952 497 
Q 1166 116 1650 116 
Q 1847 116 2014 203 
Q 2181 291 2304 447 
Q 2428 603 2472 781 
Q 2478 803 2495 820 
Q 2513 838 2534 838 
L 2591 838 
Q 2656 838 2656 756 
Q 2566 394 2266 161 
Q 1966 -72 1594 -72 
z
M 744 1638 
L 2203 1638 
Q 2203 1878 2136 2125 
Q 2069 2372 1912 2536 
Q 1756 2700 1503 2700 
Q 1141 2700 942 2361 
Q 744 2022 744 1638 
z
" transform="scale(0.015625)"/>
       <path id="Cmr10-6e" d="M 191 0 
L 191 225 
Q 409 225 550 259 
Q 691 294 691 428 
L 691 2175 
Q 691 2347 639 2423 
Q 588 2500 491 2517 
Q 394 2534 191 2534 
L 191 2759 
L 1119 2828 
L 1119 2203 
Q 1247 2478 1498 2653 
Q 1750 2828 2047 2828 
Q 2491 2828 2714 2615 
Q 2938 2403 2938 1966 
L 2938 428 
Q 2938 294 3078 259 
Q 3219 225 3438 225 
L 3438 0 
L 1972 0 
L 1972 225 
Q 2191 225 2331 259 
Q 2472 294 2472 428 
L 2472 1947 
Q 2472 2259 2381 2461 
Q 2291 2663 2009 2663 
Q 1638 2663 1398 2366 
Q 1159 2069 1159 1691 
L 1159 428 
Q 1159 294 1300 259 
Q 1441 225 1656 225 
L 1656 0 
L 191 0 
z
" transform="scale(0.015625)"/>
       <path id="Cmr10-64" d="M 1563 -72 
Q 1184 -72 871 133 
Q 559 338 386 672 
Q 213 1006 213 1381 
Q 213 1769 402 2101 
Q 591 2434 916 2631 
Q 1241 2828 1631 2828 
Q 1866 2828 2075 2729 
Q 2284 2631 2438 2456 
L 2438 3788 
Q 2438 3959 2386 4036 
Q 2334 4113 2239 4130 
Q 2144 4147 1941 4147 
L 1941 4372 
L 2888 4441 
L 2888 581 
Q 2888 413 2939 336 
Q 2991 259 3086 242 
Q 3181 225 3384 225 
L 3384 0 
L 2419 -72 
L 2419 331 
Q 2253 141 2025 34 
Q 1797 -72 1563 -72 
z
M 909 556 
Q 1019 347 1201 222 
Q 1384 97 1600 97 
Q 1866 97 2087 250 
Q 2309 403 2419 647 
L 2419 2181 
Q 2344 2322 2230 2433 
Q 2116 2544 1973 2603 
Q 1831 2663 1672 2663 
Q 1338 2663 1134 2473 
Q 931 2284 850 1990 
Q 769 1697 769 1375 
Q 769 1119 795 928 
Q 822 738 909 556 
z
" transform="scale(0.015625)"/>
      </defs>
      <use xlink:href="#Roboto-Regular-52"/>
      <use xlink:href="#Roboto-Regular-65" transform="translate(61.621094 0)"/>
      <use xlink:href="#Roboto-Regular-67" transform="translate(114.648438 0)"/>
      <use xlink:href="#Roboto-Regular-69" transform="translate(170.800781 0)"/>
      <use xlink:href="#Roboto-Regular-6d" transform="translate(195.117188 0)"/>
      <use xlink:href="#Roboto-Regular-65" transform="translate(282.8125 0)"/>
      <use xlink:href="#Roboto-Regular-20" transform="translate(335.839844 0)"/>
      <use xlink:href="#Roboto-Regular-64" transform="translate(360.644531 0)"/>
      <use xlink:href="#Roboto-Regular-75" transform="translate(417.041016 0)"/>
      <use xlink:href="#Roboto-Regular-72" transform="translate(472.167969 0)"/>
      <use xlink:href="#Roboto-Regular-61" transform="translate(506.054688 0)"/>
      <use xlink:href="#Roboto-Regular-74" transform="translate(560.449219 0)"/>
      <use xlink:href="#Roboto-Regular-69" transform="translate(593.164062 0)"/>
      <use xlink:href="#Roboto-Regular-6f" transform="translate(617.480469 0)"/>
      <use xlink:href="#Roboto-Regular-6e" transform="translate(674.511719 0)"/>
      <use xlink:href="#Roboto-Regular-2c" transform="translate(729.736328 0)"/>
      <use xlink:href="#Roboto-Regular-20" transform="translate(749.414062 0)"/>
      <use xlink:href="#Cmmi10-74" transform="translate(774.21875 0)"/>
      <use xlink:href="#Cmr10-65" transform="translate(810.302734 -17.00625) scale(0.7)"/>
      <use xlink:href="#Cmr10-6e" transform="translate(841.37207 -17.00625) scale(0.7)"/>
      <use xlink:href="#Cmr10-64" transform="translate(880.234375 -17.00625) scale(0.7)"/>
      <use xlink:href="#Cmmi10-3d" transform="translate(925.474023 0)"/>
      <use xlink:href="#Cmmi10-74" transform="translate(975.474023 0)"/>
      <use xlink:href="#Cmr10-73" transform="translate(1011.558008 -17.00625) scale(0.7)"/>
     </g>
    </g>
   </g>
   <g id="LineCollection_1">
    <path d="M 155.622817 98.671793 
L 186.672484 98.671793 
" clip-path="url(#p8f97ff4a99)" style="fill: none; stroke: #ff800e; stroke-width: 1.5"/>
    <path d="M 112.755341 132.417295 
L 143.60593 132.417295 
" clip-path="url(#p8f97ff4a99)" style="fill: none; stroke: #ff800e; stroke-width: 1.5"/>
    <path d="M 92.616124 152.746713 
L 123.457742 152.746713 
" clip-path="url(#p8f97ff4a99)" style="fill: none; stroke: #ff800e; stroke-width: 1.5"/>
    <path d="M 183.661743 84.584846 
L 214.993365 84.584846 
" clip-path="url(#p8f97ff4a99)" style="fill: none; stroke: #ff800e; stroke-width: 1.5"/>
    <path d="M 140.715552 117.272623 
L 171.609008 117.272623 
" clip-path="url(#p8f97ff4a99)" style="fill: none; stroke: #ff800e; stroke-width: 1.5"/>
    <path d="M 58.02991 195.165446 
L 88.867175 195.165446 
" clip-path="url(#p8f97ff4a99)" style="fill: none; stroke: #ff800e; stroke-width: 1.5"/>
    <path d="M 128.771298 117.337192 
L 159.639147 117.337192 
" clip-path="url(#p8f97ff4a99)" style="fill: none; stroke: #ff800e; stroke-width: 1.5"/>
    <path d="M 140.204126 111.242311 
L 171.09614 111.242311 
" clip-path="url(#p8f97ff4a99)" style="fill: none; stroke: #ff800e; stroke-width: 1.5"/>
    <path d="M 64.900521 190.567405 
L 95.738184 190.567405 
" clip-path="url(#p8f97ff4a99)" style="fill: none; stroke: #ff800e; stroke-width: 1.5"/>
    <path d="M 197.226167 65.991718 
L 229.051424 65.991718 
" clip-path="url(#p8f97ff4a99)" style="fill: none; stroke: #ff800e; stroke-width: 1.5"/>
    <path d="M 212.572222 61.722131 
L 245.596673 61.722131 
" clip-path="url(#p8f97ff4a99)" style="fill: none; stroke: #ff800e; stroke-width: 1.5"/>
    <path d="M 49.247271 204.088194 
L 80.084183 204.088194 
" clip-path="url(#p8f97ff4a99)" style="fill: none; stroke: #ff800e; stroke-width: 1.5"/>
    <path d="M 171.087171 89.241481 
L 202.185673 89.241481 
" clip-path="url(#p8f97ff4a99)" style="fill: none; stroke: #ff800e; stroke-width: 1.5"/>
    <path d="M 92.686109 169.961244 
L 123.527746 169.961244 
" clip-path="url(#p8f97ff4a99)" style="fill: none; stroke: #ff800e; stroke-width: 1.5"/>
    <path d="M 212.254201 60.17737 
L 245.242495 60.17737 
" clip-path="url(#p8f97ff4a99)" style="fill: none; stroke: #ff800e; stroke-width: 1.5"/>
    <path d="M 198.82282 83.898212 
L 230.732485 83.898212 
" clip-path="url(#p8f97ff4a99)" style="fill: none; stroke: #ff800e; stroke-width: 1.5"/>
    <path d="M 184.328189 85.844416 
L 215.676863 85.844416 
" clip-path="url(#p8f97ff4a99)" style="fill: none; stroke: #ff800e; stroke-width: 1.5"/>
   </g>
   <g id="LineCollection_2">
    <path d="M 172.664355 117.452372 
L 172.664355 83.438775 
" clip-path="url(#p8f97ff4a99)" style="fill: none; stroke: #ff800e; stroke-width: 1.5"/>
    <path d="M 129.678075 151.197875 
L 129.678075 117.184277 
" clip-path="url(#p8f97ff4a99)" style="fill: none; stroke: #ff800e; stroke-width: 1.5"/>
    <path d="M 109.533507 171.527292 
L 109.533507 137.513695 
" clip-path="url(#p8f97ff4a99)" style="fill: none; stroke: #ff800e; stroke-width: 1.5"/>
    <path d="M 200.87175 103.365426 
L 200.87175 69.351828 
" clip-path="url(#p8f97ff4a99)" style="fill: none; stroke: #ff800e; stroke-width: 1.5"/>
    <path d="M 157.663857 136.053203 
L 157.663857 102.039605 
" clip-path="url(#p8f97ff4a99)" style="fill: none; stroke: #ff800e; stroke-width: 1.5"/>
    <path d="M 74.944697 213.946026 
L 74.944697 179.932428 
" clip-path="url(#p8f97ff4a99)" style="fill: none; stroke: #ff800e; stroke-width: 1.5"/>
    <path d="M 145.704327 136.117771 
L 145.704327 102.104174 
" clip-path="url(#p8f97ff4a99)" style="fill: none; stroke: #ff800e; stroke-width: 1.5"/>
    <path d="M 157.151571 130.022891 
L 157.151571 96.009293 
" clip-path="url(#p8f97ff4a99)" style="fill: none; stroke: #ff800e; stroke-width: 1.5"/>
    <path d="M 81.815545 209.347985 
L 81.815545 175.334387 
" clip-path="url(#p8f97ff4a99)" style="fill: none; stroke: #ff800e; stroke-width: 1.5"/>
    <path d="M 214.731706 84.772298 
L 214.731706 50.7587 
" clip-path="url(#p8f97ff4a99)" style="fill: none; stroke: #ff800e; stroke-width: 1.5"/>
    <path d="M 230.798785 80.502711 
L 230.798785 46.489113 
" clip-path="url(#p8f97ff4a99)" style="fill: none; stroke: #ff800e; stroke-width: 1.5"/>
    <path d="M 66.161847 222.868774 
L 66.161847 188.855176 
" clip-path="url(#p8f97ff4a99)" style="fill: none; stroke: #ff800e; stroke-width: 1.5"/>
    <path d="M 188.157871 108.022061 
L 188.157871 74.008463 
" clip-path="url(#p8f97ff4a99)" style="fill: none; stroke: #ff800e; stroke-width: 1.5"/>
    <path d="M 109.603503 188.741823 
L 109.603503 154.728226 
" clip-path="url(#p8f97ff4a99)" style="fill: none; stroke: #ff800e; stroke-width: 1.5"/>
    <path d="M 230.458961 78.95795 
L 230.458961 44.944352 
" clip-path="url(#p8f97ff4a99)" style="fill: none; stroke: #ff800e; stroke-width: 1.5"/>
    <path d="M 216.378967 102.678791 
L 216.378967 68.665194 
" clip-path="url(#p8f97ff4a99)" style="fill: none; stroke: #ff800e; stroke-width: 1.5"/>
    <path d="M 201.548393 104.624996 
L 201.548393 70.611398 
" clip-path="url(#p8f97ff4a99)" style="fill: none; stroke: #ff800e; stroke-width: 1.5"/>
   </g>
   <g id="LineCollection_3">
    <path d="M 182.141569 101.45775 
L 208.83187 101.45775 
" clip-path="url(#p8f97ff4a99)" style="fill: none; stroke: #3d4389; stroke-width: 1.5"/>
    <path d="M 220.156848 62.678104 
L 247.010521 62.678104 
" clip-path="url(#p8f97ff4a99)" style="fill: none; stroke: #3d4389; stroke-width: 1.5"/>
    <path d="M 151.24346 125.155333 
L 177.911602 125.155333 
" clip-path="url(#p8f97ff4a99)" style="fill: none; stroke: #3d4389; stroke-width: 1.5"/>
    <path d="M 124.302711 122.38382 
L 150.966435 122.38382 
" clip-path="url(#p8f97ff4a99)" style="fill: none; stroke: #3d4389; stroke-width: 1.5"/>
    <path d="M 134.715722 120.014775 
L 161.380507 120.014775 
" clip-path="url(#p8f97ff4a99)" style="fill: none; stroke: #3d4389; stroke-width: 1.5"/>
    <path d="M 182.807197 75.077927 
L 209.498456 75.077927 
" clip-path="url(#p8f97ff4a99)" style="fill: none; stroke: #3d4389; stroke-width: 1.5"/>
    <path d="M 232.145612 71.495691 
L 259.159408 71.495691 
" clip-path="url(#p8f97ff4a99)" style="fill: none; stroke: #3d4389; stroke-width: 1.5"/>
    <path d="M 142.602981 120.483069 
L 169.269029 120.483069 
" clip-path="url(#p8f97ff4a99)" style="fill: none; stroke: #3d4389; stroke-width: 1.5"/>
    <path d="M 169.295394 99.501483 
L 195.972318 99.501483 
" clip-path="url(#p8f97ff4a99)" style="fill: none; stroke: #3d4389; stroke-width: 1.5"/>
    <path d="M 182.807197 102.956619 
L 209.498456 102.956619 
" clip-path="url(#p8f97ff4a99)" style="fill: none; stroke: #3d4389; stroke-width: 1.5"/>
    <path d="M 232.145612 61.839376 
L 259.159408 61.839376 
" clip-path="url(#p8f97ff4a99)" style="fill: none; stroke: #3d4389; stroke-width: 1.5"/>
    <path d="M 242.765518 60.560016 
L 270.031102 60.560016 
" clip-path="url(#p8f97ff4a99)" style="fill: none; stroke: #3d4389; stroke-width: 1.5"/>
    <path d="M 257.23108 74.454993 
L 285.158157 74.454993 
" clip-path="url(#p8f97ff4a99)" style="fill: none; stroke: #3d4389; stroke-width: 1.5"/>
    <path d="M 287.628126 15.138724 
L 320.623435 15.138724 
" clip-path="url(#p8f97ff4a99)" style="fill: none; stroke: #3d4389; stroke-width: 1.5"/>
    <path d="M 116.071029 135.208251 
L 142.734227 135.208251 
" clip-path="url(#p8f97ff4a99)" style="fill: none; stroke: #3d4389; stroke-width: 1.5"/>
    <path d="M 134.715722 124.659295 
L 161.380507 124.659295 
" clip-path="url(#p8f97ff4a99)" style="fill: none; stroke: #3d4389; stroke-width: 1.5"/>
    <path d="M 134.715722 112.584184 
L 161.380507 112.584184 
" clip-path="url(#p8f97ff4a99)" style="fill: none; stroke: #3d4389; stroke-width: 1.5"/>
    <path d="M 196.273317 96.652981 
L 222.992797 96.652981 
" clip-path="url(#p8f97ff4a99)" style="fill: none; stroke: #3d4389; stroke-width: 1.5"/>
    <path d="M 257.23108 48.318587 
L 285.158157 48.318587 
" clip-path="url(#p8f97ff4a99)" style="fill: none; stroke: #3d4389; stroke-width: 1.5"/>
    <path d="M 90.144778 164.803892 
L 116.80722 164.803892 
" clip-path="url(#p8f97ff4a99)" style="fill: none; stroke: #3d4389; stroke-width: 1.5"/>
   </g>
   <g id="LineCollection_4">
    <path d="M 196.609296 117.866385 
L 196.609296 87.821525 
" clip-path="url(#p8f97ff4a99)" style="fill: none; stroke: #3d4389; stroke-width: 1.5"/>
    <path d="M 234.719979 79.08674 
L 234.719979 49.041879 
" clip-path="url(#p8f97ff4a99)" style="fill: none; stroke: #3d4389; stroke-width: 1.5"/>
    <path d="M 165.698253 141.563969 
L 165.698253 111.519108 
" clip-path="url(#p8f97ff4a99)" style="fill: none; stroke: #3d4389; stroke-width: 1.5"/>
    <path d="M 138.754925 138.792455 
L 138.754925 108.747595 
" clip-path="url(#p8f97ff4a99)" style="fill: none; stroke: #3d4389; stroke-width: 1.5"/>
    <path d="M 149.168555 136.42341 
L 149.168555 106.378549 
" clip-path="url(#p8f97ff4a99)" style="fill: none; stroke: #3d4389; stroke-width: 1.5"/>
    <path d="M 197.275483 91.486563 
L 197.275483 61.441702 
" clip-path="url(#p8f97ff4a99)" style="fill: none; stroke: #3d4389; stroke-width: 1.5"/>
    <path d="M 246.802331 87.904326 
L 246.802331 57.859466 
" clip-path="url(#p8f97ff4a99)" style="fill: none; stroke: #3d4389; stroke-width: 1.5"/>
    <path d="M 157.056552 136.891704 
L 157.056552 106.846844 
" clip-path="url(#p8f97ff4a99)" style="fill: none; stroke: #3d4389; stroke-width: 1.5"/>
    <path d="M 183.755312 115.910119 
L 183.755312 85.865258 
" clip-path="url(#p8f97ff4a99)" style="fill: none; stroke: #3d4389; stroke-width: 1.5"/>
    <path d="M 197.275483 119.365254 
L 197.275483 89.320394 
" clip-path="url(#p8f97ff4a99)" style="fill: none; stroke: #3d4389; stroke-width: 1.5"/>
    <path d="M 246.802331 78.248011 
L 246.802331 48.203151 
" clip-path="url(#p8f97ff4a99)" style="fill: none; stroke: #3d4389; stroke-width: 1.5"/>
    <path d="M 257.569559 76.968652 
L 257.569559 46.923791 
" clip-path="url(#p8f97ff4a99)" style="fill: none; stroke: #3d4389; stroke-width: 1.5"/>
    <path d="M 272.423092 90.863628 
L 272.423092 60.818768 
" clip-path="url(#p8f97ff4a99)" style="fill: none; stroke: #3d4389; stroke-width: 1.5"/>
    <path d="M 305.837116 31.547359 
L 305.837116 1.502499 
" clip-path="url(#p8f97ff4a99)" style="fill: none; stroke: #3d4389; stroke-width: 1.5"/>
    <path d="M 130.522936 151.616886 
L 130.522936 121.572026 
" clip-path="url(#p8f97ff4a99)" style="fill: none; stroke: #3d4389; stroke-width: 1.5"/>
    <path d="M 149.168555 141.067931 
L 149.168555 111.02307 
" clip-path="url(#p8f97ff4a99)" style="fill: none; stroke: #3d4389; stroke-width: 1.5"/>
    <path d="M 149.168555 128.992819 
L 149.168555 98.947959 
" clip-path="url(#p8f97ff4a99)" style="fill: none; stroke: #3d4389; stroke-width: 1.5"/>
    <path d="M 210.758077 113.061616 
L 210.758077 83.016756 
" clip-path="url(#p8f97ff4a99)" style="fill: none; stroke: #3d4389; stroke-width: 1.5"/>
    <path d="M 272.423092 64.727222 
L 272.423092 34.682362 
" clip-path="url(#p8f97ff4a99)" style="fill: none; stroke: #3d4389; stroke-width: 1.5"/>
    <path d="M 104.596244 181.212527 
L 104.596244 151.167667 
" clip-path="url(#p8f97ff4a99)" style="fill: none; stroke: #3d4389; stroke-width: 1.5"/>
   </g>
   <g id="LineCollection_5">
    <path d="M 239.752026 41.230545 
L 273.372594 41.230545 
" clip-path="url(#p8f97ff4a99)" style="fill: none; stroke: #ababab; stroke-width: 1.5"/>
    <path d="M 212.384361 66.914217 
L 245.966679 66.914217 
" clip-path="url(#p8f97ff4a99)" style="fill: none; stroke: #ababab; stroke-width: 1.5"/>
    <path d="M 192.163805 60.898329 
L 225.737775 60.898329 
" clip-path="url(#p8f97ff4a99)" style="fill: none; stroke: #ababab; stroke-width: 1.5"/>
    <path d="M 228.326898 44.667268 
L 261.925131 44.667268 
" clip-path="url(#p8f97ff4a99)" style="fill: none; stroke: #ababab; stroke-width: 1.5"/>
   </g>
   <g id="LineCollection_6">
    <path d="M 258.338632 61.613843 
L 258.338632 24.961741 
" clip-path="url(#p8f97ff4a99)" style="fill: none; stroke: #ababab; stroke-width: 1.5"/>
    <path d="M 230.947832 87.297515 
L 230.947832 50.645413 
" clip-path="url(#p8f97ff4a99)" style="fill: none; stroke: #ababab; stroke-width: 1.5"/>
    <path d="M 210.722228 81.281627 
L 210.722228 44.629525 
" clip-path="url(#p8f97ff4a99)" style="fill: none; stroke: #ababab; stroke-width: 1.5"/>
    <path d="M 246.899994 65.050566 
L 246.899994 28.398464 
" clip-path="url(#p8f97ff4a99)" style="fill: none; stroke: #ababab; stroke-width: 1.5"/>
   </g>
   <g id="LineCollection_7">
    <path d="M 253.307474 63.031538 
L 286.682761 63.031538 
" clip-path="url(#p8f97ff4a99)" style="fill: none; stroke: #ffbc79; stroke-width: 1.5"/>
    <path d="M 269.30035 45.938439 
L 302.691481 45.938439 
" clip-path="url(#p8f97ff4a99)" style="fill: none; stroke: #ffbc79; stroke-width: 1.5"/>
    <path d="M 233.27613 54.664446 
L 266.643189 54.664446 
" clip-path="url(#p8f97ff4a99)" style="fill: none; stroke: #ffbc79; stroke-width: 1.5"/>
    <path d="M 217.289261 112.592507 
L 250.65365 112.592507 
" clip-path="url(#p8f97ff4a99)" style="fill: none; stroke: #ffbc79; stroke-width: 1.5"/>
    <path d="M 242.034859 56.306958 
L 275.404553 56.306958 
" clip-path="url(#p8f97ff4a99)" style="fill: none; stroke: #ffbc79; stroke-width: 1.5"/>
    <path d="M 253.294404 53.587668 
L 286.669682 53.587668 
" clip-path="url(#p8f97ff4a99)" style="fill: none; stroke: #ffbc79; stroke-width: 1.5"/>
   </g>
   <g id="LineCollection_8">
    <path d="M 271.745805 83.292208 
L 271.745805 46.840798 
" clip-path="url(#p8f97ff4a99)" style="fill: none; stroke: #ffbc79; stroke-width: 1.5"/>
    <path d="M 287.748253 66.199109 
L 287.748253 29.7477 
" clip-path="url(#p8f97ff4a99)" style="fill: none; stroke: #ffbc79; stroke-width: 1.5"/>
    <path d="M 251.70949 74.925115 
L 251.70949 38.473706 
" clip-path="url(#p8f97ff4a99)" style="fill: none; stroke: #ffbc79; stroke-width: 1.5"/>
    <path d="M 235.721008 132.853177 
L 235.721008 96.401768 
" clip-path="url(#p8f97ff4a99)" style="fill: none; stroke: #ffbc79; stroke-width: 1.5"/>
    <path d="M 260.469811 76.567628 
L 260.469811 40.116219 
" clip-path="url(#p8f97ff4a99)" style="fill: none; stroke: #ffbc79; stroke-width: 1.5"/>
    <path d="M 271.73273 73.848338 
L 271.73273 37.396929 
" clip-path="url(#p8f97ff4a99)" style="fill: none; stroke: #ffbc79; stroke-width: 1.5"/>
   </g>
   <g id="LineCollection_9">
    <path d="M 243.546683 57.974385 
L 280.893019 57.974385 
" clip-path="url(#p8f97ff4a99)" style="fill: none; stroke: #9467bd; stroke-width: 1.5"/>
   </g>
   <g id="LineCollection_10">
    <path d="M 264.407885 80.629751 
L 264.407885 40.293447 
" clip-path="url(#p8f97ff4a99)" style="fill: none; stroke: #9467bd; stroke-width: 1.5"/>
   </g>
   <g id="line2d_56">
    <defs>
     <path id="m06d3188761" d="M 0 1.5 
C 0.397805 1.5 0.77937 1.341951 1.06066 1.06066 
C 1.341951 0.77937 1.5 0.397805 1.5 0 
C 1.5 -0.397805 1.341951 -0.77937 1.06066 -1.06066 
C 0.77937 -1.341951 0.397805 -1.5 0 -1.5 
C -0.397805 -1.5 -0.77937 -1.341951 -1.06066 -1.06066 
C -1.341951 -0.77937 -1.5 -0.397805 -1.5 0 
C -1.5 0.397805 -1.341951 0.77937 -1.06066 1.06066 
C -0.77937 1.341951 -0.397805 1.5 0 1.5 
z
" style="stroke: #ff800e"/>
    </defs>
    <g clip-path="url(#p8f97ff4a99)">
     <use xlink:href="#m06d3188761" x="172.664355" y="98.671793" style="fill: #ff800e; stroke: #ff800e"/>
     <use xlink:href="#m06d3188761" x="129.678075" y="132.417295" style="fill: #ff800e; stroke: #ff800e"/>
     <use xlink:href="#m06d3188761" x="109.533507" y="152.746713" style="fill: #ff800e; stroke: #ff800e"/>
     <use xlink:href="#m06d3188761" x="200.87175" y="84.584846" style="fill: #ff800e; stroke: #ff800e"/>
     <use xlink:href="#m06d3188761" x="157.663857" y="117.272623" style="fill: #ff800e; stroke: #ff800e"/>
     <use xlink:href="#m06d3188761" x="74.944697" y="195.165446" style="fill: #ff800e; stroke: #ff800e"/>
     <use xlink:href="#m06d3188761" x="145.704327" y="117.337192" style="fill: #ff800e; stroke: #ff800e"/>
     <use xlink:href="#m06d3188761" x="157.151571" y="111.242311" style="fill: #ff800e; stroke: #ff800e"/>
     <use xlink:href="#m06d3188761" x="81.815545" y="190.567405" style="fill: #ff800e; stroke: #ff800e"/>
     <use xlink:href="#m06d3188761" x="214.731706" y="65.991718" style="fill: #ff800e; stroke: #ff800e"/>
     <use xlink:href="#m06d3188761" x="230.798785" y="61.722131" style="fill: #ff800e; stroke: #ff800e"/>
     <use xlink:href="#m06d3188761" x="66.161847" y="204.088194" style="fill: #ff800e; stroke: #ff800e"/>
     <use xlink:href="#m06d3188761" x="188.157871" y="89.241481" style="fill: #ff800e; stroke: #ff800e"/>
     <use xlink:href="#m06d3188761" x="109.603503" y="169.961244" style="fill: #ff800e; stroke: #ff800e"/>
     <use xlink:href="#m06d3188761" x="230.458961" y="60.17737" style="fill: #ff800e; stroke: #ff800e"/>
     <use xlink:href="#m06d3188761" x="216.378967" y="83.898212" style="fill: #ff800e; stroke: #ff800e"/>
     <use xlink:href="#m06d3188761" x="201.548393" y="85.844416" style="fill: #ff800e; stroke: #ff800e"/>
    </g>
   </g>
   <g id="line2d_57">
    <defs>
     <path id="m927d1f7525" d="M 0 1.5 
C 0.397805 1.5 0.77937 1.341951 1.06066 1.06066 
C 1.341951 0.77937 1.5 0.397805 1.5 0 
C 1.5 -0.397805 1.341951 -0.77937 1.06066 -1.06066 
C 0.77937 -1.341951 0.397805 -1.5 0 -1.5 
C -0.397805 -1.5 -0.77937 -1.341951 -1.06066 -1.06066 
C -1.341951 -0.77937 -1.5 -0.397805 -1.5 0 
C -1.5 0.397805 -1.341951 0.77937 -1.06066 1.06066 
C -0.77937 1.341951 -0.397805 1.5 0 1.5 
z
" style="stroke: #3d4389"/>
    </defs>
    <g clip-path="url(#p8f97ff4a99)">
     <use xlink:href="#m927d1f7525" x="196.609296" y="101.45775" style="fill: #3d4389; stroke: #3d4389"/>
     <use xlink:href="#m927d1f7525" x="234.719979" y="62.678104" style="fill: #3d4389; stroke: #3d4389"/>
     <use xlink:href="#m927d1f7525" x="165.698253" y="125.155333" style="fill: #3d4389; stroke: #3d4389"/>
     <use xlink:href="#m927d1f7525" x="138.754925" y="122.38382" style="fill: #3d4389; stroke: #3d4389"/>
     <use xlink:href="#m927d1f7525" x="149.168555" y="120.014775" style="fill: #3d4389; stroke: #3d4389"/>
     <use xlink:href="#m927d1f7525" x="197.275483" y="75.077927" style="fill: #3d4389; stroke: #3d4389"/>
     <use xlink:href="#m927d1f7525" x="246.802331" y="71.495691" style="fill: #3d4389; stroke: #3d4389"/>
     <use xlink:href="#m927d1f7525" x="157.056552" y="120.483069" style="fill: #3d4389; stroke: #3d4389"/>
     <use xlink:href="#m927d1f7525" x="183.755312" y="99.501483" style="fill: #3d4389; stroke: #3d4389"/>
     <use xlink:href="#m927d1f7525" x="197.275483" y="102.956619" style="fill: #3d4389; stroke: #3d4389"/>
     <use xlink:href="#m927d1f7525" x="246.802331" y="61.839376" style="fill: #3d4389; stroke: #3d4389"/>
     <use xlink:href="#m927d1f7525" x="257.569559" y="60.560016" style="fill: #3d4389; stroke: #3d4389"/>
     <use xlink:href="#m927d1f7525" x="272.423092" y="74.454993" style="fill: #3d4389; stroke: #3d4389"/>
     <use xlink:href="#m927d1f7525" x="305.837116" y="15.138724" style="fill: #3d4389; stroke: #3d4389"/>
     <use xlink:href="#m927d1f7525" x="130.522936" y="135.208251" style="fill: #3d4389; stroke: #3d4389"/>
     <use xlink:href="#m927d1f7525" x="149.168555" y="124.659295" style="fill: #3d4389; stroke: #3d4389"/>
     <use xlink:href="#m927d1f7525" x="149.168555" y="112.584184" style="fill: #3d4389; stroke: #3d4389"/>
     <use xlink:href="#m927d1f7525" x="210.758077" y="96.652981" style="fill: #3d4389; stroke: #3d4389"/>
     <use xlink:href="#m927d1f7525" x="272.423092" y="48.318587" style="fill: #3d4389; stroke: #3d4389"/>
     <use xlink:href="#m927d1f7525" x="104.596244" y="164.803892" style="fill: #3d4389; stroke: #3d4389"/>
    </g>
   </g>
   <g id="line2d_58">
    <defs>
     <path id="mea89b6c699" d="M 0 1.5 
C 0.397805 1.5 0.77937 1.341951 1.06066 1.06066 
C 1.341951 0.77937 1.5 0.397805 1.5 0 
C 1.5 -0.397805 1.341951 -0.77937 1.06066 -1.06066 
C 0.77937 -1.341951 0.397805 -1.5 0 -1.5 
C -0.397805 -1.5 -0.77937 -1.341951 -1.06066 -1.06066 
C -1.341951 -0.77937 -1.5 -0.397805 -1.5 0 
C -1.5 0.397805 -1.341951 0.77937 -1.06066 1.06066 
C -0.77937 1.341951 -0.397805 1.5 0 1.5 
z
" style="stroke: #ababab"/>
    </defs>
    <g clip-path="url(#p8f97ff4a99)">
     <use xlink:href="#mea89b6c699" x="258.338632" y="41.230545" style="fill: #ababab; stroke: #ababab"/>
     <use xlink:href="#mea89b6c699" x="230.947832" y="66.914217" style="fill: #ababab; stroke: #ababab"/>
     <use xlink:href="#mea89b6c699" x="210.722228" y="60.898329" style="fill: #ababab; stroke: #ababab"/>
     <use xlink:href="#mea89b6c699" x="246.899994" y="44.667268" style="fill: #ababab; stroke: #ababab"/>
    </g>
   </g>
   <g id="line2d_59">
    <defs>
     <path id="m13063dd06d" d="M 0 1.5 
C 0.397805 1.5 0.77937 1.341951 1.06066 1.06066 
C 1.341951 0.77937 1.5 0.397805 1.5 0 
C 1.5 -0.397805 1.341951 -0.77937 1.06066 -1.06066 
C 0.77937 -1.341951 0.397805 -1.5 0 -1.5 
C -0.397805 -1.5 -0.77937 -1.341951 -1.06066 -1.06066 
C -1.341951 -0.77937 -1.5 -0.397805 -1.5 0 
C -1.5 0.397805 -1.341951 0.77937 -1.06066 1.06066 
C -0.77937 1.341951 -0.397805 1.5 0 1.5 
z
" style="stroke: #ffbc79"/>
    </defs>
    <g clip-path="url(#p8f97ff4a99)">
     <use xlink:href="#m13063dd06d" x="271.745805" y="63.031538" style="fill: #ffbc79; stroke: #ffbc79"/>
     <use xlink:href="#m13063dd06d" x="287.748253" y="45.938439" style="fill: #ffbc79; stroke: #ffbc79"/>
     <use xlink:href="#m13063dd06d" x="251.70949" y="54.664446" style="fill: #ffbc79; stroke: #ffbc79"/>
     <use xlink:href="#m13063dd06d" x="235.721008" y="112.592507" style="fill: #ffbc79; stroke: #ffbc79"/>
     <use xlink:href="#m13063dd06d" x="260.469811" y="56.306958" style="fill: #ffbc79; stroke: #ffbc79"/>
     <use xlink:href="#m13063dd06d" x="271.73273" y="53.587668" style="fill: #ffbc79; stroke: #ffbc79"/>
    </g>
   </g>
   <g id="line2d_60">
    <defs>
     <path id="m7e6ae7f1ed" d="M 0 1.5 
C 0.397805 1.5 0.77937 1.341951 1.06066 1.06066 
C 1.341951 0.77937 1.5 0.397805 1.5 0 
C 1.5 -0.397805 1.341951 -0.77937 1.06066 -1.06066 
C 0.77937 -1.341951 0.397805 -1.5 0 -1.5 
C -0.397805 -1.5 -0.77937 -1.341951 -1.06066 -1.06066 
C -1.341951 -0.77937 -1.5 -0.397805 -1.5 0 
C -1.5 0.397805 -1.341951 0.77937 -1.06066 1.06066 
C -0.77937 1.341951 -0.397805 1.5 0 1.5 
z
" style="stroke: #9467bd"/>
    </defs>
    <g clip-path="url(#p8f97ff4a99)">
     <use xlink:href="#m7e6ae7f1ed" x="264.407885" y="57.974385" style="fill: #9467bd; stroke: #9467bd"/>
    </g>
   </g>
   <g id="patch_6">
    <path d="M 40.10024 229.894685 
L 40.10024 3.00024 
" style="fill: none; stroke: #000000; stroke-width: 0.8; stroke-linejoin: miter; stroke-linecap: square"/>
   </g>
   <g id="patch_7">
    <path d="M 323.807011 229.894685 
L 323.807011 3.00024 
" style="fill: none; stroke: #000000; stroke-width: 0.8; stroke-linejoin: miter; stroke-linecap: square"/>
   </g>
   <g id="patch_8">
    <path d="M 40.10024 229.894685 
L 323.807011 229.894685 
" style="fill: none; stroke: #000000; stroke-width: 0.8; stroke-linejoin: miter; stroke-linecap: square"/>
   </g>
   <g id="patch_9">
    <path d="M 40.10024 3.00024 
L 323.807011 3.00024 
" style="fill: none; stroke: #000000; stroke-width: 0.8; stroke-linejoin: miter; stroke-linecap: square"/>
   </g>
   <g id="text_7">
    <!-- no  -->
    <g transform="translate(289.726255 143.648359) rotate(-65) scale(0.1 -0.1)">
     <use xlink:href="#Roboto-Regular-6e"/>
     <use xlink:href="#Roboto-Regular-6f" x="55.224609"/>
     <use xlink:href="#Roboto-Regular-20" x="112.255859"/>
    </g>
    <!--  constant velocity  -->
    <g transform="translate(285.605871 178.586712) rotate(-65) scale(0.1 -0.1)">
     <defs>
      <path id="Roboto-Regular-63" d="M 1794 413 
Q 2103 413 2336 597 
Q 2569 781 2591 1069 
L 3141 1069 
Q 3119 616 2725 276 
Q 2331 -63 1794 -63 
Q 1031 -63 661 440 
Q 291 944 291 1625 
L 291 1756 
Q 291 2438 661 2941 
Q 1031 3444 1794 3444 
Q 2388 3444 2753 3092 
Q 3119 2741 3141 2219 
L 2591 2219 
Q 2569 2531 2355 2750 
Q 2141 2969 1794 2969 
Q 1438 2969 1236 2787 
Q 1034 2606 951 2328 
Q 869 2050 869 1756 
L 869 1625 
Q 869 1328 950 1050 
Q 1031 772 1232 592 
Q 1434 413 1794 413 
z
" transform="scale(0.015625)"/>
      <path id="Roboto-Regular-73" d="M 2409 897 
Q 2409 1081 2273 1229 
Q 2138 1378 1647 1478 
Q 1081 1594 747 1814 
Q 413 2034 413 2456 
Q 413 2856 755 3150 
Q 1097 3444 1666 3444 
Q 2272 3444 2612 3134 
Q 2953 2825 2953 2388 
L 2375 2388 
Q 2375 2597 2190 2783 
Q 2006 2969 1666 2969 
Q 1306 2969 1150 2812 
Q 994 2656 994 2472 
Q 994 2288 1139 2173 
Q 1284 2059 1756 1953 
Q 2378 1813 2683 1584 
Q 2988 1356 2988 941 
Q 2988 494 2630 215 
Q 2272 -63 1681 -63 
Q 1009 -63 653 281 
Q 297 625 297 1044 
L 878 1044 
Q 897 684 1155 548 
Q 1413 413 1681 413 
Q 2034 413 2221 550 
Q 2409 688 2409 897 
z
" transform="scale(0.015625)"/>
      <path id="Roboto-Regular-76" d="M 2984 3381 
L 1769 0 
L 1328 0 
L 103 3381 
L 697 3381 
L 1556 791 
L 2394 3381 
L 2984 3381 
z
" transform="scale(0.015625)"/>
      <path id="Roboto-Regular-79" d="M 1594 -522 
Q 1294 -1316 688 -1363 
L 591 -1366 
Q 406 -1366 266 -1316 
L 263 -847 
L 419 -859 
Q 713 -859 878 -739 
Q 1044 -619 1150 -306 
L 1275 38 
L 69 3381 
L 700 3381 
L 1547 850 
L 2331 3381 
L 2950 3381 
L 1594 -522 
z
" transform="scale(0.015625)"/>
     </defs>
     <use xlink:href="#Roboto-Regular-20"/>
     <use xlink:href="#Roboto-Regular-63" x="24.804688"/>
     <use xlink:href="#Roboto-Regular-6f" x="77.148438"/>
     <use xlink:href="#Roboto-Regular-6e" x="134.179688"/>
     <use xlink:href="#Roboto-Regular-73" x="189.404297"/>
     <use xlink:href="#Roboto-Regular-74" x="241.015625"/>
     <use xlink:href="#Roboto-Regular-61" x="273.730469"/>
     <use xlink:href="#Roboto-Regular-6e" x="328.125"/>
     <use xlink:href="#Roboto-Regular-74" x="383.349609"/>
     <use xlink:href="#Roboto-Regular-20" x="416.064453"/>
     <use xlink:href="#Roboto-Regular-76" x="440.869141"/>
     <use xlink:href="#Roboto-Regular-65" x="489.306641"/>
     <use xlink:href="#Roboto-Regular-6c" x="542.333984"/>
     <use xlink:href="#Roboto-Regular-6f" x="566.650391"/>
     <use xlink:href="#Roboto-Regular-63" x="623.681641"/>
     <use xlink:href="#Roboto-Regular-69" x="676.025391"/>
     <use xlink:href="#Roboto-Regular-74" x="700.341797"/>
     <use xlink:href="#Roboto-Regular-79" x="733.056641"/>
     <use xlink:href="#Roboto-Regular-20" x="780.371094"/>
    </g>
    <!--  regime -->
    <g transform="translate(305.676116 161.892109) rotate(-65) scale(0.1 -0.1)">
     <use xlink:href="#Roboto-Regular-20"/>
     <use xlink:href="#Roboto-Regular-72" x="24.804688"/>
     <use xlink:href="#Roboto-Regular-65" x="58.691406"/>
     <use xlink:href="#Roboto-Regular-67" x="111.71875"/>
     <use xlink:href="#Roboto-Regular-69" x="167.871094"/>
     <use xlink:href="#Roboto-Regular-6d" x="192.1875"/>
     <use xlink:href="#Roboto-Regular-65" x="279.882812"/>
    </g>
   </g>
   <g id="text_8">
    <!-- negligible settling  -->
    <g transform="translate(53.282645 81.622805) scale(0.1 -0.1)">
     <use xlink:href="#Roboto-Regular-6e"/>
     <use xlink:href="#Roboto-Regular-65" x="55.224609"/>
     <use xlink:href="#Roboto-Regular-67" x="108.251953"/>
     <use xlink:href="#Roboto-Regular-6c" x="164.404297"/>
     <use xlink:href="#Roboto-Regular-69" x="188.720703"/>
     <use xlink:href="#Roboto-Regular-67" x="213.037109"/>
     <use xlink:href="#Roboto-Regular-69" x="269.189453"/>
     <use xlink:href="#Roboto-Regular-62" x="293.505859"/>
     <use xlink:href="#Roboto-Regular-6c" x="349.658203"/>
     <use xlink:href="#Roboto-Regular-65" x="373.974609"/>
     <use xlink:href="#Roboto-Regular-20" x="427.001953"/>
     <use xlink:href="#Roboto-Regular-73" x="451.806641"/>
     <use xlink:href="#Roboto-Regular-65" x="503.417969"/>
     <use xlink:href="#Roboto-Regular-74" x="556.445312"/>
     <use xlink:href="#Roboto-Regular-74" x="589.160156"/>
     <use xlink:href="#Roboto-Regular-6c" x="621.875"/>
     <use xlink:href="#Roboto-Regular-69" x="646.191406"/>
     <use xlink:href="#Roboto-Regular-6e" x="670.507812"/>
     <use xlink:href="#Roboto-Regular-67" x="725.732422"/>
     <use xlink:href="#Roboto-Regular-20" x="781.884766"/>
    </g>
    <!--  (saline currents limit) -->
    <g transform="translate(45.240457 93.33343) scale(0.1 -0.1)">
     <defs>
      <path id="Roboto-Regular-28" d="M 419 1850 
Q 419 2756 678 3434 
Q 938 4113 1294 4541 
Q 1650 4969 1947 5134 
L 2069 4753 
Q 1700 4475 1348 3761 
Q 997 3047 997 1813 
Q 997 625 1348 -97 
Q 1700 -819 2069 -1119 
L 1947 -1469 
Q 1650 -1306 1294 -878 
Q 938 -450 678 226 
Q 419 903 419 1850 
z
" transform="scale(0.015625)"/>
      <path id="Roboto-Regular-29" d="M 1772 1819 
Q 1772 906 1512 228 
Q 1253 -450 895 -878 
Q 538 -1306 244 -1469 
L 122 -1119 
Q 488 -841 841 -109 
Q 1194 622 1194 1856 
Q 1194 2647 1019 3236 
Q 844 3825 594 4212 
Q 344 4600 122 4781 
L 244 5134 
Q 538 4969 895 4541 
Q 1253 4113 1512 3436 
Q 1772 2759 1772 1819 
z
" transform="scale(0.015625)"/>
     </defs>
     <use xlink:href="#Roboto-Regular-20"/>
     <use xlink:href="#Roboto-Regular-28" x="24.804688"/>
     <use xlink:href="#Roboto-Regular-73" x="59.033203"/>
     <use xlink:href="#Roboto-Regular-61" x="110.644531"/>
     <use xlink:href="#Roboto-Regular-6c" x="165.039062"/>
     <use xlink:href="#Roboto-Regular-69" x="189.355469"/>
     <use xlink:href="#Roboto-Regular-6e" x="213.671875"/>
     <use xlink:href="#Roboto-Regular-65" x="268.896484"/>
     <use xlink:href="#Roboto-Regular-20" x="321.923828"/>
     <use xlink:href="#Roboto-Regular-63" x="346.728516"/>
     <use xlink:href="#Roboto-Regular-75" x="399.072266"/>
     <use xlink:href="#Roboto-Regular-72" x="454.199219"/>
     <use xlink:href="#Roboto-Regular-72" x="488.085938"/>
     <use xlink:href="#Roboto-Regular-65" x="521.972656"/>
     <use xlink:href="#Roboto-Regular-6e" x="575"/>
     <use xlink:href="#Roboto-Regular-74" x="630.224609"/>
     <use xlink:href="#Roboto-Regular-73" x="662.939453"/>
     <use xlink:href="#Roboto-Regular-20" x="714.550781"/>
     <use xlink:href="#Roboto-Regular-6c" x="739.355469"/>
     <use xlink:href="#Roboto-Regular-69" x="763.671875"/>
     <use xlink:href="#Roboto-Regular-6d" x="787.988281"/>
     <use xlink:href="#Roboto-Regular-69" x="875.683594"/>
     <use xlink:href="#Roboto-Regular-74" x="900"/>
     <use xlink:href="#Roboto-Regular-29" x="932.714844"/>
    </g>
   </g>
   <g id="text_9">
    <!-- transition -->
    <g transform="translate(175.673268 176.528087) scale(0.1 -0.1)">
     <use xlink:href="#Roboto-Regular-74"/>
     <use xlink:href="#Roboto-Regular-72" x="32.714844"/>
     <use xlink:href="#Roboto-Regular-61" x="66.601562"/>
     <use xlink:href="#Roboto-Regular-6e" x="120.996094"/>
     <use xlink:href="#Roboto-Regular-73" x="176.220703"/>
     <use xlink:href="#Roboto-Regular-69" x="227.832031"/>
     <use xlink:href="#Roboto-Regular-74" x="252.148438"/>
     <use xlink:href="#Roboto-Regular-69" x="284.863281"/>
     <use xlink:href="#Roboto-Regular-6f" x="309.179688"/>
     <use xlink:href="#Roboto-Regular-6e" x="366.210938"/>
    </g>
   </g>
   <g id="text_10">
    <!-- settling  -->
    <g transform="translate(244.646194 177.37723) rotate(-65) scale(0.1 -0.1)">
     <use xlink:href="#Roboto-Regular-73"/>
     <use xlink:href="#Roboto-Regular-65" x="51.611328"/>
     <use xlink:href="#Roboto-Regular-74" x="104.638672"/>
     <use xlink:href="#Roboto-Regular-74" x="137.353516"/>
     <use xlink:href="#Roboto-Regular-6c" x="170.068359"/>
     <use xlink:href="#Roboto-Regular-69" x="194.384766"/>
     <use xlink:href="#Roboto-Regular-6e" x="218.701172"/>
     <use xlink:href="#Roboto-Regular-67" x="273.925781"/>
     <use xlink:href="#Roboto-Regular-20" x="330.078125"/>
    </g>
    <!--  dominated -->
    <g transform="translate(251.583494 188.728008) rotate(-65) scale(0.1 -0.1)">
     <use xlink:href="#Roboto-Regular-20"/>
     <use xlink:href="#Roboto-Regular-64" x="24.804688"/>
     <use xlink:href="#Roboto-Regular-6f" x="81.201172"/>
     <use xlink:href="#Roboto-Regular-6d" x="138.232422"/>
     <use xlink:href="#Roboto-Regular-69" x="225.927734"/>
     <use xlink:href="#Roboto-Regular-6e" x="250.244141"/>
     <use xlink:href="#Roboto-Regular-61" x="305.46875"/>
     <use xlink:href="#Roboto-Regular-74" x="359.863281"/>
     <use xlink:href="#Roboto-Regular-65" x="392.578125"/>
     <use xlink:href="#Roboto-Regular-64" x="445.605469"/>
    </g>
   </g>
   <g id="legend_1">
    <g id="patch_10">
     <path d="M 339.992349 93.65649 
L 418.892349 93.65649 
Q 420.892349 93.65649 420.892349 91.65649 
L 420.892349 5.00024 
Q 420.892349 3.00024 418.892349 3.00024 
L 339.992349 3.00024 
Q 337.992349 3.00024 337.992349 5.00024 
L 337.992349 91.65649 
Q 337.992349 93.65649 339.992349 93.65649 
z
" style="fill: #ffffff; opacity: 0.2; stroke: #000000; stroke-linejoin: miter"/>
    </g>
    <g id="text_11">
     <!-- $v_{\rm s}$ [cm/s] -->
     <g transform="translate(359.742349 14.96899) scale(0.1 -0.1)">
      <defs>
       <path id="Roboto-Regular-5b" d="M 1634 5200 
L 1634 4725 
L 1038 4725 
L 1038 -500 
L 1634 -500 
L 1634 -975 
L 459 -975 
L 459 5200 
L 1634 5200 
z
" transform="scale(0.015625)"/>
       <path id="Roboto-Regular-2f" d="M 2453 4550 
L 556 -391 
L 59 -391 
L 1959 4550 
L 2453 4550 
z
" transform="scale(0.015625)"/>
       <path id="Roboto-Regular-5d" d="M 31 4725 
L 31 5200 
L 1213 5200 
L 1213 -975 
L 31 -975 
L 31 -500 
L 631 -500 
L 631 4725 
L 31 4725 
z
" transform="scale(0.015625)"/>
      </defs>
      <use xlink:href="#Cmmi10-76" transform="translate(0 0.75)"/>
      <use xlink:href="#Cmr10-73" transform="translate(48.388672 -16.25625) scale(0.7)"/>
      <use xlink:href="#Roboto-Regular-20" transform="translate(82.349023 0.75)"/>
      <use xlink:href="#Roboto-Regular-5b" transform="translate(107.153711 0.75)"/>
      <use xlink:href="#Roboto-Regular-63" transform="translate(133.667383 0.75)"/>
      <use xlink:href="#Roboto-Regular-6d" transform="translate(186.011133 0.75)"/>
      <use xlink:href="#Roboto-Regular-2f" transform="translate(273.706445 0.75)"/>
      <use xlink:href="#Roboto-Regular-73" transform="translate(314.966211 0.75)"/>
      <use xlink:href="#Roboto-Regular-5d" transform="translate(366.577539 0.75)"/>
     </g>
    </g>
    <g id="LineCollection_11">
     <path d="M 346.992349 26.00024 
L 356.992349 26.00024 
" style="fill: none; stroke: #ff800e; stroke-width: 1.5"/>
    </g>
    <g id="LineCollection_12">
     <path d="M 351.992349 31.00024 
L 351.992349 21.00024 
" style="fill: none; stroke: #ff800e; stroke-width: 1.5"/>
    </g>
    <g id="line2d_61"/>
    <g id="line2d_62">
     <g>
      <use xlink:href="#m06d3188761" x="351.992349" y="26.00024" style="fill: #ff800e; stroke: #ff800e"/>
     </g>
    </g>
    <g id="text_12">
     <!-- $0.32 \pm 0.12$ -->
     <g transform="translate(369.992349 29.50024) scale(0.1 -0.1)">
      <defs>
       <path id="Cmmi10-3a" d="M 538 353 
Q 538 497 644 600 
Q 750 703 891 703 
Q 978 703 1062 656 
Q 1147 609 1194 525 
Q 1241 441 1241 353 
Q 1241 213 1137 106 
Q 1034 0 891 0 
Q 750 0 644 106 
Q 538 213 538 353 
z
" transform="scale(0.015625)"/>
       <path id="Cmr10-33" d="M 609 494 
Q 759 275 1012 169 
Q 1266 63 1556 63 
Q 1928 63 2084 380 
Q 2241 697 2241 1100 
Q 2241 1281 2208 1462 
Q 2175 1644 2097 1800 
Q 2019 1956 1883 2050 
Q 1747 2144 1550 2144 
L 1125 2144 
Q 1069 2144 1069 2203 
L 1069 2259 
Q 1069 2309 1125 2309 
L 1478 2338 
Q 1703 2338 1851 2506 
Q 2000 2675 2069 2917 
Q 2138 3159 2138 3378 
Q 2138 3684 1994 3881 
Q 1850 4078 1556 4078 
Q 1313 4078 1091 3986 
Q 869 3894 738 3706 
Q 750 3709 759 3711 
Q 769 3713 781 3713 
Q 925 3713 1022 3613 
Q 1119 3513 1119 3372 
Q 1119 3234 1022 3134 
Q 925 3034 781 3034 
Q 641 3034 541 3134 
Q 441 3234 441 3372 
Q 441 3647 606 3850 
Q 772 4053 1033 4158 
Q 1294 4263 1556 4263 
Q 1750 4263 1965 4205 
Q 2181 4147 2356 4039 
Q 2531 3931 2642 3762 
Q 2753 3594 2753 3378 
Q 2753 3109 2633 2881 
Q 2513 2653 2303 2487 
Q 2094 2322 1844 2241 
Q 2122 2188 2372 2031 
Q 2622 1875 2773 1631 
Q 2925 1388 2925 1106 
Q 2925 753 2731 467 
Q 2538 181 2222 20 
Q 1906 -141 1556 -141 
Q 1256 -141 954 -26 
Q 653 88 461 316 
Q 269 544 269 863 
Q 269 1022 375 1128 
Q 481 1234 641 1234 
Q 744 1234 830 1186 
Q 916 1138 964 1050 
Q 1013 963 1013 863 
Q 1013 706 903 600 
Q 794 494 641 494 
L 609 494 
z
" transform="scale(0.015625)"/>
       <path id="Cmr10-32" d="M 319 0 
L 319 172 
Q 319 188 331 206 
L 1325 1306 
Q 1550 1550 1690 1715 
Q 1831 1881 1968 2097 
Q 2106 2313 2186 2536 
Q 2266 2759 2266 3009 
Q 2266 3272 2169 3511 
Q 2072 3750 1880 3894 
Q 1688 4038 1416 4038 
Q 1138 4038 916 3870 
Q 694 3703 603 3438 
Q 628 3444 672 3444 
Q 816 3444 917 3347 
Q 1019 3250 1019 3097 
Q 1019 2950 917 2848 
Q 816 2747 672 2747 
Q 522 2747 420 2851 
Q 319 2956 319 3097 
Q 319 3338 409 3548 
Q 500 3759 670 3923 
Q 841 4088 1055 4175 
Q 1269 4263 1509 4263 
Q 1875 4263 2190 4108 
Q 2506 3953 2690 3670 
Q 2875 3388 2875 3009 
Q 2875 2731 2753 2481 
Q 2631 2231 2440 2026 
Q 2250 1822 1953 1562 
Q 1656 1303 1563 1216 
L 838 519 
L 1453 519 
Q 1906 519 2211 526 
Q 2516 534 2534 550 
Q 2609 631 2688 1141 
L 2875 1141 
L 2694 0 
L 319 0 
z
" transform="scale(0.015625)"/>
       <path id="Cmsy10-a7" d="M 481 0 
Q 428 0 393 37 
Q 359 75 359 128 
Q 359 175 393 215 
Q 428 256 481 256 
L 2363 256 
L 2363 2003 
L 481 2003 
Q 428 2003 393 2043 
Q 359 2084 359 2131 
Q 359 2178 393 2218 
Q 428 2259 481 2259 
L 2363 2259 
L 2363 4147 
Q 2363 4197 2400 4230 
Q 2438 4263 2491 4263 
Q 2534 4263 2576 4230 
Q 2619 4197 2619 4147 
L 2619 2259 
L 4500 2259 
Q 4547 2259 4581 2218 
Q 4616 2178 4616 2131 
Q 4616 2084 4581 2043 
Q 4547 2003 4500 2003 
L 2619 2003 
L 2619 256 
L 4500 256 
Q 4547 256 4581 215 
Q 4616 175 4616 128 
Q 4616 75 4581 37 
Q 4547 0 4500 0 
L 481 0 
z
" transform="scale(0.015625)"/>
       <path id="Cmr10-31" d="M 594 0 
L 594 225 
Q 1394 225 1394 428 
L 1394 3788 
Q 1063 3628 556 3628 
L 556 3853 
Q 1341 3853 1741 4263 
L 1831 4263 
Q 1853 4263 1873 4245 
Q 1894 4228 1894 4206 
L 1894 428 
Q 1894 225 2694 225 
L 2694 0 
L 594 0 
z
" transform="scale(0.015625)"/>
      </defs>
      <use xlink:href="#Cmr10-30" transform="translate(0 0.390625)"/>
      <use xlink:href="#Cmmi10-3a" transform="translate(50 0.390625)"/>
      <use xlink:href="#Cmr10-33" transform="translate(77.685547 0.390625)"/>
      <use xlink:href="#Cmr10-32" transform="translate(127.685547 0.390625)"/>
      <use xlink:href="#Cmsy10-a7" transform="translate(195.244141 0.390625)"/>
      <use xlink:href="#Cmr10-30" transform="translate(290.488281 0.390625)"/>
      <use xlink:href="#Cmmi10-3a" transform="translate(340.488281 0.390625)"/>
      <use xlink:href="#Cmr10-31" transform="translate(368.173828 0.390625)"/>
      <use xlink:href="#Cmr10-32" transform="translate(418.173828 0.390625)"/>
     </g>
    </g>
    <g id="LineCollection_13">
     <path d="M 346.992349 40.53149 
L 356.992349 40.53149 
" style="fill: none; stroke: #3d4389; stroke-width: 1.5"/>
    </g>
    <g id="LineCollection_14">
     <path d="M 351.992349 45.53149 
L 351.992349 35.53149 
" style="fill: none; stroke: #3d4389; stroke-width: 1.5"/>
    </g>
    <g id="line2d_63"/>
    <g id="line2d_64">
     <g>
      <use xlink:href="#m927d1f7525" x="351.992349" y="40.53149" style="fill: #3d4389; stroke: #3d4389"/>
     </g>
    </g>
    <g id="text_13">
     <!-- $0.74 \pm 0.25$ -->
     <g transform="translate(369.992349 44.03149) scale(0.1 -0.1)">
      <defs>
       <path id="Cmr10-37" d="M 1113 166 
Q 1113 522 1175 862 
Q 1238 1203 1358 1536 
Q 1478 1869 1648 2189 
Q 1819 2509 2022 2791 
L 2606 3603 
L 1875 3603 
Q 738 3603 703 3572 
Q 619 3469 544 2981 
L 359 2981 
L 569 4325 
L 756 4325 
L 756 4306 
Q 756 4191 1147 4156 
Q 1538 4122 1913 4122 
L 3103 4122 
L 3103 3956 
Q 3103 3950 3101 3947 
Q 3100 3944 3097 3938 
L 2216 2700 
Q 1891 2219 1809 1631 
Q 1728 1044 1728 166 
Q 1728 41 1637 -50 
Q 1547 -141 1422 -141 
Q 1294 -141 1203 -50 
Q 1113 41 1113 166 
z
" transform="scale(0.015625)"/>
       <path id="Cmr10-34" d="M 178 1056 
L 178 1281 
L 2156 4231 
Q 2178 4263 2222 4263 
L 2316 4263 
Q 2388 4263 2388 4191 
L 2388 1281 
L 3016 1281 
L 3016 1056 
L 2388 1056 
L 2388 428 
Q 2388 297 2575 261 
Q 2763 225 3009 225 
L 3009 0 
L 1247 0 
L 1247 225 
Q 1494 225 1681 261 
Q 1869 297 1869 428 
L 1869 1056 
L 178 1056 
z
M 391 1281 
L 1906 1281 
L 1906 3547 
L 391 1281 
z
" transform="scale(0.015625)"/>
       <path id="Cmr10-35" d="M 556 728 
Q 622 541 758 387 
Q 894 234 1080 148 
Q 1266 63 1466 63 
Q 1928 63 2103 422 
Q 2278 781 2278 1294 
Q 2278 1516 2270 1667 
Q 2263 1819 2228 1959 
Q 2169 2184 2020 2353 
Q 1872 2522 1656 2522 
Q 1441 2522 1286 2456 
Q 1131 2391 1034 2303 
Q 938 2216 863 2119 
Q 788 2022 769 2016 
L 697 2016 
Q 681 2016 657 2036 
Q 634 2056 634 2075 
L 634 4213 
Q 634 4228 654 4245 
Q 675 4263 697 4263 
L 716 4263 
Q 1147 4056 1631 4056 
Q 2106 4056 2547 4263 
L 2566 4263 
Q 2588 4263 2606 4247 
Q 2625 4231 2625 4213 
L 2625 4153 
Q 2625 4122 2613 4122 
Q 2394 3831 2064 3668 
Q 1734 3506 1381 3506 
Q 1125 3506 856 3578 
L 856 2369 
Q 1069 2541 1236 2614 
Q 1403 2688 1663 2688 
Q 2016 2688 2295 2484 
Q 2575 2281 2725 1954 
Q 2875 1628 2875 1288 
Q 2875 903 2686 575 
Q 2497 247 2172 53 
Q 1847 -141 1466 -141 
Q 1150 -141 886 21 
Q 622 184 470 459 
Q 319 734 319 1044 
Q 319 1188 412 1278 
Q 506 1369 647 1369 
Q 788 1369 883 1276 
Q 978 1184 978 1044 
Q 978 906 883 811 
Q 788 716 647 716 
Q 625 716 597 720 
Q 569 725 556 728 
z
" transform="scale(0.015625)"/>
      </defs>
      <use xlink:href="#Cmr10-30" transform="translate(0 0.421875)"/>
      <use xlink:href="#Cmmi10-3a" transform="translate(50 0.421875)"/>
      <use xlink:href="#Cmr10-37" transform="translate(77.685547 0.421875)"/>
      <use xlink:href="#Cmr10-34" transform="translate(127.685547 0.421875)"/>
      <use xlink:href="#Cmsy10-a7" transform="translate(195.244141 0.421875)"/>
      <use xlink:href="#Cmr10-30" transform="translate(290.488281 0.421875)"/>
      <use xlink:href="#Cmmi10-3a" transform="translate(340.488281 0.421875)"/>
      <use xlink:href="#Cmr10-32" transform="translate(368.173828 0.421875)"/>
      <use xlink:href="#Cmr10-35" transform="translate(418.173828 0.421875)"/>
     </g>
    </g>
    <g id="LineCollection_15">
     <path d="M 346.992349 55.06274 
L 356.992349 55.06274 
" style="fill: none; stroke: #ababab; stroke-width: 1.5"/>
    </g>
    <g id="LineCollection_16">
     <path d="M 351.992349 60.06274 
L 351.992349 50.06274 
" style="fill: none; stroke: #ababab; stroke-width: 1.5"/>
    </g>
    <g id="line2d_65"/>
    <g id="line2d_66">
     <g>
      <use xlink:href="#mea89b6c699" x="351.992349" y="55.06274" style="fill: #ababab; stroke: #ababab"/>
     </g>
    </g>
    <g id="text_14">
     <!-- $1.1 \pm 0.5$ -->
     <g transform="translate(369.992349 58.56274) scale(0.1 -0.1)">
      <use xlink:href="#Cmr10-31" transform="translate(0 0.390625)"/>
      <use xlink:href="#Cmmi10-3a" transform="translate(50 0.390625)"/>
      <use xlink:href="#Cmr10-31" transform="translate(77.685547 0.390625)"/>
      <use xlink:href="#Cmsy10-a7" transform="translate(145.244141 0.390625)"/>
      <use xlink:href="#Cmr10-30" transform="translate(240.488281 0.390625)"/>
      <use xlink:href="#Cmmi10-3a" transform="translate(290.488281 0.390625)"/>
      <use xlink:href="#Cmr10-35" transform="translate(318.173828 0.390625)"/>
     </g>
    </g>
    <g id="LineCollection_17">
     <path d="M 346.992349 69.59399 
L 356.992349 69.59399 
" style="fill: none; stroke: #ffbc79; stroke-width: 1.5"/>
    </g>
    <g id="LineCollection_18">
     <path d="M 351.992349 74.59399 
L 351.992349 64.59399 
" style="fill: none; stroke: #ffbc79; stroke-width: 1.5"/>
    </g>
    <g id="line2d_67"/>
    <g id="line2d_68">
     <g>
      <use xlink:href="#m13063dd06d" x="351.992349" y="69.59399" style="fill: #ffbc79; stroke: #ffbc79"/>
     </g>
    </g>
    <g id="text_15">
     <!-- $1.9 \pm 0.8$ -->
     <g transform="translate(369.992349 73.09399) scale(0.1 -0.1)">
      <defs>
       <path id="Cmr10-39" d="M 722 269 
Q 897 63 1331 63 
Q 1575 63 1786 228 
Q 1997 394 2113 634 
Q 2247 906 2284 1214 
Q 2322 1522 2322 1978 
Q 2213 1719 2008 1553 
Q 1803 1388 1538 1388 
Q 1166 1388 873 1589 
Q 581 1791 425 2120 
Q 269 2450 269 2822 
Q 269 3206 444 3539 
Q 619 3872 928 4067 
Q 1238 4263 1631 4263 
Q 2019 4263 2280 4052 
Q 2541 3841 2678 3508 
Q 2816 3175 2870 2803 
Q 2925 2431 2925 2069 
Q 2925 1575 2744 1061 
Q 2563 547 2202 203 
Q 1841 -141 1331 -141 
Q 953 -141 690 37 
Q 428 216 428 575 
Q 428 706 517 795 
Q 606 884 738 884 
Q 866 884 955 795 
Q 1044 706 1044 575 
Q 1044 450 953 359 
Q 863 269 738 269 
L 722 269 
z
M 1563 1556 
Q 1825 1556 1992 1732 
Q 2159 1909 2234 2171 
Q 2309 2434 2309 2694 
L 2309 2816 
L 2309 2841 
Q 2309 3322 2168 3700 
Q 2028 4078 1631 4078 
Q 1378 4078 1220 3967 
Q 1063 3856 988 3672 
Q 913 3488 892 3278 
Q 872 3069 872 2822 
Q 872 2459 906 2203 
Q 941 1947 1094 1751 
Q 1247 1556 1563 1556 
z
" transform="scale(0.015625)"/>
       <path id="Cmr10-38" d="M 269 972 
Q 269 1356 522 1651 
Q 775 1947 1172 2144 
L 934 2297 
Q 716 2441 578 2680 
Q 441 2919 441 3181 
Q 441 3488 602 3734 
Q 763 3981 1030 4122 
Q 1297 4263 1600 4263 
Q 1884 4263 2148 4147 
Q 2413 4031 2583 3815 
Q 2753 3600 2753 3303 
Q 2753 3088 2651 2903 
Q 2550 2719 2373 2572 
Q 2197 2425 1997 2322 
L 2363 2088 
Q 2616 1922 2770 1653 
Q 2925 1384 2925 1088 
Q 2925 741 2739 456 
Q 2553 172 2247 15 
Q 1941 -141 1600 -141 
Q 1269 -141 961 -6 
Q 653 128 461 383 
Q 269 638 269 972 
z
M 616 972 
Q 616 719 755 509 
Q 894 300 1122 181 
Q 1350 63 1600 63 
Q 1972 63 2275 280 
Q 2578 497 2578 856 
Q 2578 978 2529 1098 
Q 2481 1219 2395 1317 
Q 2309 1416 2203 1478 
L 1344 2034 
Q 1144 1928 976 1765 
Q 809 1603 712 1400 
Q 616 1197 616 972 
z
M 1056 2925 
L 1831 2425 
Q 2100 2581 2272 2803 
Q 2444 3025 2444 3303 
Q 2444 3519 2323 3698 
Q 2203 3878 2009 3978 
Q 1816 4078 1594 4078 
Q 1400 4078 1203 4003 
Q 1006 3928 878 3779 
Q 750 3631 750 3431 
Q 750 3131 1056 2925 
z
" transform="scale(0.015625)"/>
      </defs>
      <use xlink:href="#Cmr10-31" transform="translate(0 0.390625)"/>
      <use xlink:href="#Cmmi10-3a" transform="translate(50 0.390625)"/>
      <use xlink:href="#Cmr10-39" transform="translate(77.685547 0.390625)"/>
      <use xlink:href="#Cmsy10-a7" transform="translate(145.244141 0.390625)"/>
      <use xlink:href="#Cmr10-30" transform="translate(240.488281 0.390625)"/>
      <use xlink:href="#Cmmi10-3a" transform="translate(290.488281 0.390625)"/>
      <use xlink:href="#Cmr10-38" transform="translate(318.173828 0.390625)"/>
     </g>
    </g>
    <g id="LineCollection_19">
     <path d="M 346.992349 84.12524 
L 356.992349 84.12524 
" style="fill: none; stroke: #9467bd; stroke-width: 1.5"/>
    </g>
    <g id="LineCollection_20">
     <path d="M 351.992349 89.12524 
L 351.992349 79.12524 
" style="fill: none; stroke: #9467bd; stroke-width: 1.5"/>
    </g>
    <g id="line2d_69"/>
    <g id="line2d_70">
     <g>
      <use xlink:href="#m7e6ae7f1ed" x="351.992349" y="84.12524" style="fill: #9467bd; stroke: #9467bd"/>
     </g>
    </g>
    <g id="text_16">
     <!-- $3.2 \pm 1.5$ -->
     <g transform="translate(369.992349 87.62524) scale(0.1 -0.1)">
      <use xlink:href="#Cmr10-33" transform="translate(0 0.390625)"/>
      <use xlink:href="#Cmmi10-3a" transform="translate(50 0.390625)"/>
      <use xlink:href="#Cmr10-32" transform="translate(77.685547 0.390625)"/>
      <use xlink:href="#Cmsy10-a7" transform="translate(145.244141 0.390625)"/>
      <use xlink:href="#Cmr10-31" transform="translate(240.488281 0.390625)"/>
      <use xlink:href="#Cmmi10-3a" transform="translate(290.488281 0.390625)"/>
      <use xlink:href="#Cmr10-35" transform="translate(318.173828 0.390625)"/>
     </g>
    </g>
   </g>
   <g id="legend_2">
    <g id="patch_11">
     <path d="M 339.992349 229.894685 
L 416.192349 229.894685 
Q 418.192349 229.894685 418.192349 227.894685 
L 418.192349 185.300935 
Q 418.192349 183.300935 416.192349 183.300935 
L 339.992349 183.300935 
Q 337.992349 183.300935 337.992349 185.300935 
L 337.992349 227.894685 
Q 337.992349 229.894685 339.992349 229.894685 
z
" style="fill: #ffffff; opacity: 0.2; stroke: #000000; stroke-linejoin: miter"/>
    </g>
    <g id="line2d_71">
     <path d="M 341.992349 191.300935 
L 351.992349 191.300935 
L 361.992349 191.300935 
" style="fill: none; stroke: #000000; stroke-linecap: square"/>
    </g>
    <g id="text_17">
     <!-- $t_{\rm end} = 30t_{0}$ -->
     <g transform="translate(369.992349 194.800935) scale(0.1 -0.1)">
      <use xlink:href="#Cmmi10-74" transform="translate(0 0.390625)"/>
      <use xlink:href="#Cmr10-65" transform="translate(36.083984 -16.615625) scale(0.7)"/>
      <use xlink:href="#Cmr10-6e" transform="translate(67.15332 -16.615625) scale(0.7)"/>
      <use xlink:href="#Cmr10-64" transform="translate(106.015625 -16.615625) scale(0.7)"/>
      <use xlink:href="#Cmr10-3d" transform="translate(168.813867 0.390625)"/>
      <use xlink:href="#Cmr10-33" transform="translate(264.058008 0.390625)"/>
      <use xlink:href="#Cmr10-30" transform="translate(314.058008 0.390625)"/>
      <use xlink:href="#Cmmi10-74" transform="translate(364.058008 0.390625)"/>
      <use xlink:href="#Cmr10-30" transform="translate(400.141992 -16.615625) scale(0.7)"/>
     </g>
    </g>
    <g id="line2d_72">
     <path d="M 341.992349 205.832185 
L 351.992349 205.832185 
L 361.992349 205.832185 
" style="fill: none; stroke-dasharray: 1,1.65; stroke-dashoffset: 0; stroke: #000000"/>
    </g>
    <g id="text_18">
     <!-- $\mathcal{S} = 0.07$ -->
     <g transform="translate(369.992349 209.332185) scale(0.1 -0.1)">
      <use xlink:href="#Cmsy10-53" transform="translate(0 0.484375)"/>
      <use xlink:href="#Cmr10-3d" transform="translate(78.056641 0.484375)"/>
      <use xlink:href="#Cmr10-30" transform="translate(173.300781 0.484375)"/>
      <use xlink:href="#Cmmi10-3a" transform="translate(223.300781 0.484375)"/>
      <use xlink:href="#Cmr10-30" transform="translate(250.986328 0.484375)"/>
      <use xlink:href="#Cmr10-37" transform="translate(300.986328 0.484375)"/>
     </g>
    </g>
    <g id="line2d_73">
     <path d="M 341.992349 220.363435 
L 351.992349 220.363435 
L 361.992349 220.363435 
" style="fill: none; stroke-dasharray: 3.7,1.6; stroke-dashoffset: 0; stroke: #000000"/>
    </g>
    <g id="text_19">
     <!-- $t_{\rm end} \propto t_{\rm s}$ -->
     <g transform="translate(369.992349 223.863435) scale(0.1 -0.1)">
      <defs>
       <path id="Cmsy10-2f" d="M 1466 -72 
Q 947 -72 653 379 
Q 359 831 359 1381 
Q 359 1725 487 2059 
Q 616 2394 872 2611 
Q 1128 2828 1484 2828 
Q 1891 2828 2234 2587 
Q 2578 2347 2822 1966 
L 2963 1753 
Q 3200 2222 3562 2525 
Q 3925 2828 4397 2828 
Q 4519 2828 4616 2803 
L 4622 2606 
Q 4534 2625 4453 2625 
Q 4144 2625 3889 2465 
Q 3634 2306 3440 2051 
Q 3247 1797 3122 1503 
L 3419 1050 
Q 3563 822 3709 644 
Q 3856 466 4048 342 
Q 4241 219 4469 219 
Q 4516 219 4622 231 
L 4622 -38 
Q 4469 -72 4378 -72 
Q 3978 -72 3628 173 
Q 3278 419 3041 794 
L 2900 1006 
Q 2747 706 2539 464 
Q 2331 222 2057 75 
Q 1784 -72 1466 -72 
z
M 1409 134 
Q 1859 134 2196 457 
Q 2534 781 2741 1253 
L 2444 1709 
Q 2219 2075 1967 2308 
Q 1716 2541 1394 2541 
Q 1113 2541 917 2364 
Q 722 2188 623 1917 
Q 525 1647 525 1375 
Q 525 1097 620 808 
Q 716 519 916 326 
Q 1116 134 1409 134 
z
" transform="scale(0.015625)"/>
      </defs>
      <use xlink:href="#Cmmi10-74" transform="translate(0 0.40625)"/>
      <use xlink:href="#Cmr10-65" transform="translate(36.083984 -16.6) scale(0.7)"/>
      <use xlink:href="#Cmr10-6e" transform="translate(67.15332 -16.6) scale(0.7)"/>
      <use xlink:href="#Cmr10-64" transform="translate(106.015625 -16.6) scale(0.7)"/>
      <use xlink:href="#Cmsy10-2f" transform="translate(168.813867 0.40625)"/>
      <use xlink:href="#Cmmi10-74" transform="translate(264.058008 0.40625)"/>
      <use xlink:href="#Cmr10-73" transform="translate(300.141992 -16.6) scale(0.7)"/>
     </g>
    </g>
   </g>
  </g>
 </g>
 <defs>
  <clipPath id="p8f97ff4a99">
   <rect x="40.10024" y="3.00024" width="283.706771" height="226.894445"/>
  </clipPath>
 </defs>
</svg>
