<?xml version="1.0" encoding="utf-8" standalone="no"?>
<!DOCTYPE svg PUBLIC "-//W3C//DTD SVG 1.1//EN"
  "http://www.w3.org/Graphics/SVG/1.1/DTD/svg11.dtd">
<svg xmlns:xlink="http://www.w3.org/1999/xlink" width="421.080404pt" height="259.926175pt" viewBox="0 0 421.080404 259.926175" xmlns="http://www.w3.org/2000/svg" version="1.1">
 <metadata>
  <rdf:RDF xmlns:dc="http://purl.org/dc/elements/1.1/" xmlns:cc="http://creativecommons.org/ns#" xmlns:rdf="http://www.w3.org/1999/02/22-rdf-syntax-ns#">
   <cc:Work>
    <dc:type rdf:resource="http://purl.org/dc/dcmitype/StillImage"/>
    <dc:date>2023-04-14T11:09:58.563313</dc:date>
    <dc:format>image/svg+xml</dc:format>
    <dc:creator>
     <cc:Agent>
      <dc:title>Matplotlib v3.7.1, https://matplotlib.org/</dc:title>
     </cc:Agent>
    </dc:creator>
   </cc:Work>
  </rdf:RDF>
 </metadata>
 <defs>
  <style type="text/css">*{stroke-linejoin: round; stroke-linecap: butt}</style>
 </defs>
 <g id="figure_1">
  <g id="patch_1">
   <path d="M 0 259.926175 
L 421.080404 259.926175 
L 421.080404 0 
L 0 0 
L 0 259.926175 
z
" style="fill: none; opacity: 0"/>
  </g>
  <g id="axes_1">
   <g id="patch_2">
    <path d="M 39.998678 229.894685 
L 412.459851 229.894685 
L 412.459851 3.00024 
L 39.998678 3.00024 
z
" style="fill: #ffffff; opacity: 0.2"/>
   </g>
   <g id="PathCollection_1">
    <defs>
     <path id="C0_0_5c78885040" d="M -0 4.242641 
L 2.545584 -0 
L 0 -4.242641 
L -2.545584 -0 
z
"/>
    </defs>
    <g clip-path="url(#p583a45f1f1)">
     <use xlink:href="#C0_0_5c78885040" x="45.451145" y="57.59665" style="fill: #ff7f0e"/>
    </g>
    <g clip-path="url(#p583a45f1f1)">
     <use xlink:href="#C0_0_5c78885040" x="91.365489" y="49.618317" style="fill: #ff7f0e"/>
    </g>
    <g clip-path="url(#p583a45f1f1)">
     <use xlink:href="#C0_0_5c78885040" x="159.899251" y="38.584453" style="fill: #ff7f0e"/>
    </g>
    <g clip-path="url(#p583a45f1f1)">
     <use xlink:href="#C0_0_5c78885040" x="205.820242" y="31.794382" style="fill: #ff7f0e"/>
    </g>
    <g clip-path="url(#p583a45f1f1)">
     <use xlink:href="#C0_0_5c78885040" x="274.381537" y="25.683319" style="fill: #ff7f0e"/>
    </g>
    <g clip-path="url(#p583a45f1f1)">
     <use xlink:href="#C0_0_5c78885040" x="504.066716" y="6.076991" style="fill: #ff7f0e"/>
    </g>
    <g clip-path="url(#p583a45f1f1)">
     <use xlink:href="#C0_0_5c78885040" x="733.110563" y="-5.551005" style="fill: #ff7f0e"/>
    </g>
    <g clip-path="url(#p583a45f1f1)">
     <use xlink:href="#C0_0_5c78885040" x="846.965283" y="-8.012405" style="fill: #ff7f0e"/>
    </g>
    <g clip-path="url(#p583a45f1f1)">
     <use xlink:href="#C0_0_5c78885040" x="962.198559" y="-9.285544" style="fill: #ff7f0e"/>
    </g>
    <g clip-path="url(#p583a45f1f1)">
     <use xlink:href="#C0_0_5c78885040" x="1191.317885" y="-7.418274" style="fill: #ff7f0e"/>
    </g>
    <g clip-path="url(#p583a45f1f1)">
     <use xlink:href="#C0_0_5c78885040" x="1420.460947" y="-1.307211" style="fill: #ff7f0e"/>
    </g>
    <g clip-path="url(#p583a45f1f1)">
     <use xlink:href="#C0_0_5c78885040" x="1649.635339" y="10.40566" style="fill: #ff7f0e"/>
    </g>
   </g>
   <g id="matplotlib.axis_1">
    <g id="xtick_1">
     <g id="line2d_1">
      <defs>
       <path id="m1b08b3e46c" d="M 0 0 
L 0 -2.5 
" style="stroke: #000000; stroke-width: 0.8"/>
      </defs>
      <g>
       <use xlink:href="#m1b08b3e46c" x="45.728849" y="229.894685" style="stroke: #000000; stroke-width: 0.8"/>
      </g>
     </g>
     <g id="line2d_2">
      <defs>
       <path id="ma717813084" d="M 0 0 
L 0 2.5 
" style="stroke: #000000; stroke-width: 0.8"/>
      </defs>
      <g>
       <use xlink:href="#ma717813084" x="45.728849" y="3.00024" style="stroke: #000000; stroke-width: 0.8"/>
      </g>
     </g>
     <g id="text_1">
      <!-- 0 -->
      <g transform="translate(42.918693 240.894685) scale(0.1 -0.1)">
       <defs>
        <path id="Roboto-Regular-30" d="M 3234 1944 
Q 3234 825 2848 381 
Q 2463 -63 1800 -63 
Q 1156 -63 764 368 
Q 372 800 359 1872 
L 359 2638 
Q 359 3753 750 4183 
Q 1141 4613 1794 4613 
Q 2447 4613 2834 4195 
Q 3222 3778 3234 2709 
L 3234 1944 
z
M 2653 2734 
Q 2653 3503 2434 3822 
Q 2216 4141 1794 4141 
Q 1388 4141 1167 3831 
Q 947 3522 941 2778 
L 941 1850 
Q 941 1088 1164 750 
Q 1388 413 1800 413 
Q 2222 413 2436 745 
Q 2650 1078 2653 1825 
L 2653 2734 
z
" transform="scale(0.015625)"/>
       </defs>
       <use xlink:href="#Roboto-Regular-30"/>
      </g>
     </g>
    </g>
    <g id="xtick_2">
     <g id="line2d_3">
      <g>
       <use xlink:href="#m1b08b3e46c" x="91.570225" y="229.894685" style="stroke: #000000; stroke-width: 0.8"/>
      </g>
     </g>
     <g id="line2d_4">
      <g>
       <use xlink:href="#ma717813084" x="91.570225" y="3.00024" style="stroke: #000000; stroke-width: 0.8"/>
      </g>
     </g>
     <g id="text_2">
      <!-- 2 -->
      <g transform="translate(88.760068 240.894685) scale(0.1 -0.1)">
       <defs>
        <path id="Roboto-Regular-32" d="M 3359 475 
L 3359 0 
L 381 0 
L 381 416 
L 1925 2134 
Q 2306 2566 2439 2819 
Q 2572 3072 2572 3328 
Q 2572 3663 2364 3900 
Q 2156 4138 1778 4138 
Q 1322 4138 1097 3878 
Q 872 3619 872 3213 
L 294 3213 
Q 294 3788 672 4200 
Q 1050 4613 1778 4613 
Q 2422 4613 2786 4278 
Q 3150 3944 3150 3397 
Q 3150 2997 2903 2592 
Q 2656 2188 2297 1797 
L 1078 475 
L 3359 475 
z
" transform="scale(0.015625)"/>
       </defs>
       <use xlink:href="#Roboto-Regular-32"/>
      </g>
     </g>
    </g>
    <g id="xtick_3">
     <g id="line2d_5">
      <g>
       <use xlink:href="#m1b08b3e46c" x="137.4116" y="229.894685" style="stroke: #000000; stroke-width: 0.8"/>
      </g>
     </g>
     <g id="line2d_6">
      <g>
       <use xlink:href="#ma717813084" x="137.4116" y="3.00024" style="stroke: #000000; stroke-width: 0.8"/>
      </g>
     </g>
     <g id="text_3">
      <!-- 4 -->
      <g transform="translate(134.601444 240.894685) scale(0.1 -0.1)">
       <defs>
        <path id="Roboto-Regular-34" d="M 166 1397 
L 2203 4550 
L 2819 4550 
L 2819 1531 
L 3453 1531 
L 3453 1056 
L 2819 1056 
L 2819 0 
L 2241 0 
L 2241 1056 
L 166 1056 
L 166 1397 
z
M 822 1531 
L 2241 1531 
L 2241 3766 
L 2169 3638 
L 822 1531 
z
" transform="scale(0.015625)"/>
       </defs>
       <use xlink:href="#Roboto-Regular-34"/>
      </g>
     </g>
    </g>
    <g id="xtick_4">
     <g id="line2d_7">
      <g>
       <use xlink:href="#m1b08b3e46c" x="183.252975" y="229.894685" style="stroke: #000000; stroke-width: 0.8"/>
      </g>
     </g>
     <g id="line2d_8">
      <g>
       <use xlink:href="#ma717813084" x="183.252975" y="3.00024" style="stroke: #000000; stroke-width: 0.8"/>
      </g>
     </g>
     <g id="text_4">
      <!-- 6 -->
      <g transform="translate(180.442819 240.894685) scale(0.1 -0.1)">
       <defs>
        <path id="Roboto-Regular-36" d="M 3291 1484 
Q 3291 838 2930 387 
Q 2569 -63 1878 -63 
Q 1388 -63 1063 198 
Q 738 459 577 861 
Q 416 1263 416 1684 
L 416 1956 
Q 416 2597 595 3194 
Q 775 3791 1247 4173 
Q 1719 4556 2597 4556 
L 2647 4556 
L 2647 4066 
Q 2041 4066 1705 3853 
Q 1369 3641 1205 3302 
Q 1041 2963 1006 2575 
Q 1369 2984 1984 2984 
Q 2438 2984 2727 2765 
Q 3016 2547 3153 2201 
Q 3291 1856 3291 1484 
z
M 997 1666 
Q 997 1059 1267 737 
Q 1538 416 1878 416 
Q 2278 416 2498 708 
Q 2719 1000 2719 1456 
Q 2719 1863 2516 2184 
Q 2313 2506 1891 2506 
Q 1588 2506 1341 2325 
Q 1094 2144 997 1884 
L 997 1666 
z
" transform="scale(0.015625)"/>
       </defs>
       <use xlink:href="#Roboto-Regular-36"/>
      </g>
     </g>
    </g>
    <g id="xtick_5">
     <g id="line2d_9">
      <g>
       <use xlink:href="#m1b08b3e46c" x="229.09435" y="229.894685" style="stroke: #000000; stroke-width: 0.8"/>
      </g>
     </g>
     <g id="line2d_10">
      <g>
       <use xlink:href="#ma717813084" x="229.09435" y="3.00024" style="stroke: #000000; stroke-width: 0.8"/>
      </g>
     </g>
     <g id="text_5">
      <!-- 8 -->
      <g transform="translate(226.284194 240.894685) scale(0.1 -0.1)">
       <defs>
        <path id="Roboto-Regular-38" d="M 3244 1231 
Q 3244 606 2826 271 
Q 2409 -63 1796 -63 
Q 1184 -63 767 271 
Q 350 606 350 1231 
Q 350 1613 554 1905 
Q 759 2197 1109 2347 
Q 806 2494 629 2762 
Q 453 3031 453 3366 
Q 453 3963 833 4288 
Q 1213 4613 1794 4613 
Q 2378 4613 2758 4288 
Q 3138 3963 3138 3366 
Q 3138 3028 2956 2761 
Q 2775 2494 2472 2347 
Q 2825 2197 3034 1903 
Q 3244 1609 3244 1231 
z
M 2559 3356 
Q 2559 3697 2346 3917 
Q 2134 4138 1793 4138 
Q 1453 4138 1243 3927 
Q 1034 3716 1034 3356 
Q 1034 3003 1243 2790 
Q 1453 2578 1797 2578 
Q 2138 2578 2348 2790 
Q 2559 3003 2559 3356 
z
M 2663 1244 
Q 2663 1625 2420 1865 
Q 2178 2106 1791 2106 
Q 1394 2106 1161 1865 
Q 928 1625 928 1244 
Q 928 850 1161 631 
Q 1394 413 1797 413 
Q 2200 413 2431 631 
Q 2663 850 2663 1244 
z
" transform="scale(0.015625)"/>
       </defs>
       <use xlink:href="#Roboto-Regular-38"/>
      </g>
     </g>
    </g>
    <g id="xtick_6">
     <g id="line2d_11">
      <g>
       <use xlink:href="#m1b08b3e46c" x="274.935726" y="229.894685" style="stroke: #000000; stroke-width: 0.8"/>
      </g>
     </g>
     <g id="line2d_12">
      <g>
       <use xlink:href="#ma717813084" x="274.935726" y="3.00024" style="stroke: #000000; stroke-width: 0.8"/>
      </g>
     </g>
     <g id="text_6">
      <!-- 10 -->
      <g transform="translate(269.315413 240.894685) scale(0.1 -0.1)">
       <defs>
        <path id="Roboto-Regular-31" d="M 2278 4575 
L 2278 0 
L 1700 0 
L 1700 3853 
L 534 3428 
L 534 3950 
L 2188 4575 
L 2278 4575 
z
" transform="scale(0.015625)"/>
       </defs>
       <use xlink:href="#Roboto-Regular-31"/>
       <use xlink:href="#Roboto-Regular-30" x="56.201172"/>
      </g>
     </g>
    </g>
    <g id="xtick_7">
     <g id="line2d_13">
      <g>
       <use xlink:href="#m1b08b3e46c" x="320.777101" y="229.894685" style="stroke: #000000; stroke-width: 0.8"/>
      </g>
     </g>
     <g id="line2d_14">
      <g>
       <use xlink:href="#ma717813084" x="320.777101" y="3.00024" style="stroke: #000000; stroke-width: 0.8"/>
      </g>
     </g>
     <g id="text_7">
      <!-- 12 -->
      <g transform="translate(315.156788 240.894685) scale(0.1 -0.1)">
       <use xlink:href="#Roboto-Regular-31"/>
       <use xlink:href="#Roboto-Regular-32" x="56.201172"/>
      </g>
     </g>
    </g>
    <g id="xtick_8">
     <g id="line2d_15">
      <g>
       <use xlink:href="#m1b08b3e46c" x="366.618476" y="229.894685" style="stroke: #000000; stroke-width: 0.8"/>
      </g>
     </g>
     <g id="line2d_16">
      <g>
       <use xlink:href="#ma717813084" x="366.618476" y="3.00024" style="stroke: #000000; stroke-width: 0.8"/>
      </g>
     </g>
     <g id="text_8">
      <!-- 14 -->
      <g transform="translate(360.998164 240.894685) scale(0.1 -0.1)">
       <use xlink:href="#Roboto-Regular-31"/>
       <use xlink:href="#Roboto-Regular-34" x="56.201172"/>
      </g>
     </g>
    </g>
    <g id="xtick_9">
     <g id="line2d_17">
      <g>
       <use xlink:href="#m1b08b3e46c" x="412.459851" y="229.894685" style="stroke: #000000; stroke-width: 0.8"/>
      </g>
     </g>
     <g id="line2d_18">
      <g>
       <use xlink:href="#ma717813084" x="412.459851" y="3.00024" style="stroke: #000000; stroke-width: 0.8"/>
      </g>
     </g>
     <g id="text_9">
      <!-- 16 -->
      <g transform="translate(406.839539 240.894685) scale(0.1 -0.1)">
       <use xlink:href="#Roboto-Regular-31"/>
       <use xlink:href="#Roboto-Regular-36" x="56.201172"/>
      </g>
     </g>
    </g>
    <g id="text_10">
     <!-- Bottom slope, $\theta~(^\circ)$ -->
     <g transform="translate(182.929264 254.425935) scale(0.1 -0.1)">
      <defs>
       <path id="Roboto-Regular-42" d="M 3625 1313 
Q 3625 675 3214 337 
Q 2803 0 2122 0 
L 528 0 
L 528 4550 
L 2019 4550 
Q 2719 4550 3111 4261 
Q 3503 3972 3503 3338 
Q 3503 3022 3323 2776 
Q 3144 2531 2831 2397 
Q 3216 2291 3420 1994 
Q 3625 1697 3625 1313 
z
M 1131 4056 
L 1131 2613 
L 2038 2613 
Q 2425 2613 2662 2806 
Q 2900 3000 2900 3344 
Q 2900 4041 2056 4056 
L 1131 4056 
z
M 3025 1306 
Q 3025 1688 2817 1908 
Q 2609 2128 2150 2128 
L 1131 2128 
L 1131 491 
L 2122 491 
Q 2550 491 2787 711 
Q 3025 931 3025 1306 
z
" transform="scale(0.015625)"/>
       <path id="Roboto-Regular-6f" d="M 288 1725 
Q 288 2459 700 2951 
Q 1113 3444 1822 3444 
Q 2531 3444 2943 2961 
Q 3356 2478 3366 1756 
L 3366 1653 
Q 3366 919 2952 428 
Q 2538 -63 1828 -63 
Q 1116 -63 702 428 
Q 288 919 288 1653 
L 288 1725 
z
M 866 1653 
Q 866 1150 1105 781 
Q 1344 413 1828 413 
Q 2300 413 2540 777 
Q 2781 1141 2784 1644 
L 2784 1725 
Q 2784 2222 2543 2595 
Q 2303 2969 1822 2969 
Q 1344 2969 1105 2595 
Q 866 2222 866 1725 
L 866 1653 
z
" transform="scale(0.015625)"/>
       <path id="Roboto-Regular-74" d="M 1872 0 
Q 1675 -63 1425 -63 
Q 1103 -63 875 134 
Q 647 331 647 841 
L 647 2938 
L 28 2938 
L 28 3381 
L 647 3381 
L 647 4203 
L 1225 4203 
L 1225 3381 
L 1856 3381 
L 1856 2938 
L 1225 2938 
L 1225 838 
Q 1225 578 1337 506 
Q 1450 434 1597 434 
Q 1706 434 1869 472 
L 1872 0 
z
" transform="scale(0.015625)"/>
       <path id="Roboto-Regular-6d" d="M 1794 2956 
Q 1225 2956 1016 2478 
L 1016 0 
L 434 0 
L 434 3381 
L 984 3381 
L 1000 3013 
Q 1366 3444 2000 3444 
Q 2325 3444 2579 3314 
Q 2834 3184 2969 2900 
Q 3138 3144 3408 3294 
Q 3678 3444 4044 3444 
Q 4588 3444 4883 3153 
Q 5178 2863 5178 2222 
L 5178 0 
L 4597 0 
L 4597 2228 
Q 4597 2653 4401 2804 
Q 4206 2956 3875 2956 
Q 3525 2956 3325 2748 
Q 3125 2541 3094 2244 
L 3094 0 
L 2516 0 
L 2516 2225 
Q 2516 2622 2319 2789 
Q 2122 2956 1794 2956 
z
" transform="scale(0.015625)"/>
       <path id="Roboto-Regular-20" transform="scale(0.015625)"/>
       <path id="Roboto-Regular-73" d="M 2409 897 
Q 2409 1081 2273 1229 
Q 2138 1378 1647 1478 
Q 1081 1594 747 1814 
Q 413 2034 413 2456 
Q 413 2856 755 3150 
Q 1097 3444 1666 3444 
Q 2272 3444 2612 3134 
Q 2953 2825 2953 2388 
L 2375 2388 
Q 2375 2597 2190 2783 
Q 2006 2969 1666 2969 
Q 1306 2969 1150 2812 
Q 994 2656 994 2472 
Q 994 2288 1139 2173 
Q 1284 2059 1756 1953 
Q 2378 1813 2683 1584 
Q 2988 1356 2988 941 
Q 2988 494 2630 215 
Q 2272 -63 1681 -63 
Q 1009 -63 653 281 
Q 297 625 297 1044 
L 878 1044 
Q 897 684 1155 548 
Q 1413 413 1681 413 
Q 2034 413 2221 550 
Q 2409 688 2409 897 
z
" transform="scale(0.015625)"/>
       <path id="Roboto-Regular-6c" d="M 1069 4800 
L 1069 0 
L 488 0 
L 488 4800 
L 1069 4800 
z
" transform="scale(0.015625)"/>
       <path id="Roboto-Regular-70" d="M 1984 -63 
Q 1375 -63 1019 328 
L 1019 -1300 
L 438 -1300 
L 438 3381 
L 969 3381 
L 997 3009 
Q 1353 3444 1975 3444 
Q 2616 3444 2956 2969 
Q 3297 2494 3297 1719 
L 3297 1653 
Q 3297 913 2955 425 
Q 2613 -63 1984 -63 
z
M 1806 2956 
Q 1281 2956 1019 2491 
L 1019 872 
Q 1284 413 1813 413 
Q 2281 413 2498 781 
Q 2716 1150 2716 1653 
L 2716 1719 
Q 2716 2222 2498 2589 
Q 2281 2956 1806 2956 
z
" transform="scale(0.015625)"/>
       <path id="Roboto-Regular-65" d="M 3116 591 
Q 2950 341 2647 139 
Q 2344 -63 1844 -63 
Q 1138 -63 714 396 
Q 291 856 291 1572 
L 291 1703 
Q 291 2256 502 2645 
Q 713 3034 1050 3239 
Q 1388 3444 1769 3444 
Q 2494 3444 2826 2970 
Q 3159 2497 3159 1788 
L 3159 1528 
L 872 1528 
Q 884 1063 1148 736 
Q 1413 409 1875 409 
Q 2181 409 2393 534 
Q 2606 659 2766 869 
L 3116 591 
z
M 1769 2969 
Q 1425 2969 1187 2719 
Q 950 2469 891 2000 
L 2581 2000 
L 2581 2044 
Q 2559 2381 2386 2675 
Q 2213 2969 1769 2969 
z
" transform="scale(0.015625)"/>
       <path id="Roboto-Regular-2c" d="M 966 688 
L 966 222 
Q 966 -63 822 -380 
Q 678 -697 419 -909 
L 91 -681 
Q 391 -263 400 175 
L 400 688 
L 966 688 
z
" transform="scale(0.015625)"/>
       <path id="Cmmi10-b5" d="M 1031 -72 
Q 741 -72 566 140 
Q 391 353 323 653 
Q 256 953 256 1247 
L 256 1253 
Q 256 1572 317 1915 
Q 378 2259 493 2601 
Q 609 2944 744 3213 
Q 838 3400 986 3631 
Q 1134 3863 1317 4064 
Q 1500 4266 1711 4389 
Q 1922 4513 2138 4513 
L 2144 4513 
Q 2375 4513 2529 4384 
Q 2684 4256 2770 4056 
Q 2856 3856 2890 3628 
Q 2925 3400 2925 3194 
Q 2925 2709 2794 2204 
Q 2663 1700 2431 1228 
Q 2344 1050 2189 809 
Q 2034 569 1861 378 
Q 1688 188 1472 58 
Q 1256 -72 1038 -72 
L 1031 -72 
z
M 1044 97 
Q 1256 97 1451 323 
Q 1647 550 1794 873 
Q 1941 1197 2052 1536 
Q 2163 1875 2216 2113 
L 909 2113 
Q 809 1709 753 1417 
Q 697 1125 697 844 
Q 697 97 1044 97 
z
M 959 2338 
L 2272 2338 
Q 2341 2619 2381 2808 
Q 2422 2997 2450 3206 
Q 2478 3416 2478 3597 
Q 2478 4347 2138 4347 
Q 1731 4347 1436 3692 
Q 1141 3038 959 2338 
z
" transform="scale(0.015625)"/>
       <path id="Cmr10-28" d="M 1984 -1588 
Q 1628 -1306 1370 -942 
Q 1113 -578 948 -165 
Q 784 247 703 697 
Q 622 1147 622 1600 
Q 622 2059 703 2509 
Q 784 2959 951 3375 
Q 1119 3791 1378 4153 
Q 1638 4516 1984 4788 
Q 1984 4800 2016 4800 
L 2075 4800 
Q 2094 4800 2109 4783 
Q 2125 4766 2125 4744 
Q 2125 4716 2113 4703 
Q 1800 4397 1592 4047 
Q 1384 3697 1257 3301 
Q 1131 2906 1075 2482 
Q 1019 2059 1019 1600 
Q 1019 -434 2106 -1491 
Q 2125 -1509 2125 -1544 
Q 2125 -1559 2108 -1579 
Q 2091 -1600 2075 -1600 
L 2016 -1600 
Q 1984 -1600 1984 -1588 
z
" transform="scale(0.015625)"/>
       <path id="Cmsy10-b1" d="M 1600 359 
Q 1269 359 983 526 
Q 697 694 528 984 
Q 359 1275 359 1600 
Q 359 1925 528 2215 
Q 697 2506 983 2673 
Q 1269 2841 1600 2841 
Q 1931 2841 2215 2672 
Q 2500 2503 2667 2214 
Q 2834 1925 2834 1600 
Q 2834 1275 2667 986 
Q 2500 697 2215 528 
Q 1931 359 1600 359 
z
M 1600 616 
Q 2000 616 2289 908 
Q 2578 1200 2578 1600 
Q 2578 1856 2445 2086 
Q 2313 2316 2088 2450 
Q 1863 2584 1600 2584 
Q 1403 2584 1225 2507 
Q 1047 2431 906 2290 
Q 766 2150 691 1973 
Q 616 1797 616 1600 
Q 616 1200 905 908 
Q 1194 616 1600 616 
z
" transform="scale(0.015625)"/>
       <path id="Cmr10-29" d="M 416 -1600 
Q 359 -1600 359 -1544 
Q 359 -1516 372 -1503 
Q 1466 -434 1466 1600 
Q 1466 3634 384 4691 
Q 359 4706 359 4744 
Q 359 4766 376 4783 
Q 394 4800 416 4800 
L 475 4800 
Q 494 4800 506 4788 
Q 966 4425 1272 3906 
Q 1578 3388 1720 2800 
Q 1863 2213 1863 1600 
Q 1863 1147 1786 708 
Q 1709 269 1542 -157 
Q 1375 -584 1119 -945 
Q 863 -1306 506 -1588 
Q 494 -1600 475 -1600 
L 416 -1600 
z
" transform="scale(0.015625)"/>
      </defs>
      <use xlink:href="#Roboto-Regular-42"/>
      <use xlink:href="#Roboto-Regular-6f" transform="translate(62.304688 0)"/>
      <use xlink:href="#Roboto-Regular-74" transform="translate(119.335938 0)"/>
      <use xlink:href="#Roboto-Regular-74" transform="translate(152.050781 0)"/>
      <use xlink:href="#Roboto-Regular-6f" transform="translate(184.765625 0)"/>
      <use xlink:href="#Roboto-Regular-6d" transform="translate(241.796875 0)"/>
      <use xlink:href="#Roboto-Regular-20" transform="translate(329.492188 0)"/>
      <use xlink:href="#Roboto-Regular-73" transform="translate(354.296875 0)"/>
      <use xlink:href="#Roboto-Regular-6c" transform="translate(405.908203 0)"/>
      <use xlink:href="#Roboto-Regular-6f" transform="translate(430.224609 0)"/>
      <use xlink:href="#Roboto-Regular-70" transform="translate(487.255859 0)"/>
      <use xlink:href="#Roboto-Regular-65" transform="translate(543.408203 0)"/>
      <use xlink:href="#Roboto-Regular-2c" transform="translate(596.435547 0)"/>
      <use xlink:href="#Roboto-Regular-20" transform="translate(616.113281 0)"/>
      <use xlink:href="#Cmmi10-b5" transform="translate(640.917969 0)"/>
      <use xlink:href="#Cmr10-28" transform="translate(717.105827 0)"/>
      <use xlink:href="#Cmsy10-b1" transform="translate(772.679343 38.264063) scale(0.7)"/>
      <use xlink:href="#Cmr10-29" transform="translate(826.347702 0)"/>
     </g>
    </g>
   </g>
   <g id="matplotlib.axis_2">
    <g id="ytick_1">
     <g id="line2d_19">
      <defs>
       <path id="m92a2b510a0" d="M 0 0 
L 2.5 0 
" style="stroke: #000000; stroke-width: 0.8"/>
      </defs>
      <g>
       <use xlink:href="#m92a2b510a0" x="39.998678" y="229.894685" style="stroke: #000000; stroke-width: 0.8"/>
      </g>
     </g>
     <g id="line2d_20">
      <defs>
       <path id="mefa5caaa33" d="M 0 0 
L -2.5 0 
" style="stroke: #000000; stroke-width: 0.8"/>
      </defs>
      <g>
       <use xlink:href="#mefa5caaa33" x="412.459851" y="229.894685" style="stroke: #000000; stroke-width: 0.8"/>
      </g>
     </g>
     <g id="text_11">
      <!-- 0.20 -->
      <g transform="translate(17.00024 233.644685) scale(0.1 -0.1)">
       <defs>
        <path id="Roboto-Regular-2e" d="M 450 306 
Q 450 453 542 554 
Q 634 656 809 656 
Q 984 656 1076 554 
Q 1169 453 1169 306 
Q 1169 163 1076 62 
Q 984 -38 809 -38 
Q 634 -38 542 62 
Q 450 163 450 306 
z
" transform="scale(0.015625)"/>
       </defs>
       <use xlink:href="#Roboto-Regular-30"/>
       <use xlink:href="#Roboto-Regular-2e" x="56.201172"/>
       <use xlink:href="#Roboto-Regular-32" x="82.568359"/>
       <use xlink:href="#Roboto-Regular-30" x="138.769531"/>
      </g>
     </g>
    </g>
    <g id="ytick_2">
     <g id="line2d_21">
      <g>
       <use xlink:href="#m92a2b510a0" x="39.998678" y="199.233274" style="stroke: #000000; stroke-width: 0.8"/>
      </g>
     </g>
     <g id="line2d_22">
      <g>
       <use xlink:href="#mefa5caaa33" x="412.459851" y="199.233274" style="stroke: #000000; stroke-width: 0.8"/>
      </g>
     </g>
     <g id="text_12">
      <!-- 0.25 -->
      <g transform="translate(17.00024 202.983274) scale(0.1 -0.1)">
       <defs>
        <path id="Roboto-Regular-35" d="M 1109 2166 
L 647 2284 
L 875 4550 
L 3209 4550 
L 3209 4016 
L 1366 4016 
L 1228 2778 
Q 1572 2975 1988 2975 
Q 2616 2975 2980 2561 
Q 3344 2147 3344 1450 
Q 3344 797 2987 367 
Q 2631 -63 1903 -63 
Q 1350 -63 947 248 
Q 544 559 481 1197 
L 1031 1197 
Q 1141 413 1903 413 
Q 2313 413 2538 691 
Q 2763 969 2763 1444 
Q 2763 1872 2527 2164 
Q 2291 2456 1853 2456 
Q 1563 2456 1413 2378 
Q 1263 2300 1109 2166 
z
" transform="scale(0.015625)"/>
       </defs>
       <use xlink:href="#Roboto-Regular-30"/>
       <use xlink:href="#Roboto-Regular-2e" x="56.201172"/>
       <use xlink:href="#Roboto-Regular-32" x="82.568359"/>
       <use xlink:href="#Roboto-Regular-35" x="138.769531"/>
      </g>
     </g>
    </g>
    <g id="ytick_3">
     <g id="line2d_23">
      <g>
       <use xlink:href="#m92a2b510a0" x="39.998678" y="168.571862" style="stroke: #000000; stroke-width: 0.8"/>
      </g>
     </g>
     <g id="line2d_24">
      <g>
       <use xlink:href="#mefa5caaa33" x="412.459851" y="168.571862" style="stroke: #000000; stroke-width: 0.8"/>
      </g>
     </g>
     <g id="text_13">
      <!-- 0.30 -->
      <g transform="translate(17.00024 172.321862) scale(0.1 -0.1)">
       <defs>
        <path id="Roboto-Regular-33" d="M 1222 2084 
L 1222 2559 
L 1647 2559 
Q 2094 2563 2312 2784 
Q 2531 3006 2531 3338 
Q 2531 4138 1738 4138 
Q 1369 4138 1141 3927 
Q 913 3716 913 3359 
L 334 3359 
Q 334 3881 720 4247 
Q 1106 4613 1738 4613 
Q 2353 4613 2733 4286 
Q 3113 3959 3113 3325 
Q 3113 3072 2942 2784 
Q 2772 2497 2397 2338 
Q 2850 2191 3015 1884 
Q 3181 1578 3181 1269 
Q 3181 631 2768 284 
Q 2356 -63 1741 -63 
Q 1147 -63 722 267 
Q 297 597 297 1203 
L 875 1203 
Q 875 844 1108 628 
Q 1341 413 1741 413 
Q 2138 413 2369 622 
Q 2600 831 2600 1256 
Q 2600 1681 2337 1882 
Q 2075 2084 1634 2084 
L 1222 2084 
z
" transform="scale(0.015625)"/>
       </defs>
       <use xlink:href="#Roboto-Regular-30"/>
       <use xlink:href="#Roboto-Regular-2e" x="56.201172"/>
       <use xlink:href="#Roboto-Regular-33" x="82.568359"/>
       <use xlink:href="#Roboto-Regular-30" x="138.769531"/>
      </g>
     </g>
    </g>
    <g id="ytick_4">
     <g id="line2d_25">
      <g>
       <use xlink:href="#m92a2b510a0" x="39.998678" y="137.910451" style="stroke: #000000; stroke-width: 0.8"/>
      </g>
     </g>
     <g id="line2d_26">
      <g>
       <use xlink:href="#mefa5caaa33" x="412.459851" y="137.910451" style="stroke: #000000; stroke-width: 0.8"/>
      </g>
     </g>
     <g id="text_14">
      <!-- 0.35 -->
      <g transform="translate(17.00024 141.660451) scale(0.1 -0.1)">
       <use xlink:href="#Roboto-Regular-30"/>
       <use xlink:href="#Roboto-Regular-2e" x="56.201172"/>
       <use xlink:href="#Roboto-Regular-33" x="82.568359"/>
       <use xlink:href="#Roboto-Regular-35" x="138.769531"/>
      </g>
     </g>
    </g>
    <g id="ytick_5">
     <g id="line2d_27">
      <g>
       <use xlink:href="#m92a2b510a0" x="39.998678" y="107.249039" style="stroke: #000000; stroke-width: 0.8"/>
      </g>
     </g>
     <g id="line2d_28">
      <g>
       <use xlink:href="#mefa5caaa33" x="412.459851" y="107.249039" style="stroke: #000000; stroke-width: 0.8"/>
      </g>
     </g>
     <g id="text_15">
      <!-- 0.40 -->
      <g transform="translate(17.00024 110.999039) scale(0.1 -0.1)">
       <use xlink:href="#Roboto-Regular-30"/>
       <use xlink:href="#Roboto-Regular-2e" x="56.201172"/>
       <use xlink:href="#Roboto-Regular-34" x="82.568359"/>
       <use xlink:href="#Roboto-Regular-30" x="138.769531"/>
      </g>
     </g>
    </g>
    <g id="ytick_6">
     <g id="line2d_29">
      <g>
       <use xlink:href="#m92a2b510a0" x="39.998678" y="76.587628" style="stroke: #000000; stroke-width: 0.8"/>
      </g>
     </g>
     <g id="line2d_30">
      <g>
       <use xlink:href="#mefa5caaa33" x="412.459851" y="76.587628" style="stroke: #000000; stroke-width: 0.8"/>
      </g>
     </g>
     <g id="text_16">
      <!-- 0.45 -->
      <g transform="translate(17.00024 80.337628) scale(0.1 -0.1)">
       <use xlink:href="#Roboto-Regular-30"/>
       <use xlink:href="#Roboto-Regular-2e" x="56.201172"/>
       <use xlink:href="#Roboto-Regular-34" x="82.568359"/>
       <use xlink:href="#Roboto-Regular-35" x="138.769531"/>
      </g>
     </g>
    </g>
    <g id="ytick_7">
     <g id="line2d_31">
      <g>
       <use xlink:href="#m92a2b510a0" x="39.998678" y="45.926216" style="stroke: #000000; stroke-width: 0.8"/>
      </g>
     </g>
     <g id="line2d_32">
      <g>
       <use xlink:href="#mefa5caaa33" x="412.459851" y="45.926216" style="stroke: #000000; stroke-width: 0.8"/>
      </g>
     </g>
     <g id="text_17">
      <!-- 0.50 -->
      <g transform="translate(17.00024 49.676216) scale(0.1 -0.1)">
       <use xlink:href="#Roboto-Regular-30"/>
       <use xlink:href="#Roboto-Regular-2e" x="56.201172"/>
       <use xlink:href="#Roboto-Regular-35" x="82.568359"/>
       <use xlink:href="#Roboto-Regular-30" x="138.769531"/>
      </g>
     </g>
    </g>
    <g id="ytick_8">
     <g id="line2d_33">
      <g>
       <use xlink:href="#m92a2b510a0" x="39.998678" y="15.264805" style="stroke: #000000; stroke-width: 0.8"/>
      </g>
     </g>
     <g id="line2d_34">
      <g>
       <use xlink:href="#mefa5caaa33" x="412.459851" y="15.264805" style="stroke: #000000; stroke-width: 0.8"/>
      </g>
     </g>
     <g id="text_18">
      <!-- 0.55 -->
      <g transform="translate(17.00024 19.014805) scale(0.1 -0.1)">
       <use xlink:href="#Roboto-Regular-30"/>
       <use xlink:href="#Roboto-Regular-2e" x="56.201172"/>
       <use xlink:href="#Roboto-Regular-35" x="82.568359"/>
       <use xlink:href="#Roboto-Regular-35" x="138.769531"/>
      </g>
     </g>
    </g>
    <g id="text_19">
     <!-- Current velocity, $\mathcal{F}_{r} = u_{\rm c}/u_{0}$ -->
     <g transform="translate(10.50024 176.847463) rotate(-90) scale(0.1 -0.1)">
      <defs>
       <path id="Roboto-Regular-43" d="M 3275 1447 
L 3875 1447 
Q 3806 800 3387 368 
Q 2969 -63 2150 -63 
Q 1356 -63 870 504 
Q 384 1072 375 2013 
L 375 2500 
Q 375 3456 867 4034 
Q 1359 4613 2203 4613 
Q 2975 4613 3390 4188 
Q 3806 3763 3875 3091 
L 3275 3091 
Q 3206 3566 2968 3842 
Q 2731 4119 2203 4119 
Q 1600 4119 1287 3675 
Q 975 3231 975 2506 
L 975 2047 
Q 975 1375 1259 901 
Q 1544 428 2150 428 
Q 2725 428 2961 697 
Q 3197 966 3275 1447 
z
" transform="scale(0.015625)"/>
       <path id="Roboto-Regular-75" d="M 2538 0 
L 2525 334 
Q 2194 -63 1538 -63 
Q 1041 -63 734 231 
Q 428 525 428 1200 
L 428 3381 
L 1006 3381 
L 1006 1194 
Q 1006 738 1198 583 
Q 1391 428 1628 428 
Q 2281 428 2509 919 
L 2509 3381 
L 3091 3381 
L 3091 0 
L 2538 0 
z
" transform="scale(0.015625)"/>
       <path id="Roboto-Regular-72" d="M 1791 2888 
Q 1225 2888 1019 2400 
L 1019 0 
L 441 0 
L 441 3381 
L 1003 3381 
L 1016 2994 
Q 1294 3444 1819 3444 
Q 1981 3444 2075 3400 
L 2072 2863 
Q 1944 2888 1791 2888 
z
" transform="scale(0.015625)"/>
       <path id="Roboto-Regular-6e" d="M 1844 2956 
Q 1566 2956 1353 2806 
Q 1141 2656 1019 2416 
L 1019 0 
L 441 0 
L 441 3381 
L 988 3381 
L 1006 2959 
Q 1391 3444 2016 3444 
Q 2513 3444 2805 3166 
Q 3097 2888 3100 2231 
L 3100 0 
L 2519 0 
L 2519 2222 
Q 2519 2619 2345 2787 
Q 2172 2956 1844 2956 
z
" transform="scale(0.015625)"/>
       <path id="Roboto-Regular-76" d="M 2984 3381 
L 1769 0 
L 1328 0 
L 103 3381 
L 697 3381 
L 1556 791 
L 2394 3381 
L 2984 3381 
z
" transform="scale(0.015625)"/>
       <path id="Roboto-Regular-63" d="M 1794 413 
Q 2103 413 2336 597 
Q 2569 781 2591 1069 
L 3141 1069 
Q 3119 616 2725 276 
Q 2331 -63 1794 -63 
Q 1031 -63 661 440 
Q 291 944 291 1625 
L 291 1756 
Q 291 2438 661 2941 
Q 1031 3444 1794 3444 
Q 2388 3444 2753 3092 
Q 3119 2741 3141 2219 
L 2591 2219 
Q 2569 2531 2355 2750 
Q 2141 2969 1794 2969 
Q 1438 2969 1236 2787 
Q 1034 2606 951 2328 
Q 869 2050 869 1756 
L 869 1625 
Q 869 1328 950 1050 
Q 1031 772 1232 592 
Q 1434 413 1794 413 
z
" transform="scale(0.015625)"/>
       <path id="Roboto-Regular-69" d="M 444 4278 
Q 444 4419 530 4516 
Q 616 4613 784 4613 
Q 950 4613 1039 4516 
Q 1128 4419 1128 4278 
Q 1128 4144 1039 4048 
Q 950 3953 784 3953 
Q 616 3953 530 4048 
Q 444 4144 444 4278 
z
M 1069 3381 
L 1069 0 
L 488 0 
L 488 3381 
L 1069 3381 
z
" transform="scale(0.015625)"/>
       <path id="Roboto-Regular-79" d="M 1594 -522 
Q 1294 -1316 688 -1363 
L 591 -1366 
Q 406 -1366 266 -1316 
L 263 -847 
L 419 -859 
Q 713 -859 878 -739 
Q 1044 -619 1150 -306 
L 1275 38 
L 69 3381 
L 700 3381 
L 1547 850 
L 2331 3381 
L 2950 3381 
L 1594 -522 
z
" transform="scale(0.015625)"/>
       <path id="Cmsy10-46" d="M 109 288 
Q 109 400 290 508 
Q 472 616 594 628 
L 634 628 
Q 656 616 739 480 
Q 822 344 942 255 
Q 1063 166 1281 166 
Q 1325 222 1356 275 
Q 1816 1125 2138 2009 
Q 2313 2491 2452 3005 
Q 2591 3519 2669 3994 
L 2400 3994 
Q 1763 3994 1594 3397 
Q 1531 3284 1389 3200 
Q 1247 3116 1113 3103 
L 1075 3103 
Q 1031 3131 1031 3169 
Q 1128 3509 1414 3784 
Q 1700 4059 2078 4215 
Q 2456 4372 2809 4372 
L 4684 4372 
Q 5306 4372 5306 4128 
Q 5306 3988 5137 3873 
Q 4969 3759 4806 3744 
L 4775 3744 
Q 4728 3769 4728 3781 
Q 4731 3800 4734 3822 
Q 4738 3844 4738 3853 
Q 4738 3994 4206 3994 
L 3194 3994 
Q 3013 3097 2725 2303 
L 4341 2303 
Q 4384 2281 4384 2247 
Q 4344 2094 4194 1986 
Q 4044 1878 3878 1863 
L 3841 1863 
Q 3794 1888 3794 1913 
L 3794 1925 
L 2584 1925 
Q 2303 1206 1919 494 
Q 1759 209 1465 -2 
Q 1172 -213 878 -213 
L 844 -213 
Q 594 -213 394 -80 
Q 194 53 109 288 
z
" transform="scale(0.015625)"/>
       <path id="Cmmi10-72" d="M 494 109 
Q 494 147 500 166 
L 978 2075 
Q 1025 2253 1025 2388 
Q 1025 2663 838 2663 
Q 638 2663 541 2423 
Q 444 2184 353 1819 
Q 353 1800 334 1789 
Q 316 1778 300 1778 
L 225 1778 
Q 203 1778 187 1801 
Q 172 1825 172 1844 
Q 241 2122 305 2315 
Q 369 2509 505 2668 
Q 641 2828 844 2828 
Q 1066 2828 1233 2700 
Q 1400 2572 1441 2363 
Q 1603 2575 1811 2701 
Q 2019 2828 2266 2828 
Q 2469 2828 2623 2709 
Q 2778 2591 2778 2388 
Q 2778 2225 2676 2104 
Q 2575 1984 2406 1984 
Q 2303 1984 2233 2048 
Q 2163 2113 2163 2216 
Q 2163 2356 2266 2467 
Q 2369 2578 2503 2578 
Q 2400 2663 2253 2663 
Q 1978 2663 1775 2467 
Q 1572 2272 1409 1972 
L 953 141 
Q 931 53 854 -9 
Q 778 -72 684 -72 
Q 606 -72 550 -22 
Q 494 28 494 109 
z
" transform="scale(0.015625)"/>
       <path id="Cmr10-3d" d="M 481 850 
Q 428 850 393 890 
Q 359 931 359 978 
Q 359 1031 393 1068 
Q 428 1106 481 1106 
L 4500 1106 
Q 4547 1106 4581 1068 
Q 4616 1031 4616 978 
Q 4616 931 4581 890 
Q 4547 850 4500 850 
L 481 850 
z
M 481 2094 
Q 428 2094 393 2131 
Q 359 2169 359 2222 
Q 359 2269 393 2309 
Q 428 2350 481 2350 
L 4500 2350 
Q 4547 2350 4581 2309 
Q 4616 2269 4616 2222 
Q 4616 2169 4581 2131 
Q 4547 2094 4500 2094 
L 481 2094 
z
" transform="scale(0.015625)"/>
       <path id="Cmmi10-75" d="M 678 697 
Q 678 906 734 1126 
Q 791 1347 892 1617 
Q 994 1888 1069 2088 
Q 1153 2322 1153 2472 
Q 1153 2663 1013 2663 
Q 759 2663 595 2402 
Q 431 2141 353 1819 
Q 341 1778 300 1778 
L 225 1778 
Q 172 1778 172 1838 
L 172 1856 
Q 275 2238 487 2533 
Q 700 2828 1025 2828 
Q 1253 2828 1411 2678 
Q 1569 2528 1569 2297 
Q 1569 2178 1516 2047 
Q 1488 1969 1388 1706 
Q 1288 1444 1234 1272 
Q 1181 1100 1147 934 
Q 1113 769 1113 603 
Q 1113 391 1203 244 
Q 1294 97 1497 97 
Q 1906 97 2216 603 
Q 2222 628 2226 651 
Q 2231 675 2234 697 
L 2694 2553 
Q 2716 2638 2794 2698 
Q 2872 2759 2963 2759 
Q 3041 2759 3098 2709 
Q 3156 2659 3156 2578 
Q 3156 2541 3150 2528 
L 2688 684 
Q 2644 494 2644 372 
Q 2644 97 2828 97 
Q 3034 97 3136 351 
Q 3238 606 3309 941 
Q 3322 978 3359 978 
L 3438 978 
Q 3463 978 3478 956 
Q 3494 934 3494 916 
Q 3425 641 3361 444 
Q 3297 247 3159 87 
Q 3022 -72 2816 -72 
Q 2613 -72 2452 39 
Q 2291 150 2234 341 
Q 2088 153 1894 40 
Q 1700 -72 1484 -72 
Q 1116 -72 897 129 
Q 678 331 678 697 
z
" transform="scale(0.015625)"/>
       <path id="Cmr10-63" d="M 1594 -72 
Q 1206 -72 890 129 
Q 575 331 394 667 
Q 213 1003 213 1381 
Q 213 1759 392 2106 
Q 572 2453 889 2661 
Q 1206 2869 1594 2869 
Q 1969 2869 2276 2722 
Q 2584 2575 2584 2241 
Q 2584 2116 2495 2023 
Q 2406 1931 2278 1931 
Q 2150 1931 2061 2023 
Q 1972 2116 1972 2241 
Q 1972 2353 2044 2436 
Q 2116 2519 2222 2541 
Q 2000 2681 1600 2681 
Q 1294 2681 1106 2478 
Q 919 2275 844 1975 
Q 769 1675 769 1381 
Q 769 1072 861 783 
Q 953 494 1158 305 
Q 1363 116 1672 116 
Q 1975 116 2187 302 
Q 2400 488 2478 788 
Q 2478 825 2528 825 
L 2606 825 
Q 2625 825 2640 808 
Q 2656 791 2656 769 
L 2656 750 
Q 2559 372 2271 150 
Q 1984 -72 1594 -72 
z
" transform="scale(0.015625)"/>
       <path id="Cmmi10-3d" d="M 359 -1472 
Q 359 -1453 366 -1447 
L 2591 4722 
Q 2603 4759 2634 4779 
Q 2666 4800 2706 4800 
Q 2763 4800 2798 4765 
Q 2834 4731 2834 4672 
L 2834 4647 
L 609 -1522 
Q 572 -1600 488 -1600 
Q 434 -1600 396 -1562 
Q 359 -1525 359 -1472 
z
" transform="scale(0.015625)"/>
       <path id="Cmr10-30" d="M 1600 -141 
Q 816 -141 533 504 
Q 250 1150 250 2041 
Q 250 2597 351 3087 
Q 453 3578 754 3920 
Q 1056 4263 1600 4263 
Q 2022 4263 2290 4056 
Q 2559 3850 2700 3523 
Q 2841 3197 2892 2823 
Q 2944 2450 2944 2041 
Q 2944 1491 2842 1011 
Q 2741 531 2444 195 
Q 2147 -141 1600 -141 
z
M 1600 25 
Q 1956 25 2131 390 
Q 2306 756 2347 1200 
Q 2388 1644 2388 2144 
Q 2388 2625 2347 3031 
Q 2306 3438 2132 3767 
Q 1959 4097 1600 4097 
Q 1238 4097 1063 3765 
Q 888 3434 847 3029 
Q 806 2625 806 2144 
Q 806 1788 823 1472 
Q 841 1156 916 820 
Q 991 484 1158 254 
Q 1325 25 1600 25 
z
" transform="scale(0.015625)"/>
      </defs>
      <use xlink:href="#Roboto-Regular-43"/>
      <use xlink:href="#Roboto-Regular-75" transform="translate(65.087891 0)"/>
      <use xlink:href="#Roboto-Regular-72" transform="translate(120.214844 0)"/>
      <use xlink:href="#Roboto-Regular-72" transform="translate(154.101562 0)"/>
      <use xlink:href="#Roboto-Regular-65" transform="translate(187.988281 0)"/>
      <use xlink:href="#Roboto-Regular-6e" transform="translate(241.015625 0)"/>
      <use xlink:href="#Roboto-Regular-74" transform="translate(296.240234 0)"/>
      <use xlink:href="#Roboto-Regular-20" transform="translate(328.955078 0)"/>
      <use xlink:href="#Roboto-Regular-76" transform="translate(353.759766 0)"/>
      <use xlink:href="#Roboto-Regular-65" transform="translate(402.197266 0)"/>
      <use xlink:href="#Roboto-Regular-6c" transform="translate(455.224609 0)"/>
      <use xlink:href="#Roboto-Regular-6f" transform="translate(479.541016 0)"/>
      <use xlink:href="#Roboto-Regular-63" transform="translate(536.572266 0)"/>
      <use xlink:href="#Roboto-Regular-69" transform="translate(588.916016 0)"/>
      <use xlink:href="#Roboto-Regular-74" transform="translate(613.232422 0)"/>
      <use xlink:href="#Roboto-Regular-79" transform="translate(645.947266 0)"/>
      <use xlink:href="#Roboto-Regular-2c" transform="translate(693.261719 0)"/>
      <use xlink:href="#Roboto-Regular-20" transform="translate(712.939453 0)"/>
      <use xlink:href="#Cmsy10-46" transform="translate(737.744141 0)"/>
      <use xlink:href="#Cmmi10-72" transform="translate(813.985625 -17.00625) scale(0.7)"/>
      <use xlink:href="#Cmr10-3d" transform="translate(869.503594 0)"/>
      <use xlink:href="#Cmmi10-75" transform="translate(964.747734 0)"/>
      <use xlink:href="#Cmr10-63" transform="translate(1021.925469 -17.00625) scale(0.7)"/>
      <use xlink:href="#Cmmi10-3d" transform="translate(1059.372148 0)"/>
      <use xlink:href="#Cmmi10-75" transform="translate(1109.372148 0)"/>
      <use xlink:href="#Cmr10-30" transform="translate(1166.549883 -17.00625) scale(0.7)"/>
     </g>
    </g>
   </g>
   <g id="line2d_35">
    <path d="M 45.728849 54.107266 
L 50.359291 53.490596 
L 54.989733 52.87705 
L 59.620175 52.266617 
L 64.250617 51.659285 
L 68.881059 51.055043 
L 73.511501 50.453879 
L 78.141943 49.855784 
L 82.772385 49.260746 
L 87.402827 48.668755 
L 92.033269 48.0798 
L 96.663711 47.493871 
L 101.294153 46.910958 
L 105.924595 46.331051 
L 110.555037 45.75414 
L 115.185479 45.180215 
L 119.81592 44.609267 
L 124.446362 44.041286 
L 129.076804 43.476263 
L 133.707246 42.914188 
L 138.337688 42.355054 
L 142.96813 41.79885 
L 147.598572 41.245568 
L 152.229014 40.695199 
L 156.859456 40.147735 
L 161.489898 39.603167 
L 166.12034 39.061487 
L 170.750782 38.522687 
L 175.381224 37.986758 
L 180.011666 37.453693 
L 184.642108 36.923483 
L 189.27255 36.396121 
L 193.902992 35.871599 
L 198.533433 35.34991 
L 203.163875 34.831046 
L 207.794317 34.315 
L 212.424759 33.801764 
L 217.055201 33.291331 
L 221.685643 32.783694 
L 226.316085 32.278846 
L 230.946527 31.776781 
L 235.576969 31.277491 
L 240.207411 30.78097 
L 244.837853 30.28721 
L 249.468295 29.796206 
L 254.098737 29.307952 
L 258.729179 28.822439 
L 263.359621 28.339663 
L 267.990063 27.859618 
L 272.620505 27.382296 
L 277.250947 26.907692 
L 281.881388 26.4358 
L 286.51183 25.966614 
L 291.142272 25.500128 
L 295.772714 25.036337 
L 300.403156 24.575234 
L 305.033598 24.116815 
L 309.66404 23.661073 
L 314.294482 23.208004 
L 318.924924 22.757601 
L 323.555366 22.30986 
L 328.185808 21.864775 
L 332.81625 21.42234 
L 337.446692 20.982552 
L 342.077134 20.545405 
L 346.707576 20.110893 
L 351.338018 19.679013 
L 355.96846 19.249758 
L 360.598901 18.823125 
L 365.229343 18.399108 
L 369.859785 17.977703 
L 374.490227 17.558905 
L 379.120669 17.14271 
L 383.751111 16.729113 
L 388.381553 16.318109 
L 393.011995 15.909695 
L 397.642437 15.503865 
L 402.272879 15.100616 
L 406.903321 14.699944 
L 411.533763 14.301844 
L 416.164205 13.906311 
L 420.794647 13.513343 
L 422.080404 13.404936 
" clip-path="url(#p583a45f1f1)" style="fill: none; stroke-dasharray: 3.7,1.6; stroke-dashoffset: 0; stroke: #ff7f0e"/>
   </g>
   <g id="LineCollection_1">
    <path d="M 41.144712 148.294372 
L 50.312987 148.294372 
" clip-path="url(#p583a45f1f1)" style="fill: none; stroke: #1f77b4; stroke-width: 1.5"/>
    <path d="M 61.544124 131.854972 
L 70.712399 131.854972 
" clip-path="url(#p583a45f1f1)" style="fill: none; stroke: #1f77b4; stroke-width: 1.5"/>
    <path d="M 106.010258 115.603026 
L 115.178533 115.603026 
" clip-path="url(#p583a45f1f1)" style="fill: none; stroke: #1f77b4; stroke-width: 1.5"/>
    <path d="M 155.289736 106.931747 
L 164.458011 106.931747 
" clip-path="url(#p583a45f1f1)" style="fill: none; stroke: #1f77b4; stroke-width: 1.5"/>
    <path d="M 207.09049 86.297573 
L 216.258765 86.297573 
" clip-path="url(#p583a45f1f1)" style="fill: none; stroke: #1f77b4; stroke-width: 1.5"/>
   </g>
   <g id="LineCollection_2">
    <path d="M 45.728849 157.30029 
L 45.728849 139.288455 
" clip-path="url(#p583a45f1f1)" style="fill: none; stroke: #1f77b4; stroke-width: 1.5"/>
    <path d="M 66.128261 139.623709 
L 66.128261 124.086235 
" clip-path="url(#p583a45f1f1)" style="fill: none; stroke: #1f77b4; stroke-width: 1.5"/>
    <path d="M 110.594395 122.90038 
L 110.594395 108.305671 
" clip-path="url(#p583a45f1f1)" style="fill: none; stroke: #1f77b4; stroke-width: 1.5"/>
    <path d="M 159.873874 115.896074 
L 159.873874 97.967419 
" clip-path="url(#p583a45f1f1)" style="fill: none; stroke: #1f77b4; stroke-width: 1.5"/>
    <path d="M 211.674628 95.824737 
L 211.674628 76.770408 
" clip-path="url(#p583a45f1f1)" style="fill: none; stroke: #1f77b4; stroke-width: 1.5"/>
   </g>
   <g id="line2d_36">
    <path d="M 45.728849 143.484577 
L 50.359291 141.676782 
L 54.989733 139.885654 
L 59.620175 138.110798 
L 64.250617 136.351834 
L 68.881059 134.6084 
L 73.511501 132.880146 
L 78.141943 131.16674 
L 82.772385 129.467859 
L 87.402827 127.783195 
L 92.033269 126.112452 
L 96.663711 124.455344 
L 101.294153 122.811597 
L 105.924595 121.180945 
L 110.555037 119.563135 
L 115.185479 117.95792 
L 119.81592 116.365063 
L 124.446362 114.784335 
L 129.076804 113.215516 
L 133.707246 111.658393 
L 138.337688 110.112758 
L 142.96813 108.578413 
L 147.598572 107.055164 
L 152.229014 105.542826 
L 156.859456 104.041218 
L 161.489898 102.550165 
L 166.12034 101.069497 
L 170.750782 99.599051 
L 175.381224 98.138667 
L 180.011666 96.68819 
L 184.642108 95.247473 
L 189.27255 93.816368 
L 193.902992 92.394735 
L 198.533433 90.982437 
L 203.163875 89.579342 
L 207.794317 88.185319 
L 212.424759 86.800244 
L 217.055201 85.423994 
L 221.685643 84.05645 
L 226.316085 82.697497 
L 230.946527 81.347023 
L 235.576969 80.004918 
L 240.207411 78.671076 
L 244.837853 77.345393 
L 249.468295 76.027768 
L 254.098737 74.718103 
L 258.729179 73.416301 
L 263.359621 72.12227 
L 267.990063 70.835918 
L 272.620505 69.557157 
L 277.250947 68.285899 
L 281.881388 67.022061 
L 286.51183 65.765559 
L 291.142272 64.516314 
L 295.772714 63.274246 
L 300.403156 62.039279 
L 305.033598 60.811338 
L 309.66404 59.59035 
L 314.294482 58.376244 
L 318.924924 57.168949 
L 323.555366 55.968397 
L 328.185808 54.774521 
L 332.81625 53.587257 
L 337.446692 52.406541 
L 342.077134 51.232309 
L 346.707576 50.064502 
L 351.338018 48.903059 
L 355.96846 47.747922 
L 360.598901 46.599034 
L 365.229343 45.456338 
L 369.859785 44.319781 
L 374.490227 43.189309 
L 379.120669 42.064868 
L 383.751111 40.946409 
L 388.381553 39.833879 
L 393.011995 38.727231 
L 397.642437 37.626415 
L 402.272879 36.531385 
L 406.903321 35.442093 
L 411.533763 34.358496 
L 416.164205 33.280547 
L 420.794647 32.208203 
L 422.080404 31.911985 
" clip-path="url(#p583a45f1f1)" style="fill: none; stroke-dasharray: 3.7,1.6; stroke-dashoffset: 0; stroke: #1f77b4"/>
   </g>
   <g id="LineCollection_3">
    <path d="M 272.643657 125.59786 
L 277.227794 125.59786 
" clip-path="url(#p583a45f1f1)" style="fill: none; stroke: #2ca02c; stroke-width: 1.5"/>
    <path d="M 387.247095 100.058729 
L 391.831232 100.058729 
" clip-path="url(#p583a45f1f1)" style="fill: none; stroke: #2ca02c; stroke-width: 1.5"/>
    <path d="M 203.881594 144.184655 
L 208.465731 144.184655 
" clip-path="url(#p583a45f1f1)" style="fill: none; stroke: #2ca02c; stroke-width: 1.5"/>
   </g>
   <g id="LineCollection_4">
    <path d="M 274.935726 145.852649 
L 274.935726 105.34307 
" clip-path="url(#p583a45f1f1)" style="fill: none; stroke: #2ca02c; stroke-width: 1.5"/>
    <path d="M 389.539164 122.530519 
L 389.539164 77.586939 
" clip-path="url(#p583a45f1f1)" style="fill: none; stroke: #2ca02c; stroke-width: 1.5"/>
    <path d="M 206.173663 162.851036 
L 206.173663 125.518273 
" clip-path="url(#p583a45f1f1)" style="fill: none; stroke: #2ca02c; stroke-width: 1.5"/>
   </g>
   <g id="line2d_37">
    <path d="M 45.728849 194.111777 
L 50.359291 192.419289 
L 54.989733 190.745489 
L 59.620175 189.089824 
L 64.250617 187.451768 
L 68.881059 185.830823 
L 73.511501 184.226515 
L 78.141943 182.63839 
L 82.772385 181.06602 
L 87.402827 179.508994 
L 92.033269 177.96692 
L 96.663711 176.439426 
L 101.294153 174.926152 
L 105.924595 173.426758 
L 110.555037 171.940916 
L 115.185479 170.468313 
L 119.81592 169.008648 
L 124.446362 167.561633 
L 129.076804 166.12699 
L 133.707246 164.704454 
L 138.337688 163.29377 
L 142.96813 161.894692 
L 147.598572 160.506983 
L 152.229014 159.130415 
L 156.859456 157.76477 
L 161.489898 156.409836 
L 166.12034 155.065409 
L 170.750782 153.731293 
L 175.381224 152.407297 
L 180.011666 151.093239 
L 184.642108 149.788942 
L 189.27255 148.494234 
L 193.902992 147.208949 
L 198.533433 145.932929 
L 203.163875 144.666018 
L 207.794317 143.408065 
L 212.424759 142.158927 
L 217.055201 140.918462 
L 221.685643 139.686533 
L 226.316085 138.46301 
L 230.946527 137.247762 
L 235.576969 136.040667 
L 240.207411 134.841603 
L 244.837853 133.650453 
L 249.468295 132.467103 
L 254.098737 131.291443 
L 258.729179 130.123366 
L 263.359621 128.962766 
L 267.990063 127.809543 
L 272.620505 126.663597 
L 277.250947 125.524832 
L 281.881388 124.393156 
L 286.51183 123.268477 
L 291.142272 122.150706 
L 295.772714 121.039757 
L 300.403156 119.935546 
L 305.033598 118.837992 
L 309.66404 117.747014 
L 314.294482 116.662534 
L 318.924924 115.584478 
L 323.555366 114.51277 
L 328.185808 113.447339 
L 332.81625 112.388115 
L 337.446692 111.335028 
L 342.077134 110.288012 
L 346.707576 109.247 
L 351.338018 108.211931 
L 355.96846 107.18274 
L 360.598901 106.159367 
L 365.229343 105.141752 
L 369.859785 104.129838 
L 374.490227 103.123566 
L 379.120669 102.122883 
L 383.751111 101.127733 
L 388.381553 100.138063 
L 393.011995 99.153821 
L 397.642437 98.174957 
L 402.272879 97.20142 
L 406.903321 96.233162 
L 411.533763 95.270136 
L 416.164205 94.312294 
L 420.794647 93.359591 
L 422.080404 93.096464 
" clip-path="url(#p583a45f1f1)" style="fill: none; stroke-dasharray: 3.7,1.6; stroke-dashoffset: 0; stroke: #2ca02c"/>
   </g>
   <g id="line2d_38">
    <defs>
     <path id="m6aae74e37c" d="M 0 1.5 
C 0.397805 1.5 0.77937 1.341951 1.06066 1.06066 
C 1.341951 0.77937 1.5 0.397805 1.5 0 
C 1.5 -0.397805 1.341951 -0.77937 1.06066 -1.06066 
C 0.77937 -1.341951 0.397805 -1.5 0 -1.5 
C -0.397805 -1.5 -0.77937 -1.341951 -1.06066 -1.06066 
C -1.341951 -0.77937 -1.5 -0.397805 -1.5 0 
C -1.5 0.397805 -1.341951 0.77937 -1.06066 1.06066 
C -0.77937 1.341951 -0.397805 1.5 0 1.5 
z
" style="stroke: #1f77b4"/>
    </defs>
    <g clip-path="url(#p583a45f1f1)">
     <use xlink:href="#m6aae74e37c" x="45.728849" y="148.294372" style="fill: #1f77b4; stroke: #1f77b4"/>
     <use xlink:href="#m6aae74e37c" x="66.128261" y="131.854972" style="fill: #1f77b4; stroke: #1f77b4"/>
     <use xlink:href="#m6aae74e37c" x="110.594395" y="115.603026" style="fill: #1f77b4; stroke: #1f77b4"/>
     <use xlink:href="#m6aae74e37c" x="159.873874" y="106.931747" style="fill: #1f77b4; stroke: #1f77b4"/>
     <use xlink:href="#m6aae74e37c" x="211.674628" y="86.297573" style="fill: #1f77b4; stroke: #1f77b4"/>
    </g>
   </g>
   <g id="line2d_39">
    <defs>
     <path id="m7dc47ac705" d="M -3 3 
L 3 3 
L 3 -3 
L -3 -3 
z
" style="stroke: #2ca02c; stroke-linejoin: miter"/>
    </defs>
    <g clip-path="url(#p583a45f1f1)">
     <use xlink:href="#m7dc47ac705" x="274.935726" y="125.59786" style="fill: #2ca02c; stroke: #2ca02c; stroke-linejoin: miter"/>
     <use xlink:href="#m7dc47ac705" x="389.539164" y="100.058729" style="fill: #2ca02c; stroke: #2ca02c; stroke-linejoin: miter"/>
     <use xlink:href="#m7dc47ac705" x="206.173663" y="144.184655" style="fill: #2ca02c; stroke: #2ca02c; stroke-linejoin: miter"/>
    </g>
   </g>
   <g id="patch_3">
    <path d="M 39.998678 229.894685 
L 39.998678 3.00024 
" style="fill: none; stroke: #000000; stroke-width: 0.8; stroke-linejoin: miter; stroke-linecap: square"/>
   </g>
   <g id="patch_4">
    <path d="M 412.459851 229.894685 
L 412.459851 3.00024 
" style="fill: none; stroke: #000000; stroke-width: 0.8; stroke-linejoin: miter; stroke-linecap: square"/>
   </g>
   <g id="patch_5">
    <path d="M 39.998678 229.894685 
L 412.459851 229.894685 
" style="fill: none; stroke: #000000; stroke-width: 0.8; stroke-linejoin: miter; stroke-linecap: square"/>
   </g>
   <g id="patch_6">
    <path d="M 39.998678 3.00024 
L 412.459851 3.00024 
" style="fill: none; stroke: #000000; stroke-width: 0.8; stroke-linejoin: miter; stroke-linecap: square"/>
   </g>
   <g id="legend_1">
    <g id="patch_7">
     <path d="M 244.250476 224.894685 
L 405.459851 224.894685 
Q 407.459851 224.894685 407.459851 222.894685 
L 407.459851 163.99156 
Q 407.459851 161.99156 405.459851 161.99156 
L 244.250476 161.99156 
Q 242.250476 161.99156 242.250476 163.99156 
L 242.250476 222.894685 
Q 242.250476 224.894685 244.250476 224.894685 
L 244.250476 224.894685 
z
" style="fill: none; stroke: #000000; stroke-opacity: 0.2; stroke-linejoin: miter"/>
    </g>
    <g id="PathCollection_2">
     <path d="M 253.750476 175.631076 
L 256.296061 171.388435 
L 253.750476 167.145794 
L 251.204892 171.388435 
z
" style="fill: #ff7f0e"/>
    </g>
    <g id="text_20">
     <!-- Birman et al. 2007 (numerical) -->
     <g transform="translate(269.250476 174.013435) scale(0.1 -0.1)">
      <defs>
       <path id="Roboto-Regular-61" d="M 2528 0 
Q 2472 122 2447 356 
Q 2284 184 2040 60 
Q 1797 -63 1484 -63 
Q 966 -63 653 228 
Q 341 519 341 941 
Q 341 1484 753 1767 
Q 1166 2050 1863 2050 
L 2434 2050 
L 2434 2319 
Q 2434 2619 2254 2798 
Q 2075 2978 1722 2978 
Q 1394 2978 1192 2817 
Q 991 2656 991 2444 
L 413 2444 
Q 413 2806 778 3125 
Q 1144 3444 1756 3444 
Q 2306 3444 2659 3162 
Q 3013 2881 3013 2313 
L 3013 794 
Q 3013 325 3131 50 
L 3131 0 
L 2528 0 
z
M 1569 444 
Q 1881 444 2111 600 
Q 2341 756 2434 947 
L 2434 1644 
L 1897 1644 
Q 922 1625 922 1019 
Q 922 778 1084 611 
Q 1247 444 1569 444 
z
" transform="scale(0.015625)"/>
       <path id="Roboto-Regular-37" d="M 3319 4550 
L 3319 4225 
L 1434 0 
L 825 0 
L 2706 4075 
L 244 4075 
L 244 4550 
L 3319 4550 
z
" transform="scale(0.015625)"/>
       <path id="Roboto-Regular-28" d="M 419 1850 
Q 419 2756 678 3434 
Q 938 4113 1294 4541 
Q 1650 4969 1947 5134 
L 2069 4753 
Q 1700 4475 1348 3761 
Q 997 3047 997 1813 
Q 997 625 1348 -97 
Q 1700 -819 2069 -1119 
L 1947 -1469 
Q 1650 -1306 1294 -878 
Q 938 -450 678 226 
Q 419 903 419 1850 
z
" transform="scale(0.015625)"/>
       <path id="Roboto-Regular-29" d="M 1772 1819 
Q 1772 906 1512 228 
Q 1253 -450 895 -878 
Q 538 -1306 244 -1469 
L 122 -1119 
Q 488 -841 841 -109 
Q 1194 622 1194 1856 
Q 1194 2647 1019 3236 
Q 844 3825 594 4212 
Q 344 4600 122 4781 
L 244 5134 
Q 538 4969 895 4541 
Q 1253 4113 1512 3436 
Q 1772 2759 1772 1819 
z
" transform="scale(0.015625)"/>
      </defs>
      <use xlink:href="#Roboto-Regular-42"/>
      <use xlink:href="#Roboto-Regular-69" x="62.304688"/>
      <use xlink:href="#Roboto-Regular-72" x="86.621094"/>
      <use xlink:href="#Roboto-Regular-6d" x="120.507812"/>
      <use xlink:href="#Roboto-Regular-61" x="208.203125"/>
      <use xlink:href="#Roboto-Regular-6e" x="262.597656"/>
      <use xlink:href="#Roboto-Regular-20" x="317.822266"/>
      <use xlink:href="#Roboto-Regular-65" x="342.626953"/>
      <use xlink:href="#Roboto-Regular-74" x="395.654297"/>
      <use xlink:href="#Roboto-Regular-20" x="428.369141"/>
      <use xlink:href="#Roboto-Regular-61" x="453.173828"/>
      <use xlink:href="#Roboto-Regular-6c" x="507.568359"/>
      <use xlink:href="#Roboto-Regular-2e" x="531.884766"/>
      <use xlink:href="#Roboto-Regular-20" x="558.251953"/>
      <use xlink:href="#Roboto-Regular-32" x="583.056641"/>
      <use xlink:href="#Roboto-Regular-30" x="639.257812"/>
      <use xlink:href="#Roboto-Regular-30" x="695.458984"/>
      <use xlink:href="#Roboto-Regular-37" x="751.660156"/>
      <use xlink:href="#Roboto-Regular-20" x="807.861328"/>
      <use xlink:href="#Roboto-Regular-28" x="832.666016"/>
      <use xlink:href="#Roboto-Regular-6e" x="866.894531"/>
      <use xlink:href="#Roboto-Regular-75" x="922.119141"/>
      <use xlink:href="#Roboto-Regular-6d" x="977.246094"/>
      <use xlink:href="#Roboto-Regular-65" x="1064.941406"/>
      <use xlink:href="#Roboto-Regular-72" x="1117.96875"/>
      <use xlink:href="#Roboto-Regular-69" x="1151.855469"/>
      <use xlink:href="#Roboto-Regular-63" x="1176.171875"/>
      <use xlink:href="#Roboto-Regular-61" x="1228.515625"/>
      <use xlink:href="#Roboto-Regular-6c" x="1282.910156"/>
      <use xlink:href="#Roboto-Regular-29" x="1307.226562"/>
     </g>
    </g>
    <g id="LineCollection_5">
     <path d="M 248.750476 185.308748 
L 258.750476 185.308748 
" style="fill: none; stroke: #1f77b4; stroke-width: 1.5"/>
    </g>
    <g id="LineCollection_6">
     <path d="M 253.750476 190.308748 
L 253.750476 180.308748 
" style="fill: none; stroke: #1f77b4; stroke-width: 1.5"/>
    </g>
    <g id="line2d_40"/>
    <g id="line2d_41">
     <g>
      <use xlink:href="#m6aae74e37c" x="253.750476" y="185.308748" style="fill: #1f77b4; stroke: #1f77b4"/>
     </g>
    </g>
    <g id="text_21">
     <!-- this study -->
     <g transform="translate(269.250476 188.808748) scale(0.1 -0.1)">
      <defs>
       <path id="Roboto-Regular-68" d="M 1844 2956 
Q 1566 2956 1353 2806 
Q 1141 2656 1019 2416 
L 1019 0 
L 441 0 
L 441 4800 
L 1019 4800 
L 1019 2978 
Q 1403 3444 2016 3444 
Q 2513 3444 2805 3166 
Q 3097 2888 3100 2231 
L 3100 0 
L 2519 0 
L 2519 2222 
Q 2519 2619 2345 2787 
Q 2172 2956 1844 2956 
z
" transform="scale(0.015625)"/>
       <path id="Roboto-Regular-64" d="M 2622 0 
L 2594 363 
Q 2247 -63 1628 -63 
Q 1034 -63 668 418 
Q 303 900 297 1628 
L 297 1719 
Q 297 2494 664 2969 
Q 1031 3444 1634 3444 
Q 2231 3444 2572 3044 
L 2572 4800 
L 3153 4800 
L 3153 0 
L 2622 0 
z
M 878 1653 
Q 878 1150 1090 789 
Q 1303 428 1772 428 
Q 2309 428 2572 919 
L 2572 2475 
Q 2313 2956 1778 2956 
Q 1306 2956 1092 2589 
Q 878 2222 878 1719 
L 878 1653 
z
" transform="scale(0.015625)"/>
      </defs>
      <use xlink:href="#Roboto-Regular-74"/>
      <use xlink:href="#Roboto-Regular-68" x="32.714844"/>
      <use xlink:href="#Roboto-Regular-69" x="87.792969"/>
      <use xlink:href="#Roboto-Regular-73" x="112.109375"/>
      <use xlink:href="#Roboto-Regular-20" x="163.720703"/>
      <use xlink:href="#Roboto-Regular-73" x="188.525391"/>
      <use xlink:href="#Roboto-Regular-74" x="240.136719"/>
      <use xlink:href="#Roboto-Regular-75" x="272.851562"/>
      <use xlink:href="#Roboto-Regular-64" x="327.978516"/>
      <use xlink:href="#Roboto-Regular-79" x="384.375"/>
     </g>
    </g>
    <g id="LineCollection_7">
     <path d="M 248.750476 200.464998 
L 258.750476 200.464998 
" style="fill: none; stroke: #2ca02c; stroke-width: 1.5"/>
    </g>
    <g id="LineCollection_8">
     <path d="M 253.750476 205.464998 
L 253.750476 195.464998 
" style="fill: none; stroke: #2ca02c; stroke-width: 1.5"/>
    </g>
    <g id="line2d_42"/>
    <g id="line2d_43">
     <g>
      <use xlink:href="#m7dc47ac705" x="253.750476" y="200.464998" style="fill: #2ca02c; stroke: #2ca02c; stroke-linejoin: miter"/>
     </g>
    </g>
    <g id="text_22">
     <!-- this study (other set-up) -->
     <g transform="translate(269.250476 203.964998) scale(0.1 -0.1)">
      <defs>
       <path id="Roboto-Regular-2d" d="M 1644 2172 
L 1644 1697 
L 119 1697 
L 119 2172 
L 1644 2172 
z
" transform="scale(0.015625)"/>
      </defs>
      <use xlink:href="#Roboto-Regular-74"/>
      <use xlink:href="#Roboto-Regular-68" x="32.714844"/>
      <use xlink:href="#Roboto-Regular-69" x="87.792969"/>
      <use xlink:href="#Roboto-Regular-73" x="112.109375"/>
      <use xlink:href="#Roboto-Regular-20" x="163.720703"/>
      <use xlink:href="#Roboto-Regular-73" x="188.525391"/>
      <use xlink:href="#Roboto-Regular-74" x="240.136719"/>
      <use xlink:href="#Roboto-Regular-75" x="272.851562"/>
      <use xlink:href="#Roboto-Regular-64" x="327.978516"/>
      <use xlink:href="#Roboto-Regular-79" x="384.375"/>
      <use xlink:href="#Roboto-Regular-20" x="431.689453"/>
      <use xlink:href="#Roboto-Regular-28" x="456.494141"/>
      <use xlink:href="#Roboto-Regular-6f" x="490.722656"/>
      <use xlink:href="#Roboto-Regular-74" x="547.753906"/>
      <use xlink:href="#Roboto-Regular-68" x="580.46875"/>
      <use xlink:href="#Roboto-Regular-65" x="635.546875"/>
      <use xlink:href="#Roboto-Regular-72" x="688.574219"/>
      <use xlink:href="#Roboto-Regular-20" x="722.460938"/>
      <use xlink:href="#Roboto-Regular-73" x="747.265625"/>
      <use xlink:href="#Roboto-Regular-65" x="798.876953"/>
      <use xlink:href="#Roboto-Regular-74" x="851.904297"/>
      <use xlink:href="#Roboto-Regular-2d" x="884.619141"/>
      <use xlink:href="#Roboto-Regular-75" x="912.255859"/>
      <use xlink:href="#Roboto-Regular-70" x="967.382812"/>
      <use xlink:href="#Roboto-Regular-29" x="1023.535156"/>
     </g>
    </g>
    <g id="line2d_44">
     <path d="M 246.250476 215.26031 
L 248.750476 215.26031 
L 251.250476 215.26031 
" style="fill: none; stroke-dasharray: 3.7,1.6; stroke-dashoffset: 0; stroke: #ff7f0e"/>
    </g>
    <g id="line2d_45">
     <path d="M 251.250476 215.26031 
L 253.750476 215.26031 
L 256.250476 215.26031 
" style="fill: none; stroke-dasharray: 3.7,1.6; stroke-dashoffset: 0; stroke: #1f77b4"/>
    </g>
    <g id="line2d_46">
     <path d="M 256.250476 215.26031 
L 258.750476 215.26031 
L 261.250476 215.26031 
" style="fill: none; stroke-dasharray: 3.7,1.6; stroke-dashoffset: 0; stroke: #2ca02c"/>
    </g>
    <g id="text_23">
     <!-- theory -->
     <g transform="translate(269.250476 218.76031) scale(0.1 -0.1)">
      <use xlink:href="#Roboto-Regular-74"/>
      <use xlink:href="#Roboto-Regular-68" x="32.714844"/>
      <use xlink:href="#Roboto-Regular-65" x="87.792969"/>
      <use xlink:href="#Roboto-Regular-6f" x="140.820312"/>
      <use xlink:href="#Roboto-Regular-72" x="197.851562"/>
      <use xlink:href="#Roboto-Regular-79" x="231.738281"/>
     </g>
    </g>
   </g>
  </g>
 </g>
 <defs>
  <clipPath id="p583a45f1f1">
   <rect x="39.998678" y="3.00024" width="372.461174" height="226.894445"/>
  </clipPath>
 </defs>
</svg>
