<?xml version="1.0" encoding="utf-8" standalone="no"?>
<!DOCTYPE svg PUBLIC "-//W3C//DTD SVG 1.1//EN"
  "http://www.w3.org/Graphics/SVG/1.1/DTD/svg11.dtd">
<svg xmlns:xlink="http://www.w3.org/1999/xlink" width="421.080404pt" height="259.926175pt" viewBox="0 0 421.080404 259.926175" xmlns="http://www.w3.org/2000/svg" version="1.1">
 <metadata>
  <rdf:RDF xmlns:dc="http://purl.org/dc/elements/1.1/" xmlns:cc="http://creativecommons.org/ns#" xmlns:rdf="http://www.w3.org/1999/02/22-rdf-syntax-ns#">
   <cc:Work>
    <dc:type rdf:resource="http://purl.org/dc/dcmitype/StillImage"/>
    <dc:date>2023-04-13T14:45:07.469828</dc:date>
    <dc:format>image/svg+xml</dc:format>
    <dc:creator>
     <cc:Agent>
      <dc:title>Matplotlib v3.7.1, https://matplotlib.org/</dc:title>
     </cc:Agent>
    </dc:creator>
   </cc:Work>
  </rdf:RDF>
 </metadata>
 <defs>
  <style type="text/css">*{stroke-linejoin: round; stroke-linecap: butt}</style>
 </defs>
 <g id="figure_1">
  <g id="patch_1">
   <path d="M 0 259.926175 
L 421.080404 259.926175 
L 421.080404 0 
L 0 0 
L 0 259.926175 
z
" style="fill: none; opacity: 0"/>
  </g>
  <g id="axes_1">
   <g id="patch_2">
    <path d="M 37.70024 230.064998 
L 323.687011 230.064998 
L 323.687011 3.00024 
L 37.70024 3.00024 
z
" style="fill: #ffffff; opacity: 0.2"/>
   </g>
   <g id="line2d_1">
    <path d="M 8.177812 260.926175 
L 9.319471 259.764225 
L 13.02142 255.996482 
L 16.723369 252.228739 
L 20.425318 248.460996 
L 24.127267 244.693253 
L 27.829215 240.925509 
L 31.531164 237.157766 
L 35.233113 233.390023 
L 38.935062 229.62228 
L 42.637011 225.854537 
L 46.33896 222.086794 
L 50.040908 218.31905 
L 53.742857 214.551307 
L 57.444806 210.783564 
L 61.146755 207.015821 
L 64.848704 203.248078 
L 68.550653 199.480334 
L 72.252602 195.712591 
L 75.95455 191.944848 
L 79.656499 188.177105 
L 83.358448 184.409362 
L 87.060397 180.641619 
L 90.762346 176.873875 
L 94.464295 173.106132 
L 98.166243 169.338389 
L 101.868192 165.570646 
L 105.570141 161.802903 
L 109.27209 158.03516 
L 112.974039 154.267416 
L 116.675988 150.499673 
L 120.377936 146.73193 
L 124.079885 142.964187 
L 127.781834 139.196444 
L 131.483783 135.428701 
L 135.185732 131.660957 
L 138.887681 127.893214 
L 142.589629 124.125471 
L 146.291578 120.357728 
L 149.993527 116.589985 
L 153.695476 112.822241 
L 157.397425 109.054498 
L 161.099374 105.286755 
L 164.801322 101.519012 
L 168.503271 97.751269 
L 172.20522 93.983526 
L 175.907169 90.215782 
L 179.609118 86.448039 
L 183.311067 82.680296 
L 187.013016 78.912553 
L 190.714964 75.14481 
L 194.416913 71.377067 
L 198.118862 67.609323 
L 201.820811 63.84158 
L 205.52276 60.073837 
L 209.224709 56.306094 
L 212.926657 52.538351 
L 216.628606 48.770607 
L 220.330555 45.002864 
L 224.032504 41.235121 
L 227.734453 37.467378 
L 231.436402 33.699635 
L 235.13835 29.931892 
L 238.840299 26.164148 
L 242.542248 22.396405 
L 246.244197 18.628662 
L 249.946146 14.860919 
L 253.648095 11.093176 
L 257.350043 7.325433 
L 261.051992 3.557689 
L 264.753941 -0.210054 
L 265.530093 -1 
" clip-path="url(#p6e9c6e5277)" style="fill: none; stroke: #000000; stroke-linecap: square"/>
   </g>
   <g id="line2d_2">
    <path d="M 276.909226 230.064998 
L 276.909226 3.00024 
" clip-path="url(#p6e9c6e5277)" style="fill: none; stroke-dasharray: 1,1.65; stroke-dashoffset: 0; stroke: #000000"/>
   </g>
   <g id="line2d_3">
    <path d="M 37.70024 52.095633 
L 323.687011 52.095633 
" clip-path="url(#p6e9c6e5277)" style="fill: none; stroke-dasharray: 3.7,1.6; stroke-dashoffset: 0; stroke: #000000"/>
   </g>
   <g id="patch_3">
    <path d="M -76.205281 230.064998 
L -76.205281 3.00024 
L 146.810576 3.00024 
L 146.810576 230.064998 
z
" clip-path="url(#p6e9c6e5277)" style="fill: #fad7a0; opacity: 0.2"/>
   </g>
   <g id="patch_4">
    <path d="M 146.810576 230.064998 
L 146.810576 3.00024 
L 230.907557 3.00024 
L 230.907557 230.064998 
z
" clip-path="url(#p6e9c6e5277)" style="fill: #d7bde2; opacity: 0.2"/>
   </g>
   <g id="patch_5">
    <path d="M 230.907557 230.064998 
L 230.907557 3.00024 
L 276.949008 3.00024 
L 276.949008 230.064998 
z
" clip-path="url(#p6e9c6e5277)" style="fill: #16a085; opacity: 0.1"/>
   </g>
   <g id="matplotlib.axis_1">
    <g id="xtick_1">
     <g id="line2d_4">
      <defs>
       <path id="m6fe4294ef4" d="M 0 0 
L 0 -2.5 
" style="stroke: #000000; stroke-width: 0.8"/>
      </defs>
      <g>
       <use xlink:href="#m6fe4294ef4" x="125.93086" y="230.064998" style="stroke: #000000; stroke-width: 0.8"/>
      </g>
     </g>
     <g id="line2d_5">
      <defs>
       <path id="m3e0ecfa965" d="M 0 0 
L 0 2.5 
" style="stroke: #000000; stroke-width: 0.8"/>
      </defs>
      <g>
       <use xlink:href="#m3e0ecfa965" x="125.93086" y="3.00024" style="stroke: #000000; stroke-width: 0.8"/>
      </g>
     </g>
     <g id="text_1">
      <!-- $\mathdefault{10^{-2}}$ -->
      <g transform="translate(116.63086 240.98531) scale(0.1 -0.1)">
       <defs>
        <path id="Montserrat-Regular-31" d="M 1114 0 
L 1114 4288 
L 1318 4070 
L 58 4070 
L 58 4480 
L 1574 4480 
L 1574 0 
L 1114 0 
z
" transform="scale(0.015625)"/>
        <path id="Montserrat-Regular-30" d="M 2118 -38 
Q 1600 -38 1197 234 
Q 794 506 563 1014 
Q 333 1523 333 2240 
Q 333 2957 563 3465 
Q 794 3974 1197 4246 
Q 1600 4518 2118 4518 
Q 2637 4518 3040 4246 
Q 3443 3974 3676 3465 
Q 3910 2957 3910 2240 
Q 3910 1523 3676 1014 
Q 3443 506 3040 234 
Q 2637 -38 2118 -38 
z
M 2118 384 
Q 2515 384 2809 598 
Q 3104 813 3270 1225 
Q 3437 1638 3437 2240 
Q 3437 2842 3270 3254 
Q 3104 3667 2809 3881 
Q 2515 4096 2118 4096 
Q 1734 4096 1433 3881 
Q 1133 3667 966 3254 
Q 800 2842 800 2240 
Q 800 1638 966 1225 
Q 1133 813 1433 598 
Q 1734 384 2118 384 
z
" transform="scale(0.015625)"/>
        <path id="Montserrat-Regular-2212" d="M 448 2048 
L 448 2426 
L 3232 2426 
L 3232 2048 
L 448 2048 
z
" transform="scale(0.015625)"/>
        <path id="Montserrat-Regular-32" d="M 250 0 
L 250 326 
L 2112 2150 
Q 2368 2400 2496 2589 
Q 2624 2778 2669 2944 
Q 2714 3110 2714 3258 
Q 2714 3648 2448 3872 
Q 2182 4096 1664 4096 
Q 1267 4096 963 3974 
Q 659 3853 442 3597 
L 115 3878 
Q 378 4186 787 4352 
Q 1197 4518 1702 4518 
Q 2157 4518 2489 4374 
Q 2822 4230 3004 3955 
Q 3187 3680 3187 3309 
Q 3187 3091 3126 2880 
Q 3066 2669 2909 2435 
Q 2752 2202 2451 1907 
L 742 230 
L 614 410 
L 3392 410 
L 3392 0 
L 250 0 
z
" transform="scale(0.015625)"/>
       </defs>
       <use xlink:href="#Montserrat-Regular-31" transform="translate(0 0.834375)"/>
       <use xlink:href="#Montserrat-Regular-30" transform="translate(36.099991 0.834375)"/>
       <use xlink:href="#Montserrat-Regular-2212" transform="translate(103.218738 37.584375) scale(0.7)"/>
       <use xlink:href="#Montserrat-Regular-32" transform="translate(143.468727 37.584375) scale(0.7)"/>
      </g>
     </g>
    </g>
    <g id="xtick_2">
     <g id="line2d_6">
      <g>
       <use xlink:href="#m6fe4294ef4" x="309.177327" y="230.064998" style="stroke: #000000; stroke-width: 0.8"/>
      </g>
     </g>
     <g id="line2d_7">
      <g>
       <use xlink:href="#m3e0ecfa965" x="309.177327" y="3.00024" style="stroke: #000000; stroke-width: 0.8"/>
      </g>
     </g>
     <g id="text_2">
      <!-- $\mathdefault{10^{-1}}$ -->
      <g transform="translate(300.577327 240.98531) scale(0.1 -0.1)">
       <use xlink:href="#Montserrat-Regular-31" transform="translate(0 0.25)"/>
       <use xlink:href="#Montserrat-Regular-30" transform="translate(36.099991 0.25)"/>
       <use xlink:href="#Montserrat-Regular-2212" transform="translate(103.218738 37) scale(0.7)"/>
       <use xlink:href="#Montserrat-Regular-31" transform="translate(143.468727 37) scale(0.7)"/>
      </g>
     </g>
    </g>
    <g id="xtick_3">
     <g id="line2d_8">
      <defs>
       <path id="m954a364353" d="M 0 0 
L 0 -2 
" style="stroke: #000000; stroke-width: 0.6"/>
      </defs>
      <g>
       <use xlink:href="#m954a364353" x="53.009759" y="230.064998" style="stroke: #000000; stroke-width: 0.6"/>
      </g>
     </g>
     <g id="line2d_9">
      <defs>
       <path id="mf840048269" d="M 0 0 
L 0 2 
" style="stroke: #000000; stroke-width: 0.6"/>
      </defs>
      <g>
       <use xlink:href="#mf840048269" x="53.009759" y="3.00024" style="stroke: #000000; stroke-width: 0.6"/>
      </g>
     </g>
    </g>
    <g id="xtick_4">
     <g id="line2d_10">
      <g>
       <use xlink:href="#m954a364353" x="70.768176" y="230.064998" style="stroke: #000000; stroke-width: 0.6"/>
      </g>
     </g>
     <g id="line2d_11">
      <g>
       <use xlink:href="#mf840048269" x="70.768176" y="3.00024" style="stroke: #000000; stroke-width: 0.6"/>
      </g>
     </g>
    </g>
    <g id="xtick_5">
     <g id="line2d_12">
      <g>
       <use xlink:href="#m954a364353" x="85.27786" y="230.064998" style="stroke: #000000; stroke-width: 0.6"/>
      </g>
     </g>
     <g id="line2d_13">
      <g>
       <use xlink:href="#mf840048269" x="85.27786" y="3.00024" style="stroke: #000000; stroke-width: 0.6"/>
      </g>
     </g>
    </g>
    <g id="xtick_6">
     <g id="line2d_14">
      <g>
       <use xlink:href="#m954a364353" x="97.545623" y="230.064998" style="stroke: #000000; stroke-width: 0.6"/>
      </g>
     </g>
     <g id="line2d_15">
      <g>
       <use xlink:href="#mf840048269" x="97.545623" y="3.00024" style="stroke: #000000; stroke-width: 0.6"/>
      </g>
     </g>
    </g>
    <g id="xtick_7">
     <g id="line2d_16">
      <g>
       <use xlink:href="#m954a364353" x="108.172442" y="230.064998" style="stroke: #000000; stroke-width: 0.6"/>
      </g>
     </g>
     <g id="line2d_17">
      <g>
       <use xlink:href="#mf840048269" x="108.172442" y="3.00024" style="stroke: #000000; stroke-width: 0.6"/>
      </g>
     </g>
    </g>
    <g id="xtick_8">
     <g id="line2d_18">
      <g>
       <use xlink:href="#m954a364353" x="117.545961" y="230.064998" style="stroke: #000000; stroke-width: 0.6"/>
      </g>
     </g>
     <g id="line2d_19">
      <g>
       <use xlink:href="#mf840048269" x="117.545961" y="3.00024" style="stroke: #000000; stroke-width: 0.6"/>
      </g>
     </g>
    </g>
    <g id="xtick_9">
     <g id="line2d_20">
      <g>
       <use xlink:href="#m954a364353" x="181.093543" y="230.064998" style="stroke: #000000; stroke-width: 0.6"/>
      </g>
     </g>
     <g id="line2d_21">
      <g>
       <use xlink:href="#mf840048269" x="181.093543" y="3.00024" style="stroke: #000000; stroke-width: 0.6"/>
      </g>
     </g>
    </g>
    <g id="xtick_10">
     <g id="line2d_22">
      <g>
       <use xlink:href="#m954a364353" x="213.361644" y="230.064998" style="stroke: #000000; stroke-width: 0.6"/>
      </g>
     </g>
     <g id="line2d_23">
      <g>
       <use xlink:href="#mf840048269" x="213.361644" y="3.00024" style="stroke: #000000; stroke-width: 0.6"/>
      </g>
     </g>
    </g>
    <g id="xtick_11">
     <g id="line2d_24">
      <g>
       <use xlink:href="#m954a364353" x="236.256226" y="230.064998" style="stroke: #000000; stroke-width: 0.6"/>
      </g>
     </g>
     <g id="line2d_25">
      <g>
       <use xlink:href="#mf840048269" x="236.256226" y="3.00024" style="stroke: #000000; stroke-width: 0.6"/>
      </g>
     </g>
    </g>
    <g id="xtick_12">
     <g id="line2d_26">
      <g>
       <use xlink:href="#m954a364353" x="254.014644" y="230.064998" style="stroke: #000000; stroke-width: 0.6"/>
      </g>
     </g>
     <g id="line2d_27">
      <g>
       <use xlink:href="#mf840048269" x="254.014644" y="3.00024" style="stroke: #000000; stroke-width: 0.6"/>
      </g>
     </g>
    </g>
    <g id="xtick_13">
     <g id="line2d_28">
      <g>
       <use xlink:href="#m954a364353" x="268.524328" y="230.064998" style="stroke: #000000; stroke-width: 0.6"/>
      </g>
     </g>
     <g id="line2d_29">
      <g>
       <use xlink:href="#mf840048269" x="268.524328" y="3.00024" style="stroke: #000000; stroke-width: 0.6"/>
      </g>
     </g>
    </g>
    <g id="xtick_14">
     <g id="line2d_30">
      <g>
       <use xlink:href="#m954a364353" x="280.79209" y="230.064998" style="stroke: #000000; stroke-width: 0.6"/>
      </g>
     </g>
     <g id="line2d_31">
      <g>
       <use xlink:href="#mf840048269" x="280.79209" y="3.00024" style="stroke: #000000; stroke-width: 0.6"/>
      </g>
     </g>
    </g>
    <g id="xtick_15">
     <g id="line2d_32">
      <g>
       <use xlink:href="#m954a364353" x="291.41891" y="230.064998" style="stroke: #000000; stroke-width: 0.6"/>
      </g>
     </g>
     <g id="line2d_33">
      <g>
       <use xlink:href="#mf840048269" x="291.41891" y="3.00024" style="stroke: #000000; stroke-width: 0.6"/>
      </g>
     </g>
    </g>
    <g id="xtick_16">
     <g id="line2d_34">
      <g>
       <use xlink:href="#m954a364353" x="300.792429" y="230.064998" style="stroke: #000000; stroke-width: 0.6"/>
      </g>
     </g>
     <g id="line2d_35">
      <g>
       <use xlink:href="#mf840048269" x="300.792429" y="3.00024" style="stroke: #000000; stroke-width: 0.6"/>
      </g>
     </g>
    </g>
    <g id="text_3">
     <!-- Settling number, $\mathcal{S} = t_{0}/t_{\rm s} = v_{\rm s}/u_{0}$ -->
     <g transform="translate(101.143625 254.425935) scale(0.1 -0.1)">
      <defs>
       <path id="Montserrat-Regular-53" d="M 1965 -38 
Q 1466 -38 1008 125 
Q 550 288 301 544 
L 486 909 
Q 723 678 1123 521 
Q 1523 365 1965 365 
Q 2387 365 2652 470 
Q 2918 576 3043 755 
Q 3168 934 3168 1152 
Q 3168 1414 3017 1574 
Q 2867 1734 2624 1827 
Q 2381 1920 2086 1990 
Q 1792 2061 1497 2141 
Q 1203 2221 956 2355 
Q 710 2490 560 2710 
Q 410 2931 410 3290 
Q 410 3622 586 3900 
Q 762 4179 1126 4348 
Q 1491 4518 2061 4518 
Q 2438 4518 2809 4412 
Q 3181 4307 3450 4122 
L 3290 3744 
Q 3002 3936 2678 4025 
Q 2355 4115 2054 4115 
Q 1651 4115 1388 4006 
Q 1126 3898 1001 3715 
Q 877 3533 877 3302 
Q 877 3040 1027 2880 
Q 1178 2720 1424 2630 
Q 1670 2541 1964 2470 
Q 2259 2400 2550 2317 
Q 2842 2234 3088 2102 
Q 3334 1971 3484 1753 
Q 3635 1536 3635 1184 
Q 3635 858 3456 579 
Q 3277 301 2909 131 
Q 2541 -38 1965 -38 
z
" transform="scale(0.015625)"/>
       <path id="Montserrat-Regular-65" d="M 2061 -32 
Q 1536 -32 1139 189 
Q 742 410 518 797 
Q 294 1184 294 1683 
Q 294 2182 508 2566 
Q 723 2950 1097 3171 
Q 1472 3392 1939 3392 
Q 2413 3392 2781 3177 
Q 3149 2963 3360 2576 
Q 3571 2189 3571 1683 
Q 3571 1651 3568 1616 
Q 3565 1581 3565 1542 
L 640 1542 
L 640 1882 
L 3322 1882 
L 3142 1747 
Q 3142 2112 2985 2397 
Q 2829 2682 2560 2842 
Q 2291 3002 1939 3002 
Q 1594 3002 1318 2842 
Q 1043 2682 889 2394 
Q 736 2106 736 1734 
L 736 1664 
Q 736 1280 905 989 
Q 1075 698 1379 534 
Q 1683 371 2074 371 
Q 2381 371 2646 480 
Q 2912 589 3104 813 
L 3360 518 
Q 3136 250 2800 109 
Q 2464 -32 2061 -32 
z
" transform="scale(0.015625)"/>
       <path id="Montserrat-Regular-74" d="M 1696 -32 
Q 1222 -32 966 224 
Q 710 480 710 947 
L 710 4102 
L 1165 4102 
L 1165 973 
Q 1165 678 1315 518 
Q 1466 358 1747 358 
Q 2048 358 2246 531 
L 2406 205 
Q 2272 83 2083 25 
Q 1894 -32 1696 -32 
z
M 109 2982 
L 109 3360 
L 2189 3360 
L 2189 2982 
L 109 2982 
z
" transform="scale(0.015625)"/>
       <path id="Montserrat-Regular-6c" d="M 634 0 
L 634 4749 
L 1088 4749 
L 1088 0 
L 634 0 
z
" transform="scale(0.015625)"/>
       <path id="Montserrat-Regular-69" d="M 634 0 
L 634 3360 
L 1088 3360 
L 1088 0 
L 634 0 
z
M 864 4102 
Q 723 4102 627 4198 
Q 531 4294 531 4429 
Q 531 4563 627 4656 
Q 723 4749 864 4749 
Q 1005 4749 1101 4659 
Q 1197 4570 1197 4435 
Q 1197 4294 1104 4198 
Q 1011 4102 864 4102 
z
" transform="scale(0.015625)"/>
       <path id="Montserrat-Regular-6e" d="M 2349 3392 
Q 2758 3392 3068 3235 
Q 3379 3078 3555 2758 
Q 3731 2438 3731 1952 
L 3731 0 
L 3277 0 
L 3277 1907 
Q 3277 2438 3011 2710 
Q 2746 2982 2266 2982 
Q 1907 2982 1641 2838 
Q 1376 2694 1232 2422 
Q 1088 2150 1088 1766 
L 1088 0 
L 634 0 
L 634 3360 
L 1069 3360 
L 1069 2438 
L 998 2611 
Q 1158 2976 1510 3184 
Q 1862 3392 2349 3392 
z
" transform="scale(0.015625)"/>
       <path id="Montserrat-Regular-67" d="M 2067 -1274 
Q 1606 -1274 1184 -1139 
Q 762 -1005 499 -755 
L 730 -410 
Q 966 -621 1315 -745 
Q 1664 -870 2054 -870 
Q 2694 -870 2995 -572 
Q 3296 -275 3296 352 
L 3296 1190 
L 3360 1766 
L 3315 2342 
L 3315 3360 
L 3750 3360 
L 3750 410 
Q 3750 -461 3324 -867 
Q 2899 -1274 2067 -1274 
z
M 1984 128 
Q 1504 128 1120 336 
Q 736 544 515 915 
Q 294 1286 294 1766 
Q 294 2246 515 2614 
Q 736 2982 1120 3187 
Q 1504 3392 1984 3392 
Q 2432 3392 2790 3206 
Q 3149 3021 3360 2656 
Q 3571 2291 3571 1766 
Q 3571 1242 3360 877 
Q 3149 512 2790 320 
Q 2432 128 1984 128 
z
M 2029 531 
Q 2400 531 2688 688 
Q 2976 845 3142 1123 
Q 3309 1402 3309 1766 
Q 3309 2131 3142 2406 
Q 2976 2682 2688 2838 
Q 2400 2995 2029 2995 
Q 1664 2995 1373 2838 
Q 1082 2682 918 2406 
Q 755 2131 755 1766 
Q 755 1402 918 1123 
Q 1082 845 1373 688 
Q 1664 531 2029 531 
z
" transform="scale(0.015625)"/>
       <path id="Montserrat-Regular-20" transform="scale(0.015625)"/>
       <path id="Montserrat-Regular-75" d="M 2022 -32 
Q 1594 -32 1274 128 
Q 954 288 778 608 
Q 602 928 602 1408 
L 602 3360 
L 1056 3360 
L 1056 1459 
Q 1056 922 1321 650 
Q 1587 378 2067 378 
Q 2419 378 2678 522 
Q 2938 666 3075 941 
Q 3213 1216 3213 1600 
L 3213 3360 
L 3667 3360 
L 3667 0 
L 3232 0 
L 3232 922 
L 3302 755 
Q 3142 384 2806 176 
Q 2470 -32 2022 -32 
z
" transform="scale(0.015625)"/>
       <path id="Montserrat-Regular-6d" d="M 4832 3392 
Q 5242 3392 5546 3235 
Q 5850 3078 6019 2758 
Q 6189 2438 6189 1952 
L 6189 0 
L 5734 0 
L 5734 1907 
Q 5734 2438 5481 2710 
Q 5229 2982 4768 2982 
Q 4422 2982 4169 2838 
Q 3917 2694 3779 2422 
Q 3642 2150 3642 1766 
L 3642 0 
L 3187 0 
L 3187 1907 
Q 3187 2438 2931 2710 
Q 2675 2982 2214 2982 
Q 1875 2982 1619 2838 
Q 1363 2694 1225 2422 
Q 1088 2150 1088 1766 
L 1088 0 
L 634 0 
L 634 3360 
L 1069 3360 
L 1069 2451 
L 998 2611 
Q 1152 2976 1494 3184 
Q 1837 3392 2304 3392 
Q 2797 3392 3142 3145 
Q 3488 2899 3590 2406 
L 3411 2477 
Q 3558 2886 3932 3139 
Q 4307 3392 4832 3392 
z
" transform="scale(0.015625)"/>
       <path id="Montserrat-Regular-62" d="M 2368 -32 
Q 1926 -32 1574 169 
Q 1222 371 1017 755 
Q 813 1139 813 1683 
Q 813 2234 1021 2614 
Q 1229 2995 1581 3193 
Q 1933 3392 2368 3392 
Q 2848 3392 3229 3177 
Q 3610 2963 3827 2579 
Q 4045 2195 4045 1683 
Q 4045 1178 3827 790 
Q 3610 403 3229 185 
Q 2848 -32 2368 -32 
z
M 634 0 
L 634 4749 
L 1088 4749 
L 1088 2368 
L 1024 1690 
L 1069 1011 
L 1069 0 
L 634 0 
z
M 2336 371 
Q 2694 371 2976 534 
Q 3258 698 3424 995 
Q 3590 1293 3590 1683 
Q 3590 2080 3424 2374 
Q 3258 2669 2976 2832 
Q 2694 2995 2336 2995 
Q 1978 2995 1693 2832 
Q 1408 2669 1245 2374 
Q 1082 2080 1082 1683 
Q 1082 1293 1245 995 
Q 1408 698 1693 534 
Q 1978 371 2336 371 
z
" transform="scale(0.015625)"/>
       <path id="Montserrat-Regular-72" d="M 634 0 
L 634 3360 
L 1069 3360 
L 1069 2445 
L 1024 2605 
Q 1165 2989 1497 3190 
Q 1830 3392 2323 3392 
L 2323 2950 
Q 2298 2950 2272 2953 
Q 2246 2957 2221 2957 
Q 1690 2957 1389 2633 
Q 1088 2310 1088 1715 
L 1088 0 
L 634 0 
z
" transform="scale(0.015625)"/>
       <path id="Montserrat-Regular-2c" d="M 358 -934 
L 640 250 
L 691 -26 
Q 544 -26 445 70 
Q 346 166 346 320 
Q 346 474 445 570 
Q 544 666 685 666 
Q 832 666 925 563 
Q 1018 461 1018 320 
Q 1018 269 1011 217 
Q 1005 166 985 102 
Q 966 38 934 -51 
L 666 -934 
L 358 -934 
z
" transform="scale(0.015625)"/>
       <path id="Cmsy10-53" d="M 116 794 
Q 116 1163 397 1453 
Q 519 1566 678 1644 
Q 838 1722 984 1722 
L 1025 1722 
Q 1069 1700 1069 1672 
Q 1069 1638 1047 1608 
Q 1025 1578 1003 1559 
Q 981 1541 934 1503 
Q 894 1472 845 1445 
Q 797 1419 778 1401 
Q 759 1384 738 1338 
Q 684 1206 684 1069 
Q 684 816 867 627 
Q 1050 438 1320 338 
Q 1591 238 1844 238 
Q 2169 238 2455 338 
Q 2741 438 2922 647 
Q 3103 856 3103 1184 
Q 3103 1384 3008 1543 
Q 2913 1703 2750 1828 
Q 2588 1953 2431 2033 
Q 2275 2113 2059 2209 
Q 1688 2381 1455 2598 
Q 1222 2816 1222 3128 
Q 1222 3513 1525 3831 
Q 1828 4150 2272 4331 
Q 2716 4513 3072 4513 
L 3109 4513 
Q 3325 4513 3558 4455 
Q 3791 4397 3950 4259 
Q 4109 4122 4109 3897 
Q 4109 3628 3975 3494 
Q 3750 3325 3578 3309 
L 3541 3309 
Q 3494 3331 3494 3366 
Q 3506 3422 3514 3447 
Q 3522 3472 3531 3522 
Q 3541 3572 3541 3616 
Q 3541 3897 3258 4015 
Q 2975 4134 2644 4134 
Q 2278 4134 2034 3943 
Q 1791 3753 1791 3413 
Q 1791 2931 2541 2584 
Q 2853 2447 3093 2308 
Q 3334 2169 3504 1959 
Q 3675 1750 3675 1466 
Q 3675 1003 3306 634 
Q 2938 266 2400 62 
Q 1863 -141 1416 -141 
L 1381 -141 
Q 1113 -141 813 -28 
Q 513 84 314 296 
Q 116 509 116 794 
z
" transform="scale(0.015625)"/>
       <path id="Cmr10-3d" d="M 481 850 
Q 428 850 393 890 
Q 359 931 359 978 
Q 359 1031 393 1068 
Q 428 1106 481 1106 
L 4500 1106 
Q 4547 1106 4581 1068 
Q 4616 1031 4616 978 
Q 4616 931 4581 890 
Q 4547 850 4500 850 
L 481 850 
z
M 481 2094 
Q 428 2094 393 2131 
Q 359 2169 359 2222 
Q 359 2269 393 2309 
Q 428 2350 481 2350 
L 4500 2350 
Q 4547 2350 4581 2309 
Q 4616 2269 4616 2222 
Q 4616 2169 4581 2131 
Q 4547 2094 4500 2094 
L 481 2094 
z
" transform="scale(0.015625)"/>
       <path id="Cmmi10-74" d="M 397 519 
Q 397 613 416 697 
L 878 2534 
L 206 2534 
Q 141 2534 141 2619 
Q 166 2759 225 2759 
L 934 2759 
L 1191 3803 
Q 1216 3888 1291 3947 
Q 1366 4006 1459 4006 
Q 1541 4006 1595 3957 
Q 1650 3909 1650 3828 
Q 1650 3809 1648 3798 
Q 1647 3788 1644 3775 
L 1388 2759 
L 2047 2759 
Q 2113 2759 2113 2675 
Q 2109 2659 2100 2621 
Q 2091 2584 2075 2559 
Q 2059 2534 2028 2534 
L 1331 2534 
L 872 684 
Q 825 503 825 372 
Q 825 97 1013 97 
Q 1294 97 1511 361 
Q 1728 625 1844 941 
Q 1869 978 1894 978 
L 1972 978 
Q 1997 978 2012 961 
Q 2028 944 2028 922 
Q 2028 909 2022 903 
Q 1881 516 1612 222 
Q 1344 -72 997 -72 
Q 744 -72 570 93 
Q 397 259 397 519 
z
" transform="scale(0.015625)"/>
       <path id="Cmr10-30" d="M 1600 -141 
Q 816 -141 533 504 
Q 250 1150 250 2041 
Q 250 2597 351 3087 
Q 453 3578 754 3920 
Q 1056 4263 1600 4263 
Q 2022 4263 2290 4056 
Q 2559 3850 2700 3523 
Q 2841 3197 2892 2823 
Q 2944 2450 2944 2041 
Q 2944 1491 2842 1011 
Q 2741 531 2444 195 
Q 2147 -141 1600 -141 
z
M 1600 25 
Q 1956 25 2131 390 
Q 2306 756 2347 1200 
Q 2388 1644 2388 2144 
Q 2388 2625 2347 3031 
Q 2306 3438 2132 3767 
Q 1959 4097 1600 4097 
Q 1238 4097 1063 3765 
Q 888 3434 847 3029 
Q 806 2625 806 2144 
Q 806 1788 823 1472 
Q 841 1156 916 820 
Q 991 484 1158 254 
Q 1325 25 1600 25 
z
" transform="scale(0.015625)"/>
       <path id="Cmmi10-3d" d="M 359 -1472 
Q 359 -1453 366 -1447 
L 2591 4722 
Q 2603 4759 2634 4779 
Q 2666 4800 2706 4800 
Q 2763 4800 2798 4765 
Q 2834 4731 2834 4672 
L 2834 4647 
L 609 -1522 
Q 572 -1600 488 -1600 
Q 434 -1600 396 -1562 
Q 359 -1525 359 -1472 
z
" transform="scale(0.015625)"/>
       <path id="Cmr10-73" d="M 213 -19 
L 213 1025 
Q 213 1075 269 1075 
L 347 1075 
Q 384 1075 397 1025 
Q 575 97 1259 97 
Q 1563 97 1767 234 
Q 1972 372 1972 659 
Q 1972 866 1812 1011 
Q 1653 1156 1434 1209 
L 1006 1294 
Q 791 1341 614 1437 
Q 438 1534 325 1695 
Q 213 1856 213 2069 
Q 213 2350 361 2529 
Q 509 2709 746 2789 
Q 984 2869 1259 2869 
Q 1588 2869 1831 2694 
L 2016 2853 
Q 2016 2869 2047 2869 
L 2094 2869 
Q 2113 2869 2128 2851 
Q 2144 2834 2144 2816 
L 2144 1978 
Q 2144 1919 2094 1919 
L 2016 1919 
Q 1959 1919 1959 1978 
Q 1959 2313 1773 2516 
Q 1588 2719 1253 2719 
Q 966 2719 755 2612 
Q 544 2506 544 2247 
Q 544 2069 695 1955 
Q 847 1841 1050 1791 
L 1484 1709 
Q 1703 1659 1892 1540 
Q 2081 1422 2192 1240 
Q 2303 1059 2303 831 
Q 2303 600 2223 429 
Q 2144 259 2001 146 
Q 1859 34 1665 -19 
Q 1472 -72 1259 -72 
Q 859 -72 575 197 
L 341 -56 
Q 341 -72 306 -72 
L 269 -72 
Q 213 -72 213 -19 
z
" transform="scale(0.015625)"/>
       <path id="Cmmi10-76" d="M 684 722 
Q 684 866 718 1037 
Q 753 1209 787 1320 
Q 822 1431 944 1753 
Q 1066 2075 1069 2088 
Q 1153 2322 1153 2472 
Q 1153 2663 1013 2663 
Q 759 2663 595 2402 
Q 431 2141 353 1819 
Q 341 1778 300 1778 
L 225 1778 
Q 172 1778 172 1838 
L 172 1856 
Q 275 2238 487 2533 
Q 700 2828 1025 2828 
Q 1253 2828 1411 2678 
Q 1569 2528 1569 2297 
Q 1569 2178 1516 2047 
Q 1391 1722 1319 1526 
Q 1247 1331 1186 1089 
Q 1125 847 1125 641 
Q 1125 400 1236 248 
Q 1347 97 1581 97 
Q 2025 97 2381 781 
Q 2494 1003 2594 1303 
Q 2694 1603 2694 1791 
Q 2694 1984 2631 2092 
Q 2569 2200 2469 2317 
Q 2369 2434 2369 2503 
Q 2369 2628 2472 2731 
Q 2575 2834 2700 2834 
Q 2853 2834 2920 2693 
Q 2988 2553 2988 2375 
Q 2988 2163 2927 1869 
Q 2866 1575 2758 1259 
Q 2650 944 2559 763 
Q 2138 -72 1575 -72 
Q 1172 -72 928 129 
Q 684 331 684 722 
z
" transform="scale(0.015625)"/>
       <path id="Cmmi10-75" d="M 678 697 
Q 678 906 734 1126 
Q 791 1347 892 1617 
Q 994 1888 1069 2088 
Q 1153 2322 1153 2472 
Q 1153 2663 1013 2663 
Q 759 2663 595 2402 
Q 431 2141 353 1819 
Q 341 1778 300 1778 
L 225 1778 
Q 172 1778 172 1838 
L 172 1856 
Q 275 2238 487 2533 
Q 700 2828 1025 2828 
Q 1253 2828 1411 2678 
Q 1569 2528 1569 2297 
Q 1569 2178 1516 2047 
Q 1488 1969 1388 1706 
Q 1288 1444 1234 1272 
Q 1181 1100 1147 934 
Q 1113 769 1113 603 
Q 1113 391 1203 244 
Q 1294 97 1497 97 
Q 1906 97 2216 603 
Q 2222 628 2226 651 
Q 2231 675 2234 697 
L 2694 2553 
Q 2716 2638 2794 2698 
Q 2872 2759 2963 2759 
Q 3041 2759 3098 2709 
Q 3156 2659 3156 2578 
Q 3156 2541 3150 2528 
L 2688 684 
Q 2644 494 2644 372 
Q 2644 97 2828 97 
Q 3034 97 3136 351 
Q 3238 606 3309 941 
Q 3322 978 3359 978 
L 3438 978 
Q 3463 978 3478 956 
Q 3494 934 3494 916 
Q 3425 641 3361 444 
Q 3297 247 3159 87 
Q 3022 -72 2816 -72 
Q 2613 -72 2452 39 
Q 2291 150 2234 341 
Q 2088 153 1894 40 
Q 1700 -72 1484 -72 
Q 1116 -72 897 129 
Q 678 331 678 697 
z
" transform="scale(0.015625)"/>
      </defs>
      <use xlink:href="#Montserrat-Regular-53"/>
      <use xlink:href="#Montserrat-Regular-65" transform="translate(61.499985 0)"/>
      <use xlink:href="#Montserrat-Regular-74" transform="translate(121.899979 0)"/>
      <use xlink:href="#Montserrat-Regular-74" transform="translate(162.499969 0)"/>
      <use xlink:href="#Montserrat-Regular-6c" transform="translate(203.09996 0)"/>
      <use xlink:href="#Montserrat-Regular-69" transform="translate(229.999954 0)"/>
      <use xlink:href="#Montserrat-Regular-6e" transform="translate(256.899948 0)"/>
      <use xlink:href="#Montserrat-Regular-67" transform="translate(324.499939 0)"/>
      <use xlink:href="#Montserrat-Regular-20" transform="translate(392.999924 0)"/>
      <use xlink:href="#Montserrat-Regular-6e" transform="translate(419.199921 0)"/>
      <use xlink:href="#Montserrat-Regular-75" transform="translate(486.799911 0)"/>
      <use xlink:href="#Montserrat-Regular-6d" transform="translate(553.999908 0)"/>
      <use xlink:href="#Montserrat-Regular-62" transform="translate(660.099899 0)"/>
      <use xlink:href="#Montserrat-Regular-65" transform="translate(727.899887 0)"/>
      <use xlink:href="#Montserrat-Regular-72" transform="translate(788.299881 0)"/>
      <use xlink:href="#Montserrat-Regular-2c" transform="translate(828.399872 0)"/>
      <use xlink:href="#Montserrat-Regular-20" transform="translate(849.599869 0)"/>
      <use xlink:href="#Cmsy10-53" transform="translate(875.799866 0)"/>
      <use xlink:href="#Cmr10-3d" transform="translate(953.856506 0)"/>
      <use xlink:href="#Cmmi10-74" transform="translate(1049.100647 0)"/>
      <use xlink:href="#Cmr10-30" transform="translate(1085.184631 -17.00625) scale(0.7)"/>
      <use xlink:href="#Cmmi10-3d" transform="translate(1126.561975 0)"/>
      <use xlink:href="#Cmmi10-74" transform="translate(1176.561975 0)"/>
      <use xlink:href="#Cmr10-73" transform="translate(1212.645959 -17.00625) scale(0.7)"/>
      <use xlink:href="#Cmr10-3d" transform="translate(1264.164905 0)"/>
      <use xlink:href="#Cmmi10-76" transform="translate(1359.409045 0)"/>
      <use xlink:href="#Cmr10-73" transform="translate(1407.797717 -17.00625) scale(0.7)"/>
      <use xlink:href="#Cmmi10-3d" transform="translate(1441.758069 0)"/>
      <use xlink:href="#Cmmi10-75" transform="translate(1491.758069 0)"/>
      <use xlink:href="#Cmr10-30" transform="translate(1548.935803 -17.00625) scale(0.7)"/>
     </g>
    </g>
   </g>
   <g id="matplotlib.axis_2">
    <g id="ytick_1">
     <g id="line2d_36">
      <defs>
       <path id="m78d1353890" d="M 0 0 
L 2.5 0 
" style="stroke: #000000; stroke-width: 0.8"/>
      </defs>
      <g>
       <use xlink:href="#m78d1353890" x="37.70024" y="230.064998" style="stroke: #000000; stroke-width: 0.8"/>
      </g>
     </g>
     <g id="line2d_37">
      <defs>
       <path id="m6c3fb7d455" d="M 0 0 
L -2.5 0 
" style="stroke: #000000; stroke-width: 0.8"/>
      </defs>
      <g>
       <use xlink:href="#m6c3fb7d455" x="323.687011" y="230.064998" style="stroke: #000000; stroke-width: 0.8"/>
      </g>
     </g>
     <g id="text_4">
      <!-- $\mathdefault{10^{-1}}$ -->
      <g transform="translate(17.00024 233.775154) scale(0.1 -0.1)">
       <use xlink:href="#Montserrat-Regular-31" transform="translate(0 0.25)"/>
       <use xlink:href="#Montserrat-Regular-30" transform="translate(36.099991 0.25)"/>
       <use xlink:href="#Montserrat-Regular-2212" transform="translate(103.218738 37) scale(0.7)"/>
       <use xlink:href="#Montserrat-Regular-31" transform="translate(143.468727 37) scale(0.7)"/>
      </g>
     </g>
    </g>
    <g id="ytick_2">
     <g id="line2d_38">
      <g>
       <use xlink:href="#m78d1353890" x="37.70024" y="43.56171" style="stroke: #000000; stroke-width: 0.8"/>
      </g>
     </g>
     <g id="line2d_39">
      <g>
       <use xlink:href="#m6c3fb7d455" x="323.687011" y="43.56171" style="stroke: #000000; stroke-width: 0.8"/>
      </g>
     </g>
     <g id="text_5">
      <!-- $\mathdefault{10^{0}}$ -->
      <g transform="translate(18.90024 47.271867) scale(0.1 -0.1)">
       <use xlink:href="#Montserrat-Regular-31" transform="translate(0 0.834375)"/>
       <use xlink:href="#Montserrat-Regular-30" transform="translate(36.099991 0.834375)"/>
       <use xlink:href="#Montserrat-Regular-30" transform="translate(103.218738 37.584375) scale(0.7)"/>
      </g>
     </g>
    </g>
    <g id="ytick_3">
     <g id="line2d_40">
      <defs>
       <path id="mf3949e6336" d="M 0 0 
L 2 0 
" style="stroke: #000000; stroke-width: 0.6"/>
      </defs>
      <g>
       <use xlink:href="#mf3949e6336" x="37.70024" y="173.921914" style="stroke: #000000; stroke-width: 0.6"/>
      </g>
     </g>
     <g id="line2d_41">
      <defs>
       <path id="m8eaa373e76" d="M 0 0 
L -2 0 
" style="stroke: #000000; stroke-width: 0.6"/>
      </defs>
      <g>
       <use xlink:href="#m8eaa373e76" x="323.687011" y="173.921914" style="stroke: #000000; stroke-width: 0.6"/>
      </g>
     </g>
    </g>
    <g id="ytick_4">
     <g id="line2d_42">
      <g>
       <use xlink:href="#mf3949e6336" x="37.70024" y="141.080315" style="stroke: #000000; stroke-width: 0.6"/>
      </g>
     </g>
     <g id="line2d_43">
      <g>
       <use xlink:href="#m8eaa373e76" x="323.687011" y="141.080315" style="stroke: #000000; stroke-width: 0.6"/>
      </g>
     </g>
    </g>
    <g id="ytick_5">
     <g id="line2d_44">
      <g>
       <use xlink:href="#mf3949e6336" x="37.70024" y="117.77883" style="stroke: #000000; stroke-width: 0.6"/>
      </g>
     </g>
     <g id="line2d_45">
      <g>
       <use xlink:href="#m8eaa373e76" x="323.687011" y="117.77883" style="stroke: #000000; stroke-width: 0.6"/>
      </g>
     </g>
    </g>
    <g id="ytick_6">
     <g id="line2d_46">
      <g>
       <use xlink:href="#mf3949e6336" x="37.70024" y="99.704794" style="stroke: #000000; stroke-width: 0.6"/>
      </g>
     </g>
     <g id="line2d_47">
      <g>
       <use xlink:href="#m8eaa373e76" x="323.687011" y="99.704794" style="stroke: #000000; stroke-width: 0.6"/>
      </g>
     </g>
    </g>
    <g id="ytick_7">
     <g id="line2d_48">
      <g>
       <use xlink:href="#mf3949e6336" x="37.70024" y="84.937232" style="stroke: #000000; stroke-width: 0.6"/>
      </g>
     </g>
     <g id="line2d_49">
      <g>
       <use xlink:href="#m8eaa373e76" x="323.687011" y="84.937232" style="stroke: #000000; stroke-width: 0.6"/>
      </g>
     </g>
    </g>
    <g id="ytick_8">
     <g id="line2d_50">
      <g>
       <use xlink:href="#mf3949e6336" x="37.70024" y="72.451435" style="stroke: #000000; stroke-width: 0.6"/>
      </g>
     </g>
     <g id="line2d_51">
      <g>
       <use xlink:href="#m8eaa373e76" x="323.687011" y="72.451435" style="stroke: #000000; stroke-width: 0.6"/>
      </g>
     </g>
    </g>
    <g id="ytick_9">
     <g id="line2d_52">
      <g>
       <use xlink:href="#mf3949e6336" x="37.70024" y="61.635746" style="stroke: #000000; stroke-width: 0.6"/>
      </g>
     </g>
     <g id="line2d_53">
      <g>
       <use xlink:href="#m8eaa373e76" x="323.687011" y="61.635746" style="stroke: #000000; stroke-width: 0.6"/>
      </g>
     </g>
    </g>
    <g id="ytick_10">
     <g id="line2d_54">
      <g>
       <use xlink:href="#mf3949e6336" x="37.70024" y="52.095633" style="stroke: #000000; stroke-width: 0.6"/>
      </g>
     </g>
     <g id="line2d_55">
      <g>
       <use xlink:href="#m8eaa373e76" x="323.687011" y="52.095633" style="stroke: #000000; stroke-width: 0.6"/>
      </g>
     </g>
    </g>
    <g id="text_6">
     <!-- Regime duration, $t_{\rm end}/t_{\rm s}$ -->
     <g transform="translate(10.50024 175.132619) rotate(-90) scale(0.1 -0.1)">
      <defs>
       <path id="Montserrat-Regular-52" d="M 730 0 
L 730 4480 
L 2406 4480 
Q 2976 4480 3385 4297 
Q 3795 4115 4016 3772 
Q 4237 3430 4237 2944 
Q 4237 2470 4016 2128 
Q 3795 1786 3385 1603 
Q 2976 1421 2406 1421 
L 992 1421 
L 1203 1638 
L 1203 0 
L 730 0 
z
M 3789 0 
L 2637 1626 
L 3149 1626 
L 4307 0 
L 3789 0 
z
M 1203 1600 
L 992 1824 
L 2394 1824 
Q 3066 1824 3414 2118 
Q 3763 2413 3763 2944 
Q 3763 3482 3414 3776 
Q 3066 4070 2394 4070 
L 992 4070 
L 1203 4294 
L 1203 1600 
z
" transform="scale(0.015625)"/>
       <path id="Montserrat-Regular-64" d="M 1971 -32 
Q 1491 -32 1110 185 
Q 730 403 512 790 
Q 294 1178 294 1683 
Q 294 2195 512 2579 
Q 730 2963 1110 3177 
Q 1491 3392 1971 3392 
Q 2413 3392 2761 3193 
Q 3110 2995 3318 2614 
Q 3526 2234 3526 1683 
Q 3526 1139 3321 755 
Q 3117 371 2768 169 
Q 2419 -32 1971 -32 
z
M 2003 371 
Q 2362 371 2646 534 
Q 2931 698 3094 995 
Q 3258 1293 3258 1683 
Q 3258 2080 3094 2374 
Q 2931 2669 2646 2832 
Q 2362 2995 2003 2995 
Q 1651 2995 1369 2832 
Q 1088 2669 921 2374 
Q 755 2080 755 1683 
Q 755 1293 921 995 
Q 1088 698 1369 534 
Q 1651 371 2003 371 
z
M 3270 0 
L 3270 1011 
L 3315 1690 
L 3251 2368 
L 3251 4749 
L 3706 4749 
L 3706 0 
L 3270 0 
z
" transform="scale(0.015625)"/>
       <path id="Montserrat-Regular-61" d="M 2739 0 
L 2739 742 
L 2720 864 
L 2720 2106 
Q 2720 2534 2480 2764 
Q 2240 2995 1766 2995 
Q 1440 2995 1145 2886 
Q 851 2778 646 2598 
L 442 2938 
Q 698 3155 1056 3273 
Q 1414 3392 1811 3392 
Q 2464 3392 2819 3069 
Q 3174 2746 3174 2086 
L 3174 0 
L 2739 0 
z
M 1581 -32 
Q 1203 -32 924 93 
Q 646 218 499 438 
Q 352 659 352 947 
Q 352 1210 477 1424 
Q 602 1638 886 1769 
Q 1171 1901 1651 1901 
L 2810 1901 
L 2810 1562 
L 1664 1562 
Q 1178 1562 989 1389 
Q 800 1216 800 960 
Q 800 672 1024 499 
Q 1248 326 1651 326 
Q 2035 326 2313 502 
Q 2592 678 2720 1011 
L 2822 698 
Q 2694 365 2377 166 
Q 2061 -32 1581 -32 
z
" transform="scale(0.015625)"/>
       <path id="Montserrat-Regular-6f" d="M 2003 -32 
Q 1517 -32 1129 189 
Q 742 410 518 797 
Q 294 1184 294 1683 
Q 294 2189 518 2573 
Q 742 2957 1126 3174 
Q 1510 3392 2003 3392 
Q 2502 3392 2889 3174 
Q 3277 2957 3497 2573 
Q 3718 2189 3718 1683 
Q 3718 1184 3497 797 
Q 3277 410 2886 189 
Q 2496 -32 2003 -32 
z
M 2003 371 
Q 2368 371 2649 534 
Q 2931 698 3094 995 
Q 3258 1293 3258 1683 
Q 3258 2080 3094 2374 
Q 2931 2669 2649 2832 
Q 2368 2995 2010 2995 
Q 1651 2995 1369 2832 
Q 1088 2669 921 2374 
Q 755 2080 755 1683 
Q 755 1293 921 995 
Q 1088 698 1369 534 
Q 1651 371 2003 371 
z
" transform="scale(0.015625)"/>
       <path id="Cmr10-65" d="M 1594 -72 
Q 1203 -72 876 133 
Q 550 338 364 680 
Q 178 1022 178 1403 
Q 178 1778 348 2115 
Q 519 2453 823 2661 
Q 1128 2869 1503 2869 
Q 1797 2869 2014 2770 
Q 2231 2672 2372 2497 
Q 2513 2322 2584 2084 
Q 2656 1847 2656 1563 
Q 2656 1478 2591 1478 
L 738 1478 
L 738 1409 
Q 738 878 952 497 
Q 1166 116 1650 116 
Q 1847 116 2014 203 
Q 2181 291 2304 447 
Q 2428 603 2472 781 
Q 2478 803 2495 820 
Q 2513 838 2534 838 
L 2591 838 
Q 2656 838 2656 756 
Q 2566 394 2266 161 
Q 1966 -72 1594 -72 
z
M 744 1638 
L 2203 1638 
Q 2203 1878 2136 2125 
Q 2069 2372 1912 2536 
Q 1756 2700 1503 2700 
Q 1141 2700 942 2361 
Q 744 2022 744 1638 
z
" transform="scale(0.015625)"/>
       <path id="Cmr10-6e" d="M 191 0 
L 191 225 
Q 409 225 550 259 
Q 691 294 691 428 
L 691 2175 
Q 691 2347 639 2423 
Q 588 2500 491 2517 
Q 394 2534 191 2534 
L 191 2759 
L 1119 2828 
L 1119 2203 
Q 1247 2478 1498 2653 
Q 1750 2828 2047 2828 
Q 2491 2828 2714 2615 
Q 2938 2403 2938 1966 
L 2938 428 
Q 2938 294 3078 259 
Q 3219 225 3438 225 
L 3438 0 
L 1972 0 
L 1972 225 
Q 2191 225 2331 259 
Q 2472 294 2472 428 
L 2472 1947 
Q 2472 2259 2381 2461 
Q 2291 2663 2009 2663 
Q 1638 2663 1398 2366 
Q 1159 2069 1159 1691 
L 1159 428 
Q 1159 294 1300 259 
Q 1441 225 1656 225 
L 1656 0 
L 191 0 
z
" transform="scale(0.015625)"/>
       <path id="Cmr10-64" d="M 1563 -72 
Q 1184 -72 871 133 
Q 559 338 386 672 
Q 213 1006 213 1381 
Q 213 1769 402 2101 
Q 591 2434 916 2631 
Q 1241 2828 1631 2828 
Q 1866 2828 2075 2729 
Q 2284 2631 2438 2456 
L 2438 3788 
Q 2438 3959 2386 4036 
Q 2334 4113 2239 4130 
Q 2144 4147 1941 4147 
L 1941 4372 
L 2888 4441 
L 2888 581 
Q 2888 413 2939 336 
Q 2991 259 3086 242 
Q 3181 225 3384 225 
L 3384 0 
L 2419 -72 
L 2419 331 
Q 2253 141 2025 34 
Q 1797 -72 1563 -72 
z
M 909 556 
Q 1019 347 1201 222 
Q 1384 97 1600 97 
Q 1866 97 2087 250 
Q 2309 403 2419 647 
L 2419 2181 
Q 2344 2322 2230 2433 
Q 2116 2544 1973 2603 
Q 1831 2663 1672 2663 
Q 1338 2663 1134 2473 
Q 931 2284 850 1990 
Q 769 1697 769 1375 
Q 769 1119 795 928 
Q 822 738 909 556 
z
" transform="scale(0.015625)"/>
      </defs>
      <use xlink:href="#Montserrat-Regular-52"/>
      <use xlink:href="#Montserrat-Regular-65" transform="translate(72.299988 0)"/>
      <use xlink:href="#Montserrat-Regular-67" transform="translate(132.699982 0)"/>
      <use xlink:href="#Montserrat-Regular-69" transform="translate(201.199966 0)"/>
      <use xlink:href="#Montserrat-Regular-6d" transform="translate(228.09996 0)"/>
      <use xlink:href="#Montserrat-Regular-65" transform="translate(334.199951 0)"/>
      <use xlink:href="#Montserrat-Regular-20" transform="translate(394.599945 0)"/>
      <use xlink:href="#Montserrat-Regular-64" transform="translate(420.799942 0)"/>
      <use xlink:href="#Montserrat-Regular-75" transform="translate(488.59993 0)"/>
      <use xlink:href="#Montserrat-Regular-72" transform="translate(555.799927 0)"/>
      <use xlink:href="#Montserrat-Regular-61" transform="translate(595.899918 0)"/>
      <use xlink:href="#Montserrat-Regular-74" transform="translate(654.899902 0)"/>
      <use xlink:href="#Montserrat-Regular-69" transform="translate(695.499893 0)"/>
      <use xlink:href="#Montserrat-Regular-6f" transform="translate(722.399887 0)"/>
      <use xlink:href="#Montserrat-Regular-6e" transform="translate(785.099884 0)"/>
      <use xlink:href="#Montserrat-Regular-2c" transform="translate(852.699875 0)"/>
      <use xlink:href="#Montserrat-Regular-20" transform="translate(873.899872 0)"/>
      <use xlink:href="#Cmmi10-74" transform="translate(900.099869 0)"/>
      <use xlink:href="#Cmr10-65" transform="translate(936.183853 -17.00625) scale(0.7)"/>
      <use xlink:href="#Cmr10-6e" transform="translate(967.253189 -17.00625) scale(0.7)"/>
      <use xlink:href="#Cmr10-64" transform="translate(1006.115494 -17.00625) scale(0.7)"/>
      <use xlink:href="#Cmmi10-3d" transform="translate(1051.355142 0)"/>
      <use xlink:href="#Cmmi10-74" transform="translate(1101.355142 0)"/>
      <use xlink:href="#Cmr10-73" transform="translate(1137.439127 -17.00625) scale(0.7)"/>
     </g>
    </g>
   </g>
   <g id="LineCollection_1">
    <path d="M 154.151211 98.743606 
L 185.450407 98.743606 
" clip-path="url(#p6e9c6e5277)" style="fill: none; stroke: #ff800e; stroke-width: 1.5"/>
    <path d="M 110.939232 132.514439 
L 142.03775 132.514439 
" clip-path="url(#p6e9c6e5277)" style="fill: none; stroke: #ff800e; stroke-width: 1.5"/>
    <path d="M 90.638166 152.859116 
L 121.727642 152.859116 
" clip-path="url(#p6e9c6e5277)" style="fill: none; stroke: #ff800e; stroke-width: 1.5"/>
    <path d="M 182.41547 84.646086 
L 213.998887 84.646086 
" clip-path="url(#p6e9c6e5277)" style="fill: none; stroke: #ff800e; stroke-width: 1.5"/>
    <path d="M 139.124143 117.358399 
L 170.265873 117.358399 
" clip-path="url(#p6e9c6e5277)" style="fill: none; stroke: #ff800e; stroke-width: 1.5"/>
    <path d="M 55.774001 195.30969 
L 86.859088 195.30969 
" clip-path="url(#p6e9c6e5277)" style="fill: none; stroke: #ff800e; stroke-width: 1.5"/>
    <path d="M 127.0839 117.423016 
L 158.199818 117.423016 
" clip-path="url(#p6e9c6e5277)" style="fill: none; stroke: #ff800e; stroke-width: 1.5"/>
    <path d="M 138.608608 111.323561 
L 169.748884 111.323561 
" clip-path="url(#p6e9c6e5277)" style="fill: none; stroke: #ff800e; stroke-width: 1.5"/>
    <path d="M 62.699828 190.708198 
L 93.785316 190.708198 
" clip-path="url(#p6e9c6e5277)" style="fill: none; stroke: #ff800e; stroke-width: 1.5"/>
    <path d="M 196.088904 66.039001 
L 228.169924 66.039001 
" clip-path="url(#p6e9c6e5277)" style="fill: none; stroke: #ff800e; stroke-width: 1.5"/>
    <path d="M 211.558287 61.766209 
L 244.848138 61.766209 
" clip-path="url(#p6e9c6e5277)" style="fill: none; stroke: #ff800e; stroke-width: 1.5"/>
    <path d="M 46.920781 204.239136 
L 78.005512 204.239136 
" clip-path="url(#p6e9c6e5277)" style="fill: none; stroke: #ff800e; stroke-width: 1.5"/>
    <path d="M 169.739844 89.306216 
L 201.088267 89.306216 
" clip-path="url(#p6e9c6e5277)" style="fill: none; stroke: #ff800e; stroke-width: 1.5"/>
    <path d="M 90.708714 170.086569 
L 121.798208 170.086569 
" clip-path="url(#p6e9c6e5277)" style="fill: none; stroke: #ff800e; stroke-width: 1.5"/>
    <path d="M 211.237711 60.220289 
L 244.491114 60.220289 
" clip-path="url(#p6e9c6e5277)" style="fill: none; stroke: #ff800e; stroke-width: 1.5"/>
    <path d="M 197.698389 83.958936 
L 229.864494 83.958936 
" clip-path="url(#p6e9c6e5277)" style="fill: none; stroke: #ff800e; stroke-width: 1.5"/>
    <path d="M 183.087272 85.906601 
L 214.687879 85.906601 
" clip-path="url(#p6e9c6e5277)" style="fill: none; stroke: #ff800e; stroke-width: 1.5"/>
   </g>
   <g id="LineCollection_2">
    <path d="M 171.329702 117.538283 
L 171.329702 83.499154 
" clip-path="url(#p6e9c6e5277)" style="fill: none; stroke: #ff800e; stroke-width: 1.5"/>
    <path d="M 127.997964 151.309116 
L 127.997964 117.269987 
" clip-path="url(#p6e9c6e5277)" style="fill: none; stroke: #ff800e; stroke-width: 1.5"/>
    <path d="M 107.691505 171.653793 
L 107.691505 137.614664 
" clip-path="url(#p6e9c6e5277)" style="fill: none; stroke: #ff800e; stroke-width: 1.5"/>
    <path d="M 199.763785 103.440762 
L 199.763785 69.401633 
" clip-path="url(#p6e9c6e5277)" style="fill: none; stroke: #ff800e; stroke-width: 1.5"/>
    <path d="M 156.208653 136.153076 
L 156.208653 102.113947 
" clip-path="url(#p6e9c6e5277)" style="fill: none; stroke: #ff800e; stroke-width: 1.5"/>
    <path d="M 72.824723 214.104367 
L 72.824723 180.065238 
" clip-path="url(#p6e9c6e5277)" style="fill: none; stroke: #ff800e; stroke-width: 1.5"/>
    <path d="M 144.153011 136.217693 
L 144.153011 102.178564 
" clip-path="url(#p6e9c6e5277)" style="fill: none; stroke: #ff800e; stroke-width: 1.5"/>
    <path d="M 155.69225 130.118237 
L 155.69225 96.079108 
" clip-path="url(#p6e9c6e5277)" style="fill: none; stroke: #ff800e; stroke-width: 1.5"/>
    <path d="M 79.750788 209.502875 
L 79.750788 175.463746 
" clip-path="url(#p6e9c6e5277)" style="fill: none; stroke: #ff800e; stroke-width: 1.5"/>
    <path d="M 213.735126 84.833678 
L 213.735126 50.794549 
" clip-path="url(#p6e9c6e5277)" style="fill: none; stroke: #ff800e; stroke-width: 1.5"/>
    <path d="M 229.931327 80.560886 
L 229.931327 46.521757 
" clip-path="url(#p6e9c6e5277)" style="fill: none; stroke: #ff800e; stroke-width: 1.5"/>
    <path d="M 63.97129 223.033812 
L 63.97129 188.994683 
" clip-path="url(#p6e9c6e5277)" style="fill: none; stroke: #ff800e; stroke-width: 1.5"/>
    <path d="M 186.947731 108.100893 
L 186.947731 74.061764 
" clip-path="url(#p6e9c6e5277)" style="fill: none; stroke: #ff800e; stroke-width: 1.5"/>
    <path d="M 107.762064 188.881245 
L 107.762064 154.842116 
" clip-path="url(#p6e9c6e5277)" style="fill: none; stroke: #ff800e; stroke-width: 1.5"/>
    <path d="M 229.588772 79.014965 
L 229.588772 44.975836 
" clip-path="url(#p6e9c6e5277)" style="fill: none; stroke: #ff800e; stroke-width: 1.5"/>
    <path d="M 215.395625 102.753612 
L 215.395625 68.714483 
" clip-path="url(#p6e9c6e5277)" style="fill: none; stroke: #ff800e; stroke-width: 1.5"/>
    <path d="M 200.445865 104.701278 
L 200.445865 70.662149 
" clip-path="url(#p6e9c6e5277)" style="fill: none; stroke: #ff800e; stroke-width: 1.5"/>
   </g>
   <g id="LineCollection_3">
    <path d="M 180.88308 101.531655 
L 207.787876 101.531655 
" clip-path="url(#p6e9c6e5277)" style="fill: none; stroke: #3d4389; stroke-width: 1.5"/>
    <path d="M 219.203867 62.7229 
L 246.273348 62.7229 
" clip-path="url(#p6e9c6e5277)" style="fill: none; stroke: #3d4389; stroke-width: 1.5"/>
    <path d="M 149.736659 125.247026 
L 176.619119 125.247026 
" clip-path="url(#p6e9c6e5277)" style="fill: none; stroke: #3d4389; stroke-width: 1.5"/>
    <path d="M 122.579402 122.473432 
L 149.457407 122.473432 
" clip-path="url(#p6e9c6e5277)" style="fill: none; stroke: #3d4389; stroke-width: 1.5"/>
    <path d="M 133.076096 120.102608 
L 159.955171 120.102608 
" clip-path="url(#p6e9c6e5277)" style="fill: none; stroke: #3d4389; stroke-width: 1.5"/>
    <path d="M 181.554057 75.132031 
L 208.459819 75.132031 
" clip-path="url(#p6e9c6e5277)" style="fill: none; stroke: #3d4389; stroke-width: 1.5"/>
    <path d="M 231.288978 71.547105 
L 258.51987 71.547105 
" clip-path="url(#p6e9c6e5277)" style="fill: none; stroke: #3d4389; stroke-width: 1.5"/>
    <path d="M 141.026741 120.571254 
L 167.907089 120.571254 
" clip-path="url(#p6e9c6e5277)" style="fill: none; stroke: #3d4389; stroke-width: 1.5"/>
    <path d="M 167.933667 99.57392 
L 194.824978 99.57392 
" clip-path="url(#p6e9c6e5277)" style="fill: none; stroke: #3d4389; stroke-width: 1.5"/>
    <path d="M 181.554057 103.031648 
L 208.459819 103.031648 
" clip-path="url(#p6e9c6e5277)" style="fill: none; stroke: #3d4389; stroke-width: 1.5"/>
    <path d="M 231.288978 61.883542 
L 258.51987 61.883542 
" clip-path="url(#p6e9c6e5277)" style="fill: none; stroke: #3d4389; stroke-width: 1.5"/>
    <path d="M 241.99423 60.603222 
L 269.478934 60.603222 
" clip-path="url(#p6e9c6e5277)" style="fill: none; stroke: #3d4389; stroke-width: 1.5"/>
    <path d="M 256.576045 74.508628 
L 284.727557 74.508628 
" clip-path="url(#p6e9c6e5277)" style="fill: none; stroke: #3d4389; stroke-width: 1.5"/>
    <path d="M 287.217375 15.147836 
L 320.477851 15.147836 
" clip-path="url(#p6e9c6e5277)" style="fill: none; stroke: #3d4389; stroke-width: 1.5"/>
    <path d="M 114.281566 135.307489 
L 141.159042 135.307489 
" clip-path="url(#p6e9c6e5277)" style="fill: none; stroke: #3d4389; stroke-width: 1.5"/>
    <path d="M 133.076096 124.750616 
L 159.955171 124.750616 
" clip-path="url(#p6e9c6e5277)" style="fill: none; stroke: #3d4389; stroke-width: 1.5"/>
    <path d="M 133.076096 112.66644 
L 159.955171 112.66644 
" clip-path="url(#p6e9c6e5277)" style="fill: none; stroke: #3d4389; stroke-width: 1.5"/>
    <path d="M 195.128397 96.723279 
L 222.062607 96.723279 
" clip-path="url(#p6e9c6e5277)" style="fill: none; stroke: #3d4389; stroke-width: 1.5"/>
    <path d="M 256.576045 48.352604 
L 284.727557 48.352604 
" clip-path="url(#p6e9c6e5277)" style="fill: none; stroke: #3d4389; stroke-width: 1.5"/>
    <path d="M 88.14696 164.925345 
L 115.023673 164.925345 
" clip-path="url(#p6e9c6e5277)" style="fill: none; stroke: #3d4389; stroke-width: 1.5"/>
   </g>
   <g id="LineCollection_4">
    <path d="M 195.467076 117.952607 
L 195.467076 87.885194 
" clip-path="url(#p6e9c6e5277)" style="fill: none; stroke: #3d4389; stroke-width: 1.5"/>
    <path d="M 233.884034 79.143852 
L 233.884034 49.076439 
" clip-path="url(#p6e9c6e5277)" style="fill: none; stroke: #3d4389; stroke-width: 1.5"/>
    <path d="M 164.307617 141.667978 
L 164.307617 111.600565 
" clip-path="url(#p6e9c6e5277)" style="fill: none; stroke: #3d4389; stroke-width: 1.5"/>
    <path d="M 137.14776 138.894384 
L 137.14776 108.826971 
" clip-path="url(#p6e9c6e5277)" style="fill: none; stroke: #3d4389; stroke-width: 1.5"/>
    <path d="M 147.645079 136.52356 
L 147.645079 106.456148 
" clip-path="url(#p6e9c6e5277)" style="fill: none; stroke: #3d4389; stroke-width: 1.5"/>
    <path d="M 196.138616 91.552983 
L 196.138616 61.48557 
" clip-path="url(#p6e9c6e5277)" style="fill: none; stroke: #3d4389; stroke-width: 1.5"/>
    <path d="M 246.063485 87.968057 
L 246.063485 57.900644 
" clip-path="url(#p6e9c6e5277)" style="fill: none; stroke: #3d4389; stroke-width: 1.5"/>
    <path d="M 155.596467 136.992206 
L 155.596467 106.924793 
" clip-path="url(#p6e9c6e5277)" style="fill: none; stroke: #3d4389; stroke-width: 1.5"/>
    <path d="M 182.509792 115.994872 
L 182.509792 85.927459 
" clip-path="url(#p6e9c6e5277)" style="fill: none; stroke: #3d4389; stroke-width: 1.5"/>
    <path d="M 196.138616 119.4526 
L 196.138616 89.385188 
" clip-path="url(#p6e9c6e5277)" style="fill: none; stroke: #3d4389; stroke-width: 1.5"/>
    <path d="M 246.063485 78.304494 
L 246.063485 48.237081 
" clip-path="url(#p6e9c6e5277)" style="fill: none; stroke: #3d4389; stroke-width: 1.5"/>
    <path d="M 256.917244 77.024174 
L 256.917244 46.956762 
" clip-path="url(#p6e9c6e5277)" style="fill: none; stroke: #3d4389; stroke-width: 1.5"/>
    <path d="M 271.890147 90.92958 
L 271.890147 60.862168 
" clip-path="url(#p6e9c6e5277)" style="fill: none; stroke: #3d4389; stroke-width: 1.5"/>
    <path d="M 305.572701 31.568788 
L 305.572701 1.501375 
" clip-path="url(#p6e9c6e5277)" style="fill: none; stroke: #3d4389; stroke-width: 1.5"/>
    <path d="M 128.849615 151.728441 
L 128.849615 121.661028 
" clip-path="url(#p6e9c6e5277)" style="fill: none; stroke: #3d4389; stroke-width: 1.5"/>
    <path d="M 147.645079 141.171568 
L 147.645079 111.104155 
" clip-path="url(#p6e9c6e5277)" style="fill: none; stroke: #3d4389; stroke-width: 1.5"/>
    <path d="M 147.645079 129.087392 
L 147.645079 99.01998 
" clip-path="url(#p6e9c6e5277)" style="fill: none; stroke: #3d4389; stroke-width: 1.5"/>
    <path d="M 209.729563 113.144231 
L 209.729563 83.076818 
" clip-path="url(#p6e9c6e5277)" style="fill: none; stroke: #3d4389; stroke-width: 1.5"/>
    <path d="M 271.890147 64.773556 
L 271.890147 34.706143 
" clip-path="url(#p6e9c6e5277)" style="fill: none; stroke: #3d4389; stroke-width: 1.5"/>
    <path d="M 102.714564 181.346297 
L 102.714564 151.278885 
" clip-path="url(#p6e9c6e5277)" style="fill: none; stroke: #3d4389; stroke-width: 1.5"/>
   </g>
   <g id="LineCollection_5">
    <path d="M 238.956521 41.259242 
L 272.84728 41.259242 
" clip-path="url(#p6e9c6e5277)" style="fill: none; stroke: #ababab; stroke-width: 1.5"/>
    <path d="M 211.368916 66.962192 
L 245.221118 66.962192 
" clip-path="url(#p6e9c6e5277)" style="fill: none; stroke: #ababab; stroke-width: 1.5"/>
    <path d="M 190.985859 60.941789 
L 224.829645 60.941789 
" clip-path="url(#p6e9c6e5277)" style="fill: none; stroke: #ababab; stroke-width: 1.5"/>
    <path d="M 227.439575 44.698544 
L 261.307819 44.698544 
" clip-path="url(#p6e9c6e5277)" style="fill: none; stroke: #ababab; stroke-width: 1.5"/>
   </g>
   <g id="LineCollection_6">
    <path d="M 257.692498 61.65784 
L 257.692498 24.978226 
" clip-path="url(#p6e9c6e5277)" style="fill: none; stroke: #ababab; stroke-width: 1.5"/>
    <path d="M 230.081573 87.36079 
L 230.081573 50.681176 
" clip-path="url(#p6e9c6e5277)" style="fill: none; stroke: #ababab; stroke-width: 1.5"/>
    <path d="M 209.693426 81.340386 
L 209.693426 44.660773 
" clip-path="url(#p6e9c6e5277)" style="fill: none; stroke: #ababab; stroke-width: 1.5"/>
    <path d="M 246.161934 65.097142 
L 246.161934 28.417528 
" clip-path="url(#p6e9c6e5277)" style="fill: none; stroke: #ababab; stroke-width: 1.5"/>
   </g>
   <g id="LineCollection_7">
    <path d="M 252.620907 63.076599 
L 286.264413 63.076599 
" clip-path="url(#p6e9c6e5277)" style="fill: none; stroke: #ffbc79; stroke-width: 1.5"/>
    <path d="M 268.742309 45.97067 
L 302.401786 45.97067 
" clip-path="url(#p6e9c6e5277)" style="fill: none; stroke: #ffbc79; stroke-width: 1.5"/>
    <path d="M 232.428581 54.703226 
L 266.063793 54.703226 
" clip-path="url(#p6e9c6e5277)" style="fill: none; stroke: #ffbc79; stroke-width: 1.5"/>
    <path d="M 216.313235 112.67477 
L 249.945756 112.67477 
" clip-path="url(#p6e9c6e5277)" style="fill: none; stroke: #ffbc79; stroke-width: 1.5"/>
    <path d="M 241.2577 56.346971 
L 274.895568 56.346971 
" clip-path="url(#p6e9c6e5277)" style="fill: none; stroke: #ffbc79; stroke-width: 1.5"/>
    <path d="M 252.607732 53.62564 
L 286.251229 53.62564 
" clip-path="url(#p6e9c6e5277)" style="fill: none; stroke: #ffbc79; stroke-width: 1.5"/>
   </g>
   <g id="LineCollection_8">
    <path d="M 271.207417 83.352477 
L 271.207417 46.873706 
" clip-path="url(#p6e9c6e5277)" style="fill: none; stroke: #ffbc79; stroke-width: 1.5"/>
    <path d="M 287.338468 66.246548 
L 287.338468 29.767778 
" clip-path="url(#p6e9c6e5277)" style="fill: none; stroke: #ffbc79; stroke-width: 1.5"/>
    <path d="M 251.01008 74.979104 
L 251.01008 38.500334 
" clip-path="url(#p6e9c6e5277)" style="fill: none; stroke: #ffbc79; stroke-width: 1.5"/>
    <path d="M 234.893108 132.950648 
L 234.893108 96.471878 
" clip-path="url(#p6e9c6e5277)" style="fill: none; stroke: #ffbc79; stroke-width: 1.5"/>
    <path d="M 259.840804 76.62285 
L 259.840804 40.144079 
" clip-path="url(#p6e9c6e5277)" style="fill: none; stroke: #ffbc79; stroke-width: 1.5"/>
    <path d="M 271.194236 73.901518 
L 271.194236 37.422748 
" clip-path="url(#p6e9c6e5277)" style="fill: none; stroke: #ffbc79; stroke-width: 1.5"/>
   </g>
   <g id="LineCollection_9">
    <path d="M 242.781674 58.01565 
L 280.428142 58.01565 
" clip-path="url(#p6e9c6e5277)" style="fill: none; stroke: #9467bd; stroke-width: 1.5"/>
   </g>
   <g id="LineCollection_10">
    <path d="M 263.810526 80.688022 
L 263.810526 40.32144 
" clip-path="url(#p6e9c6e5277)" style="fill: none; stroke: #9467bd; stroke-width: 1.5"/>
   </g>
   <g id="line2d_56">
    <defs>
     <path id="mf0f9f2b9e9" d="M 0 1.5 
C 0.397805 1.5 0.77937 1.341951 1.06066 1.06066 
C 1.341951 0.77937 1.5 0.397805 1.5 0 
C 1.5 -0.397805 1.341951 -0.77937 1.06066 -1.06066 
C 0.77937 -1.341951 0.397805 -1.5 0 -1.5 
C -0.397805 -1.5 -0.77937 -1.341951 -1.06066 -1.06066 
C -1.341951 -0.77937 -1.5 -0.397805 -1.5 0 
C -1.5 0.397805 -1.341951 0.77937 -1.06066 1.06066 
C -0.77937 1.341951 -0.397805 1.5 0 1.5 
z
" style="stroke: #ff800e"/>
    </defs>
    <g clip-path="url(#p6e9c6e5277)">
     <use xlink:href="#mf0f9f2b9e9" x="171.329702" y="98.743606" style="fill: #ff800e; stroke: #ff800e"/>
     <use xlink:href="#mf0f9f2b9e9" x="127.997964" y="132.514439" style="fill: #ff800e; stroke: #ff800e"/>
     <use xlink:href="#mf0f9f2b9e9" x="107.691505" y="152.859116" style="fill: #ff800e; stroke: #ff800e"/>
     <use xlink:href="#mf0f9f2b9e9" x="199.763785" y="84.646086" style="fill: #ff800e; stroke: #ff800e"/>
     <use xlink:href="#mf0f9f2b9e9" x="156.208653" y="117.358399" style="fill: #ff800e; stroke: #ff800e"/>
     <use xlink:href="#mf0f9f2b9e9" x="72.824723" y="195.30969" style="fill: #ff800e; stroke: #ff800e"/>
     <use xlink:href="#mf0f9f2b9e9" x="144.153011" y="117.423016" style="fill: #ff800e; stroke: #ff800e"/>
     <use xlink:href="#mf0f9f2b9e9" x="155.69225" y="111.323561" style="fill: #ff800e; stroke: #ff800e"/>
     <use xlink:href="#mf0f9f2b9e9" x="79.750788" y="190.708198" style="fill: #ff800e; stroke: #ff800e"/>
     <use xlink:href="#mf0f9f2b9e9" x="213.735126" y="66.039001" style="fill: #ff800e; stroke: #ff800e"/>
     <use xlink:href="#mf0f9f2b9e9" x="229.931327" y="61.766209" style="fill: #ff800e; stroke: #ff800e"/>
     <use xlink:href="#mf0f9f2b9e9" x="63.97129" y="204.239136" style="fill: #ff800e; stroke: #ff800e"/>
     <use xlink:href="#mf0f9f2b9e9" x="186.947731" y="89.306216" style="fill: #ff800e; stroke: #ff800e"/>
     <use xlink:href="#mf0f9f2b9e9" x="107.762064" y="170.086569" style="fill: #ff800e; stroke: #ff800e"/>
     <use xlink:href="#mf0f9f2b9e9" x="229.588772" y="60.220289" style="fill: #ff800e; stroke: #ff800e"/>
     <use xlink:href="#mf0f9f2b9e9" x="215.395625" y="83.958936" style="fill: #ff800e; stroke: #ff800e"/>
     <use xlink:href="#mf0f9f2b9e9" x="200.445865" y="85.906601" style="fill: #ff800e; stroke: #ff800e"/>
    </g>
   </g>
   <g id="line2d_57">
    <defs>
     <path id="m5d2d2065ab" d="M 0 1.5 
C 0.397805 1.5 0.77937 1.341951 1.06066 1.06066 
C 1.341951 0.77937 1.5 0.397805 1.5 0 
C 1.5 -0.397805 1.341951 -0.77937 1.06066 -1.06066 
C 0.77937 -1.341951 0.397805 -1.5 0 -1.5 
C -0.397805 -1.5 -0.77937 -1.341951 -1.06066 -1.06066 
C -1.341951 -0.77937 -1.5 -0.397805 -1.5 0 
C -1.5 0.397805 -1.341951 0.77937 -1.06066 1.06066 
C -0.77937 1.341951 -0.397805 1.5 0 1.5 
z
" style="stroke: #3d4389"/>
    </defs>
    <g clip-path="url(#p6e9c6e5277)">
     <use xlink:href="#m5d2d2065ab" x="195.467076" y="101.531655" style="fill: #3d4389; stroke: #3d4389"/>
     <use xlink:href="#m5d2d2065ab" x="233.884034" y="62.7229" style="fill: #3d4389; stroke: #3d4389"/>
     <use xlink:href="#m5d2d2065ab" x="164.307617" y="125.247026" style="fill: #3d4389; stroke: #3d4389"/>
     <use xlink:href="#m5d2d2065ab" x="137.14776" y="122.473432" style="fill: #3d4389; stroke: #3d4389"/>
     <use xlink:href="#m5d2d2065ab" x="147.645079" y="120.102608" style="fill: #3d4389; stroke: #3d4389"/>
     <use xlink:href="#m5d2d2065ab" x="196.138616" y="75.132031" style="fill: #3d4389; stroke: #3d4389"/>
     <use xlink:href="#m5d2d2065ab" x="246.063485" y="71.547105" style="fill: #3d4389; stroke: #3d4389"/>
     <use xlink:href="#m5d2d2065ab" x="155.596467" y="120.571254" style="fill: #3d4389; stroke: #3d4389"/>
     <use xlink:href="#m5d2d2065ab" x="182.509792" y="99.57392" style="fill: #3d4389; stroke: #3d4389"/>
     <use xlink:href="#m5d2d2065ab" x="196.138616" y="103.031648" style="fill: #3d4389; stroke: #3d4389"/>
     <use xlink:href="#m5d2d2065ab" x="246.063485" y="61.883542" style="fill: #3d4389; stroke: #3d4389"/>
     <use xlink:href="#m5d2d2065ab" x="256.917244" y="60.603222" style="fill: #3d4389; stroke: #3d4389"/>
     <use xlink:href="#m5d2d2065ab" x="271.890147" y="74.508628" style="fill: #3d4389; stroke: #3d4389"/>
     <use xlink:href="#m5d2d2065ab" x="305.572701" y="15.147836" style="fill: #3d4389; stroke: #3d4389"/>
     <use xlink:href="#m5d2d2065ab" x="128.849615" y="135.307489" style="fill: #3d4389; stroke: #3d4389"/>
     <use xlink:href="#m5d2d2065ab" x="147.645079" y="124.750616" style="fill: #3d4389; stroke: #3d4389"/>
     <use xlink:href="#m5d2d2065ab" x="147.645079" y="112.66644" style="fill: #3d4389; stroke: #3d4389"/>
     <use xlink:href="#m5d2d2065ab" x="209.729563" y="96.723279" style="fill: #3d4389; stroke: #3d4389"/>
     <use xlink:href="#m5d2d2065ab" x="271.890147" y="48.352604" style="fill: #3d4389; stroke: #3d4389"/>
     <use xlink:href="#m5d2d2065ab" x="102.714564" y="164.925345" style="fill: #3d4389; stroke: #3d4389"/>
    </g>
   </g>
   <g id="line2d_58">
    <defs>
     <path id="mb7cc9121ad" d="M 0 1.5 
C 0.397805 1.5 0.77937 1.341951 1.06066 1.06066 
C 1.341951 0.77937 1.5 0.397805 1.5 0 
C 1.5 -0.397805 1.341951 -0.77937 1.06066 -1.06066 
C 0.77937 -1.341951 0.397805 -1.5 0 -1.5 
C -0.397805 -1.5 -0.77937 -1.341951 -1.06066 -1.06066 
C -1.341951 -0.77937 -1.5 -0.397805 -1.5 0 
C -1.5 0.397805 -1.341951 0.77937 -1.06066 1.06066 
C -0.77937 1.341951 -0.397805 1.5 0 1.5 
z
" style="stroke: #ababab"/>
    </defs>
    <g clip-path="url(#p6e9c6e5277)">
     <use xlink:href="#mb7cc9121ad" x="257.692498" y="41.259242" style="fill: #ababab; stroke: #ababab"/>
     <use xlink:href="#mb7cc9121ad" x="230.081573" y="66.962192" style="fill: #ababab; stroke: #ababab"/>
     <use xlink:href="#mb7cc9121ad" x="209.693426" y="60.941789" style="fill: #ababab; stroke: #ababab"/>
     <use xlink:href="#mb7cc9121ad" x="246.161934" y="44.698544" style="fill: #ababab; stroke: #ababab"/>
    </g>
   </g>
   <g id="line2d_59">
    <defs>
     <path id="m98ceaf8998" d="M 0 1.5 
C 0.397805 1.5 0.77937 1.341951 1.06066 1.06066 
C 1.341951 0.77937 1.5 0.397805 1.5 0 
C 1.5 -0.397805 1.341951 -0.77937 1.06066 -1.06066 
C 0.77937 -1.341951 0.397805 -1.5 0 -1.5 
C -0.397805 -1.5 -0.77937 -1.341951 -1.06066 -1.06066 
C -1.341951 -0.77937 -1.5 -0.397805 -1.5 0 
C -1.5 0.397805 -1.341951 0.77937 -1.06066 1.06066 
C -0.77937 1.341951 -0.397805 1.5 0 1.5 
z
" style="stroke: #ffbc79"/>
    </defs>
    <g clip-path="url(#p6e9c6e5277)">
     <use xlink:href="#m98ceaf8998" x="271.207417" y="63.076599" style="fill: #ffbc79; stroke: #ffbc79"/>
     <use xlink:href="#m98ceaf8998" x="287.338468" y="45.97067" style="fill: #ffbc79; stroke: #ffbc79"/>
     <use xlink:href="#m98ceaf8998" x="251.01008" y="54.703226" style="fill: #ffbc79; stroke: #ffbc79"/>
     <use xlink:href="#m98ceaf8998" x="234.893108" y="112.67477" style="fill: #ffbc79; stroke: #ffbc79"/>
     <use xlink:href="#m98ceaf8998" x="259.840804" y="56.346971" style="fill: #ffbc79; stroke: #ffbc79"/>
     <use xlink:href="#m98ceaf8998" x="271.194236" y="53.62564" style="fill: #ffbc79; stroke: #ffbc79"/>
    </g>
   </g>
   <g id="line2d_60">
    <defs>
     <path id="m4764e8067c" d="M 0 1.5 
C 0.397805 1.5 0.77937 1.341951 1.06066 1.06066 
C 1.341951 0.77937 1.5 0.397805 1.5 0 
C 1.5 -0.397805 1.341951 -0.77937 1.06066 -1.06066 
C 0.77937 -1.341951 0.397805 -1.5 0 -1.5 
C -0.397805 -1.5 -0.77937 -1.341951 -1.06066 -1.06066 
C -1.341951 -0.77937 -1.5 -0.397805 -1.5 0 
C -1.5 0.397805 -1.341951 0.77937 -1.06066 1.06066 
C -0.77937 1.341951 -0.397805 1.5 0 1.5 
z
" style="stroke: #9467bd"/>
    </defs>
    <g clip-path="url(#p6e9c6e5277)">
     <use xlink:href="#m4764e8067c" x="263.810526" y="58.01565" style="fill: #9467bd; stroke: #9467bd"/>
    </g>
   </g>
   <g id="patch_6">
    <path d="M 37.70024 230.064998 
L 37.70024 3.00024 
" style="fill: none; stroke: #000000; stroke-width: 0.8; stroke-linejoin: miter; stroke-linecap: square"/>
   </g>
   <g id="patch_7">
    <path d="M 323.687011 230.064998 
L 323.687011 3.00024 
" style="fill: none; stroke: #000000; stroke-width: 0.8; stroke-linejoin: miter; stroke-linecap: square"/>
   </g>
   <g id="patch_8">
    <path d="M 37.70024 230.064998 
L 323.687011 230.064998 
" style="fill: none; stroke: #000000; stroke-width: 0.8; stroke-linejoin: miter; stroke-linecap: square"/>
   </g>
   <g id="patch_9">
    <path d="M 37.70024 3.00024 
L 323.687011 3.00024 
" style="fill: none; stroke: #000000; stroke-width: 0.8; stroke-linejoin: miter; stroke-linecap: square"/>
   </g>
   <g id="text_7">
    <!-- no  -->
    <g transform="translate(289.205155 144.725656) rotate(-65) scale(0.1 -0.1)">
     <use xlink:href="#Montserrat-Regular-6e"/>
     <use xlink:href="#Montserrat-Regular-6f" x="67.599991"/>
     <use xlink:href="#Montserrat-Regular-20" x="130.299988"/>
    </g>
    <!--  constant velocity  -->
    <g transform="translate(283.238706 183.182204) rotate(-65) scale(0.1 -0.1)">
     <defs>
      <path id="Montserrat-Regular-63" d="M 2029 -32 
Q 1530 -32 1136 189 
Q 742 410 518 797 
Q 294 1184 294 1683 
Q 294 2189 518 2573 
Q 742 2957 1136 3174 
Q 1530 3392 2029 3392 
Q 2458 3392 2803 3225 
Q 3149 3059 3347 2726 
L 3008 2496 
Q 2835 2752 2579 2873 
Q 2323 2995 2022 2995 
Q 1664 2995 1376 2832 
Q 1088 2669 921 2374 
Q 755 2080 755 1683 
Q 755 1286 921 992 
Q 1088 698 1376 534 
Q 1664 371 2022 371 
Q 2323 371 2579 492 
Q 2835 614 3008 864 
L 3347 634 
Q 3149 307 2803 137 
Q 2458 -32 2029 -32 
z
" transform="scale(0.015625)"/>
      <path id="Montserrat-Regular-73" d="M 1536 -32 
Q 1120 -32 749 86 
Q 378 205 166 384 
L 371 742 
Q 576 589 896 477 
Q 1216 365 1568 365 
Q 2048 365 2259 515 
Q 2470 666 2470 915 
Q 2470 1101 2352 1206 
Q 2234 1312 2042 1366 
Q 1850 1421 1613 1459 
Q 1376 1498 1142 1549 
Q 909 1600 717 1699 
Q 525 1798 406 1971 
Q 288 2144 288 2432 
Q 288 2707 441 2924 
Q 595 3142 892 3267 
Q 1190 3392 1619 3392 
Q 1946 3392 2272 3305 
Q 2598 3219 2810 3078 
L 2611 2714 
Q 2387 2867 2131 2934 
Q 1875 3002 1619 3002 
Q 1165 3002 950 2845 
Q 736 2688 736 2445 
Q 736 2253 854 2144 
Q 973 2035 1168 1974 
Q 1363 1914 1596 1875 
Q 1830 1837 2064 1782 
Q 2298 1728 2493 1635 
Q 2688 1542 2806 1372 
Q 2925 1203 2925 928 
Q 2925 634 2761 419 
Q 2598 205 2288 86 
Q 1978 -32 1536 -32 
z
" transform="scale(0.015625)"/>
      <path id="Montserrat-Regular-76" d="M 1498 0 
L 6 3360 
L 480 3360 
L 1850 243 
L 1626 243 
L 3014 3360 
L 3462 3360 
L 1965 0 
L 1498 0 
z
" transform="scale(0.015625)"/>
      <path id="Montserrat-Regular-79" d="M 659 -1274 
Q 422 -1274 208 -1197 
Q -6 -1120 -160 -966 
L 51 -627 
Q 179 -749 329 -816 
Q 480 -883 666 -883 
Q 890 -883 1053 -758 
Q 1216 -634 1363 -320 
L 1581 173 
L 1632 243 
L 3014 3360 
L 3462 3360 
L 1779 -403 
Q 1638 -730 1468 -922 
Q 1299 -1114 1100 -1194 
Q 902 -1274 659 -1274 
z
M 1555 -96 
L 6 3360 
L 480 3360 
L 1850 275 
L 1555 -96 
z
" transform="scale(0.015625)"/>
     </defs>
     <use xlink:href="#Montserrat-Regular-20"/>
     <use xlink:href="#Montserrat-Regular-63" x="26.199997"/>
     <use xlink:href="#Montserrat-Regular-6f" x="82.499985"/>
     <use xlink:href="#Montserrat-Regular-6e" x="145.199982"/>
     <use xlink:href="#Montserrat-Regular-73" x="212.799973"/>
     <use xlink:href="#Montserrat-Regular-74" x="261.59996"/>
     <use xlink:href="#Montserrat-Regular-61" x="302.199951"/>
     <use xlink:href="#Montserrat-Regular-6e" x="361.199936"/>
     <use xlink:href="#Montserrat-Regular-74" x="428.799927"/>
     <use xlink:href="#Montserrat-Regular-20" x="469.399918"/>
     <use xlink:href="#Montserrat-Regular-76" x="495.599915"/>
     <use xlink:href="#Montserrat-Regular-65" x="549.799911"/>
     <use xlink:href="#Montserrat-Regular-6c" x="610.199905"/>
     <use xlink:href="#Montserrat-Regular-6f" x="637.099899"/>
     <use xlink:href="#Montserrat-Regular-63" x="699.799896"/>
     <use xlink:href="#Montserrat-Regular-69" x="756.099884"/>
     <use xlink:href="#Montserrat-Regular-74" x="782.999878"/>
     <use xlink:href="#Montserrat-Regular-79" x="823.599869"/>
     <use xlink:href="#Montserrat-Regular-20" x="877.799866"/>
    </g>
    <!--  regime -->
    <g transform="translate(304.003603 164.431503) rotate(-65) scale(0.1 -0.1)">
     <use xlink:href="#Montserrat-Regular-20"/>
     <use xlink:href="#Montserrat-Regular-72" x="26.199997"/>
     <use xlink:href="#Montserrat-Regular-65" x="66.299988"/>
     <use xlink:href="#Montserrat-Regular-67" x="126.699982"/>
     <use xlink:href="#Montserrat-Regular-69" x="195.199966"/>
     <use xlink:href="#Montserrat-Regular-6d" x="222.09996"/>
     <use xlink:href="#Montserrat-Regular-65" x="328.199951"/>
    </g>
   </g>
   <g id="text_8">
    <!-- negligible settling  -->
    <g transform="translate(44.971331 82.229575) scale(0.1 -0.1)">
     <use xlink:href="#Montserrat-Regular-6e"/>
     <use xlink:href="#Montserrat-Regular-65" x="67.599991"/>
     <use xlink:href="#Montserrat-Regular-67" x="127.999985"/>
     <use xlink:href="#Montserrat-Regular-6c" x="196.499969"/>
     <use xlink:href="#Montserrat-Regular-69" x="223.399963"/>
     <use xlink:href="#Montserrat-Regular-67" x="250.299957"/>
     <use xlink:href="#Montserrat-Regular-69" x="318.799942"/>
     <use xlink:href="#Montserrat-Regular-62" x="345.699936"/>
     <use xlink:href="#Montserrat-Regular-6c" x="413.499924"/>
     <use xlink:href="#Montserrat-Regular-65" x="440.399918"/>
     <use xlink:href="#Montserrat-Regular-20" x="500.799911"/>
     <use xlink:href="#Montserrat-Regular-73" x="526.999908"/>
     <use xlink:href="#Montserrat-Regular-65" x="575.799896"/>
     <use xlink:href="#Montserrat-Regular-74" x="636.19989"/>
     <use xlink:href="#Montserrat-Regular-74" x="676.799881"/>
     <use xlink:href="#Montserrat-Regular-6c" x="717.399872"/>
     <use xlink:href="#Montserrat-Regular-69" x="744.299866"/>
     <use xlink:href="#Montserrat-Regular-6e" x="771.19986"/>
     <use xlink:href="#Montserrat-Regular-67" x="838.79985"/>
     <use xlink:href="#Montserrat-Regular-20" x="907.299835"/>
    </g>
    <!--  (saline currents limit) -->
    <g transform="translate(37.522112 93.124575) scale(0.1 -0.1)">
     <defs>
      <path id="Montserrat-Regular-28" d="M 1408 -1242 
Q 1056 -659 861 105 
Q 666 870 666 1754 
Q 666 2637 861 3408 
Q 1056 4179 1408 4749 
L 1843 4749 
Q 1466 4090 1290 3350 
Q 1114 2611 1114 1754 
Q 1114 896 1290 157 
Q 1466 -582 1843 -1242 
L 1408 -1242 
z
" transform="scale(0.015625)"/>
      <path id="Montserrat-Regular-29" d="M 691 -1242 
L 256 -1242 
Q 640 -582 816 157 
Q 992 896 992 1754 
Q 992 2611 816 3350 
Q 640 4090 256 4749 
L 691 4749 
Q 1056 4179 1248 3408 
Q 1440 2637 1440 1754 
Q 1440 870 1248 105 
Q 1056 -659 691 -1242 
z
" transform="scale(0.015625)"/>
     </defs>
     <use xlink:href="#Montserrat-Regular-20"/>
     <use xlink:href="#Montserrat-Regular-28" x="26.199997"/>
     <use xlink:href="#Montserrat-Regular-73" x="59.099991"/>
     <use xlink:href="#Montserrat-Regular-61" x="107.899979"/>
     <use xlink:href="#Montserrat-Regular-6c" x="166.899963"/>
     <use xlink:href="#Montserrat-Regular-69" x="193.799957"/>
     <use xlink:href="#Montserrat-Regular-6e" x="220.699951"/>
     <use xlink:href="#Montserrat-Regular-65" x="288.299942"/>
     <use xlink:href="#Montserrat-Regular-20" x="348.699936"/>
     <use xlink:href="#Montserrat-Regular-63" x="374.899933"/>
     <use xlink:href="#Montserrat-Regular-75" x="431.199921"/>
     <use xlink:href="#Montserrat-Regular-72" x="498.399918"/>
     <use xlink:href="#Montserrat-Regular-72" x="538.499908"/>
     <use xlink:href="#Montserrat-Regular-65" x="578.599899"/>
     <use xlink:href="#Montserrat-Regular-6e" x="638.999893"/>
     <use xlink:href="#Montserrat-Regular-74" x="706.599884"/>
     <use xlink:href="#Montserrat-Regular-73" x="747.199875"/>
     <use xlink:href="#Montserrat-Regular-20" x="795.999863"/>
     <use xlink:href="#Montserrat-Regular-6c" x="822.19986"/>
     <use xlink:href="#Montserrat-Regular-69" x="849.099854"/>
     <use xlink:href="#Montserrat-Regular-6d" x="875.999847"/>
     <use xlink:href="#Montserrat-Regular-69" x="982.099838"/>
     <use xlink:href="#Montserrat-Regular-74" x="1008.999832"/>
     <use xlink:href="#Montserrat-Regular-29" x="1049.599823"/>
    </g>
   </g>
   <g id="text_9">
    <!-- transition -->
    <g transform="translate(171.564164 176.661758) scale(0.1 -0.1)">
     <use xlink:href="#Montserrat-Regular-74"/>
     <use xlink:href="#Montserrat-Regular-72" x="40.599991"/>
     <use xlink:href="#Montserrat-Regular-61" x="80.699982"/>
     <use xlink:href="#Montserrat-Regular-6e" x="139.699966"/>
     <use xlink:href="#Montserrat-Regular-73" x="207.299957"/>
     <use xlink:href="#Montserrat-Regular-69" x="256.099945"/>
     <use xlink:href="#Montserrat-Regular-74" x="282.999939"/>
     <use xlink:href="#Montserrat-Regular-69" x="323.59993"/>
     <use xlink:href="#Montserrat-Regular-6f" x="350.499924"/>
     <use xlink:href="#Montserrat-Regular-6e" x="413.199921"/>
    </g>
   </g>
   <g id="text_10">
    <!-- settling  -->
    <g transform="translate(242.970958 179.877968) rotate(-65) scale(0.1 -0.1)">
     <use xlink:href="#Montserrat-Regular-73"/>
     <use xlink:href="#Montserrat-Regular-65" x="48.799988"/>
     <use xlink:href="#Montserrat-Regular-74" x="109.199982"/>
     <use xlink:href="#Montserrat-Regular-74" x="149.799973"/>
     <use xlink:href="#Montserrat-Regular-6c" x="190.399963"/>
     <use xlink:href="#Montserrat-Regular-69" x="217.299957"/>
     <use xlink:href="#Montserrat-Regular-6e" x="244.199951"/>
     <use xlink:href="#Montserrat-Regular-67" x="311.799942"/>
     <use xlink:href="#Montserrat-Regular-20" x="380.299927"/>
    </g>
    <!--  dominated -->
    <g transform="translate(249.071332 192.575439) rotate(-65) scale(0.1 -0.1)">
     <use xlink:href="#Montserrat-Regular-20"/>
     <use xlink:href="#Montserrat-Regular-64" x="26.199997"/>
     <use xlink:href="#Montserrat-Regular-6f" x="93.999985"/>
     <use xlink:href="#Montserrat-Regular-6d" x="156.699982"/>
     <use xlink:href="#Montserrat-Regular-69" x="262.799973"/>
     <use xlink:href="#Montserrat-Regular-6e" x="289.699966"/>
     <use xlink:href="#Montserrat-Regular-61" x="357.299957"/>
     <use xlink:href="#Montserrat-Regular-74" x="416.299942"/>
     <use xlink:href="#Montserrat-Regular-65" x="456.899933"/>
     <use xlink:href="#Montserrat-Regular-64" x="517.299927"/>
    </g>
   </g>
   <g id="legend_1">
    <g id="patch_10">
     <path d="M 339.986349 93.304928 
L 418.886349 93.304928 
Q 420.886349 93.304928 420.886349 91.304928 
L 420.886349 5.00024 
Q 420.886349 3.00024 418.886349 3.00024 
L 339.986349 3.00024 
Q 337.986349 3.00024 337.986349 5.00024 
L 337.986349 91.304928 
Q 337.986349 93.304928 339.986349 93.304928 
z
" style="fill: #ffffff; opacity: 0.2; stroke: #000000; stroke-linejoin: miter"/>
    </g>
    <g id="text_11">
     <!-- $v_{\rm s}$ [cm/s] -->
     <g transform="translate(358.586349 15.50024) scale(0.1 -0.1)">
      <defs>
       <path id="Montserrat-Regular-5b" d="M 730 -1242 
L 730 4749 
L 1901 4749 
L 1901 4371 
L 1184 4371 
L 1184 -864 
L 1901 -864 
L 1901 -1242 
L 730 -1242 
z
" transform="scale(0.015625)"/>
       <path id="Montserrat-Regular-2f" d="M -160 -640 
L 1952 5389 
L 2368 5389 
L 256 -640 
L -160 -640 
z
" transform="scale(0.015625)"/>
       <path id="Montserrat-Regular-5d" d="M 1306 -1242 
L 134 -1242 
L 134 -864 
L 851 -864 
L 851 4371 
L 134 4371 
L 134 4749 
L 1306 4749 
L 1306 -1242 
z
" transform="scale(0.015625)"/>
      </defs>
      <use xlink:href="#Cmmi10-76" transform="translate(0 0.796875)"/>
      <use xlink:href="#Cmr10-73" transform="translate(48.388672 -16.209375) scale(0.7)"/>
      <use xlink:href="#Montserrat-Regular-20" transform="translate(82.349023 0.796875)"/>
      <use xlink:href="#Montserrat-Regular-5b" transform="translate(108.54902 0.796875)"/>
      <use xlink:href="#Montserrat-Regular-63" transform="translate(140.349008 0.796875)"/>
      <use xlink:href="#Montserrat-Regular-6d" transform="translate(196.648996 0.796875)"/>
      <use xlink:href="#Montserrat-Regular-2f" transform="translate(302.748987 0.796875)"/>
      <use xlink:href="#Montserrat-Regular-73" transform="translate(336.248972 0.796875)"/>
      <use xlink:href="#Montserrat-Regular-5d" transform="translate(385.048959 0.796875)"/>
     </g>
    </g>
    <g id="LineCollection_11">
     <path d="M 346.986349 26.420553 
L 356.986349 26.420553 
" style="fill: none; stroke: #ff800e; stroke-width: 1.5"/>
    </g>
    <g id="LineCollection_12">
     <path d="M 351.986349 31.420553 
L 351.986349 21.420553 
" style="fill: none; stroke: #ff800e; stroke-width: 1.5"/>
    </g>
    <g id="line2d_61"/>
    <g id="line2d_62">
     <g>
      <use xlink:href="#mf0f9f2b9e9" x="351.986349" y="26.420553" style="fill: #ff800e; stroke: #ff800e"/>
     </g>
    </g>
    <g id="text_12">
     <!-- $0.32 \pm 0.12$ -->
     <g transform="translate(369.986349 29.920553) scale(0.1 -0.1)">
      <defs>
       <path id="Cmmi10-3a" d="M 538 353 
Q 538 497 644 600 
Q 750 703 891 703 
Q 978 703 1062 656 
Q 1147 609 1194 525 
Q 1241 441 1241 353 
Q 1241 213 1137 106 
Q 1034 0 891 0 
Q 750 0 644 106 
Q 538 213 538 353 
z
" transform="scale(0.015625)"/>
       <path id="Cmr10-33" d="M 609 494 
Q 759 275 1012 169 
Q 1266 63 1556 63 
Q 1928 63 2084 380 
Q 2241 697 2241 1100 
Q 2241 1281 2208 1462 
Q 2175 1644 2097 1800 
Q 2019 1956 1883 2050 
Q 1747 2144 1550 2144 
L 1125 2144 
Q 1069 2144 1069 2203 
L 1069 2259 
Q 1069 2309 1125 2309 
L 1478 2338 
Q 1703 2338 1851 2506 
Q 2000 2675 2069 2917 
Q 2138 3159 2138 3378 
Q 2138 3684 1994 3881 
Q 1850 4078 1556 4078 
Q 1313 4078 1091 3986 
Q 869 3894 738 3706 
Q 750 3709 759 3711 
Q 769 3713 781 3713 
Q 925 3713 1022 3613 
Q 1119 3513 1119 3372 
Q 1119 3234 1022 3134 
Q 925 3034 781 3034 
Q 641 3034 541 3134 
Q 441 3234 441 3372 
Q 441 3647 606 3850 
Q 772 4053 1033 4158 
Q 1294 4263 1556 4263 
Q 1750 4263 1965 4205 
Q 2181 4147 2356 4039 
Q 2531 3931 2642 3762 
Q 2753 3594 2753 3378 
Q 2753 3109 2633 2881 
Q 2513 2653 2303 2487 
Q 2094 2322 1844 2241 
Q 2122 2188 2372 2031 
Q 2622 1875 2773 1631 
Q 2925 1388 2925 1106 
Q 2925 753 2731 467 
Q 2538 181 2222 20 
Q 1906 -141 1556 -141 
Q 1256 -141 954 -26 
Q 653 88 461 316 
Q 269 544 269 863 
Q 269 1022 375 1128 
Q 481 1234 641 1234 
Q 744 1234 830 1186 
Q 916 1138 964 1050 
Q 1013 963 1013 863 
Q 1013 706 903 600 
Q 794 494 641 494 
L 609 494 
z
" transform="scale(0.015625)"/>
       <path id="Cmr10-32" d="M 319 0 
L 319 172 
Q 319 188 331 206 
L 1325 1306 
Q 1550 1550 1690 1715 
Q 1831 1881 1968 2097 
Q 2106 2313 2186 2536 
Q 2266 2759 2266 3009 
Q 2266 3272 2169 3511 
Q 2072 3750 1880 3894 
Q 1688 4038 1416 4038 
Q 1138 4038 916 3870 
Q 694 3703 603 3438 
Q 628 3444 672 3444 
Q 816 3444 917 3347 
Q 1019 3250 1019 3097 
Q 1019 2950 917 2848 
Q 816 2747 672 2747 
Q 522 2747 420 2851 
Q 319 2956 319 3097 
Q 319 3338 409 3548 
Q 500 3759 670 3923 
Q 841 4088 1055 4175 
Q 1269 4263 1509 4263 
Q 1875 4263 2190 4108 
Q 2506 3953 2690 3670 
Q 2875 3388 2875 3009 
Q 2875 2731 2753 2481 
Q 2631 2231 2440 2026 
Q 2250 1822 1953 1562 
Q 1656 1303 1563 1216 
L 838 519 
L 1453 519 
Q 1906 519 2211 526 
Q 2516 534 2534 550 
Q 2609 631 2688 1141 
L 2875 1141 
L 2694 0 
L 319 0 
z
" transform="scale(0.015625)"/>
       <path id="Cmsy10-a7" d="M 481 0 
Q 428 0 393 37 
Q 359 75 359 128 
Q 359 175 393 215 
Q 428 256 481 256 
L 2363 256 
L 2363 2003 
L 481 2003 
Q 428 2003 393 2043 
Q 359 2084 359 2131 
Q 359 2178 393 2218 
Q 428 2259 481 2259 
L 2363 2259 
L 2363 4147 
Q 2363 4197 2400 4230 
Q 2438 4263 2491 4263 
Q 2534 4263 2576 4230 
Q 2619 4197 2619 4147 
L 2619 2259 
L 4500 2259 
Q 4547 2259 4581 2218 
Q 4616 2178 4616 2131 
Q 4616 2084 4581 2043 
Q 4547 2003 4500 2003 
L 2619 2003 
L 2619 256 
L 4500 256 
Q 4547 256 4581 215 
Q 4616 175 4616 128 
Q 4616 75 4581 37 
Q 4547 0 4500 0 
L 481 0 
z
" transform="scale(0.015625)"/>
       <path id="Cmr10-31" d="M 594 0 
L 594 225 
Q 1394 225 1394 428 
L 1394 3788 
Q 1063 3628 556 3628 
L 556 3853 
Q 1341 3853 1741 4263 
L 1831 4263 
Q 1853 4263 1873 4245 
Q 1894 4228 1894 4206 
L 1894 428 
Q 1894 225 2694 225 
L 2694 0 
L 594 0 
z
" transform="scale(0.015625)"/>
      </defs>
      <use xlink:href="#Cmr10-30" transform="translate(0 0.390625)"/>
      <use xlink:href="#Cmmi10-3a" transform="translate(50 0.390625)"/>
      <use xlink:href="#Cmr10-33" transform="translate(77.685547 0.390625)"/>
      <use xlink:href="#Cmr10-32" transform="translate(127.685547 0.390625)"/>
      <use xlink:href="#Cmsy10-a7" transform="translate(195.244141 0.390625)"/>
      <use xlink:href="#Cmr10-30" transform="translate(290.488281 0.390625)"/>
      <use xlink:href="#Cmmi10-3a" transform="translate(340.488281 0.390625)"/>
      <use xlink:href="#Cmr10-31" transform="translate(368.173828 0.390625)"/>
      <use xlink:href="#Cmr10-32" transform="translate(418.173828 0.390625)"/>
     </g>
    </g>
    <g id="LineCollection_13">
     <path d="M 346.986349 40.78149 
L 356.986349 40.78149 
" style="fill: none; stroke: #3d4389; stroke-width: 1.5"/>
    </g>
    <g id="LineCollection_14">
     <path d="M 351.986349 45.78149 
L 351.986349 35.78149 
" style="fill: none; stroke: #3d4389; stroke-width: 1.5"/>
    </g>
    <g id="line2d_63"/>
    <g id="line2d_64">
     <g>
      <use xlink:href="#m5d2d2065ab" x="351.986349" y="40.78149" style="fill: #3d4389; stroke: #3d4389"/>
     </g>
    </g>
    <g id="text_13">
     <!-- $0.74 \pm 0.25$ -->
     <g transform="translate(369.986349 44.28149) scale(0.1 -0.1)">
      <defs>
       <path id="Cmr10-37" d="M 1113 166 
Q 1113 522 1175 862 
Q 1238 1203 1358 1536 
Q 1478 1869 1648 2189 
Q 1819 2509 2022 2791 
L 2606 3603 
L 1875 3603 
Q 738 3603 703 3572 
Q 619 3469 544 2981 
L 359 2981 
L 569 4325 
L 756 4325 
L 756 4306 
Q 756 4191 1147 4156 
Q 1538 4122 1913 4122 
L 3103 4122 
L 3103 3956 
Q 3103 3950 3101 3947 
Q 3100 3944 3097 3938 
L 2216 2700 
Q 1891 2219 1809 1631 
Q 1728 1044 1728 166 
Q 1728 41 1637 -50 
Q 1547 -141 1422 -141 
Q 1294 -141 1203 -50 
Q 1113 41 1113 166 
z
" transform="scale(0.015625)"/>
       <path id="Cmr10-34" d="M 178 1056 
L 178 1281 
L 2156 4231 
Q 2178 4263 2222 4263 
L 2316 4263 
Q 2388 4263 2388 4191 
L 2388 1281 
L 3016 1281 
L 3016 1056 
L 2388 1056 
L 2388 428 
Q 2388 297 2575 261 
Q 2763 225 3009 225 
L 3009 0 
L 1247 0 
L 1247 225 
Q 1494 225 1681 261 
Q 1869 297 1869 428 
L 1869 1056 
L 178 1056 
z
M 391 1281 
L 1906 1281 
L 1906 3547 
L 391 1281 
z
" transform="scale(0.015625)"/>
       <path id="Cmr10-35" d="M 556 728 
Q 622 541 758 387 
Q 894 234 1080 148 
Q 1266 63 1466 63 
Q 1928 63 2103 422 
Q 2278 781 2278 1294 
Q 2278 1516 2270 1667 
Q 2263 1819 2228 1959 
Q 2169 2184 2020 2353 
Q 1872 2522 1656 2522 
Q 1441 2522 1286 2456 
Q 1131 2391 1034 2303 
Q 938 2216 863 2119 
Q 788 2022 769 2016 
L 697 2016 
Q 681 2016 657 2036 
Q 634 2056 634 2075 
L 634 4213 
Q 634 4228 654 4245 
Q 675 4263 697 4263 
L 716 4263 
Q 1147 4056 1631 4056 
Q 2106 4056 2547 4263 
L 2566 4263 
Q 2588 4263 2606 4247 
Q 2625 4231 2625 4213 
L 2625 4153 
Q 2625 4122 2613 4122 
Q 2394 3831 2064 3668 
Q 1734 3506 1381 3506 
Q 1125 3506 856 3578 
L 856 2369 
Q 1069 2541 1236 2614 
Q 1403 2688 1663 2688 
Q 2016 2688 2295 2484 
Q 2575 2281 2725 1954 
Q 2875 1628 2875 1288 
Q 2875 903 2686 575 
Q 2497 247 2172 53 
Q 1847 -141 1466 -141 
Q 1150 -141 886 21 
Q 622 184 470 459 
Q 319 734 319 1044 
Q 319 1188 412 1278 
Q 506 1369 647 1369 
Q 788 1369 883 1276 
Q 978 1184 978 1044 
Q 978 906 883 811 
Q 788 716 647 716 
Q 625 716 597 720 
Q 569 725 556 728 
z
" transform="scale(0.015625)"/>
      </defs>
      <use xlink:href="#Cmr10-30" transform="translate(0 0.421875)"/>
      <use xlink:href="#Cmmi10-3a" transform="translate(50 0.421875)"/>
      <use xlink:href="#Cmr10-37" transform="translate(77.685547 0.421875)"/>
      <use xlink:href="#Cmr10-34" transform="translate(127.685547 0.421875)"/>
      <use xlink:href="#Cmsy10-a7" transform="translate(195.244141 0.421875)"/>
      <use xlink:href="#Cmr10-30" transform="translate(290.488281 0.421875)"/>
      <use xlink:href="#Cmmi10-3a" transform="translate(340.488281 0.421875)"/>
      <use xlink:href="#Cmr10-32" transform="translate(368.173828 0.421875)"/>
      <use xlink:href="#Cmr10-35" transform="translate(418.173828 0.421875)"/>
     </g>
    </g>
    <g id="LineCollection_15">
     <path d="M 346.986349 55.142427 
L 356.986349 55.142427 
" style="fill: none; stroke: #ababab; stroke-width: 1.5"/>
    </g>
    <g id="LineCollection_16">
     <path d="M 351.986349 60.142427 
L 351.986349 50.142427 
" style="fill: none; stroke: #ababab; stroke-width: 1.5"/>
    </g>
    <g id="line2d_65"/>
    <g id="line2d_66">
     <g>
      <use xlink:href="#mb7cc9121ad" x="351.986349" y="55.142427" style="fill: #ababab; stroke: #ababab"/>
     </g>
    </g>
    <g id="text_14">
     <!-- $1.1 \pm 0.5$ -->
     <g transform="translate(369.986349 58.642427) scale(0.1 -0.1)">
      <use xlink:href="#Cmr10-31" transform="translate(0 0.390625)"/>
      <use xlink:href="#Cmmi10-3a" transform="translate(50 0.390625)"/>
      <use xlink:href="#Cmr10-31" transform="translate(77.685547 0.390625)"/>
      <use xlink:href="#Cmsy10-a7" transform="translate(145.244141 0.390625)"/>
      <use xlink:href="#Cmr10-30" transform="translate(240.488281 0.390625)"/>
      <use xlink:href="#Cmmi10-3a" transform="translate(290.488281 0.390625)"/>
      <use xlink:href="#Cmr10-35" transform="translate(318.173828 0.390625)"/>
     </g>
    </g>
    <g id="LineCollection_17">
     <path d="M 346.986349 69.503365 
L 356.986349 69.503365 
" style="fill: none; stroke: #ffbc79; stroke-width: 1.5"/>
    </g>
    <g id="LineCollection_18">
     <path d="M 351.986349 74.503365 
L 351.986349 64.503365 
" style="fill: none; stroke: #ffbc79; stroke-width: 1.5"/>
    </g>
    <g id="line2d_67"/>
    <g id="line2d_68">
     <g>
      <use xlink:href="#m98ceaf8998" x="351.986349" y="69.503365" style="fill: #ffbc79; stroke: #ffbc79"/>
     </g>
    </g>
    <g id="text_15">
     <!-- $1.9 \pm 0.8$ -->
     <g transform="translate(369.986349 73.003365) scale(0.1 -0.1)">
      <defs>
       <path id="Cmr10-39" d="M 722 269 
Q 897 63 1331 63 
Q 1575 63 1786 228 
Q 1997 394 2113 634 
Q 2247 906 2284 1214 
Q 2322 1522 2322 1978 
Q 2213 1719 2008 1553 
Q 1803 1388 1538 1388 
Q 1166 1388 873 1589 
Q 581 1791 425 2120 
Q 269 2450 269 2822 
Q 269 3206 444 3539 
Q 619 3872 928 4067 
Q 1238 4263 1631 4263 
Q 2019 4263 2280 4052 
Q 2541 3841 2678 3508 
Q 2816 3175 2870 2803 
Q 2925 2431 2925 2069 
Q 2925 1575 2744 1061 
Q 2563 547 2202 203 
Q 1841 -141 1331 -141 
Q 953 -141 690 37 
Q 428 216 428 575 
Q 428 706 517 795 
Q 606 884 738 884 
Q 866 884 955 795 
Q 1044 706 1044 575 
Q 1044 450 953 359 
Q 863 269 738 269 
L 722 269 
z
M 1563 1556 
Q 1825 1556 1992 1732 
Q 2159 1909 2234 2171 
Q 2309 2434 2309 2694 
L 2309 2816 
L 2309 2841 
Q 2309 3322 2168 3700 
Q 2028 4078 1631 4078 
Q 1378 4078 1220 3967 
Q 1063 3856 988 3672 
Q 913 3488 892 3278 
Q 872 3069 872 2822 
Q 872 2459 906 2203 
Q 941 1947 1094 1751 
Q 1247 1556 1563 1556 
z
" transform="scale(0.015625)"/>
       <path id="Cmr10-38" d="M 269 972 
Q 269 1356 522 1651 
Q 775 1947 1172 2144 
L 934 2297 
Q 716 2441 578 2680 
Q 441 2919 441 3181 
Q 441 3488 602 3734 
Q 763 3981 1030 4122 
Q 1297 4263 1600 4263 
Q 1884 4263 2148 4147 
Q 2413 4031 2583 3815 
Q 2753 3600 2753 3303 
Q 2753 3088 2651 2903 
Q 2550 2719 2373 2572 
Q 2197 2425 1997 2322 
L 2363 2088 
Q 2616 1922 2770 1653 
Q 2925 1384 2925 1088 
Q 2925 741 2739 456 
Q 2553 172 2247 15 
Q 1941 -141 1600 -141 
Q 1269 -141 961 -6 
Q 653 128 461 383 
Q 269 638 269 972 
z
M 616 972 
Q 616 719 755 509 
Q 894 300 1122 181 
Q 1350 63 1600 63 
Q 1972 63 2275 280 
Q 2578 497 2578 856 
Q 2578 978 2529 1098 
Q 2481 1219 2395 1317 
Q 2309 1416 2203 1478 
L 1344 2034 
Q 1144 1928 976 1765 
Q 809 1603 712 1400 
Q 616 1197 616 972 
z
M 1056 2925 
L 1831 2425 
Q 2100 2581 2272 2803 
Q 2444 3025 2444 3303 
Q 2444 3519 2323 3698 
Q 2203 3878 2009 3978 
Q 1816 4078 1594 4078 
Q 1400 4078 1203 4003 
Q 1006 3928 878 3779 
Q 750 3631 750 3431 
Q 750 3131 1056 2925 
z
" transform="scale(0.015625)"/>
      </defs>
      <use xlink:href="#Cmr10-31" transform="translate(0 0.390625)"/>
      <use xlink:href="#Cmmi10-3a" transform="translate(50 0.390625)"/>
      <use xlink:href="#Cmr10-39" transform="translate(77.685547 0.390625)"/>
      <use xlink:href="#Cmsy10-a7" transform="translate(145.244141 0.390625)"/>
      <use xlink:href="#Cmr10-30" transform="translate(240.488281 0.390625)"/>
      <use xlink:href="#Cmmi10-3a" transform="translate(290.488281 0.390625)"/>
      <use xlink:href="#Cmr10-38" transform="translate(318.173828 0.390625)"/>
     </g>
    </g>
    <g id="LineCollection_19">
     <path d="M 346.986349 83.864303 
L 356.986349 83.864303 
" style="fill: none; stroke: #9467bd; stroke-width: 1.5"/>
    </g>
    <g id="LineCollection_20">
     <path d="M 351.986349 88.864303 
L 351.986349 78.864303 
" style="fill: none; stroke: #9467bd; stroke-width: 1.5"/>
    </g>
    <g id="line2d_69"/>
    <g id="line2d_70">
     <g>
      <use xlink:href="#m4764e8067c" x="351.986349" y="83.864303" style="fill: #9467bd; stroke: #9467bd"/>
     </g>
    </g>
    <g id="text_16">
     <!-- $3.2 \pm 1.5$ -->
     <g transform="translate(369.986349 87.364303) scale(0.1 -0.1)">
      <use xlink:href="#Cmr10-33" transform="translate(0 0.390625)"/>
      <use xlink:href="#Cmmi10-3a" transform="translate(50 0.390625)"/>
      <use xlink:href="#Cmr10-32" transform="translate(77.685547 0.390625)"/>
      <use xlink:href="#Cmsy10-a7" transform="translate(145.244141 0.390625)"/>
      <use xlink:href="#Cmr10-31" transform="translate(240.488281 0.390625)"/>
      <use xlink:href="#Cmmi10-3a" transform="translate(290.488281 0.390625)"/>
      <use xlink:href="#Cmr10-35" transform="translate(318.173828 0.390625)"/>
     </g>
    </g>
   </g>
   <g id="legend_2">
    <g id="patch_11">
     <path d="M 339.986349 230.064998 
L 416.186349 230.064998 
Q 418.186349 230.064998 418.186349 228.064998 
L 418.186349 185.982185 
Q 418.186349 183.982185 416.186349 183.982185 
L 339.986349 183.982185 
Q 337.986349 183.982185 337.986349 185.982185 
L 337.986349 228.064998 
Q 337.986349 230.064998 339.986349 230.064998 
z
" style="fill: #ffffff; opacity: 0.2; stroke: #000000; stroke-linejoin: miter"/>
    </g>
    <g id="line2d_71">
     <path d="M 341.986349 191.902498 
L 351.986349 191.902498 
L 361.986349 191.902498 
" style="fill: none; stroke: #000000; stroke-linecap: square"/>
    </g>
    <g id="text_17">
     <!-- $t_{\rm end} = 30t_{0}$ -->
     <g transform="translate(369.986349 195.402498) scale(0.1 -0.1)">
      <use xlink:href="#Cmmi10-74" transform="translate(0 0.390625)"/>
      <use xlink:href="#Cmr10-65" transform="translate(36.083984 -16.615625) scale(0.7)"/>
      <use xlink:href="#Cmr10-6e" transform="translate(67.15332 -16.615625) scale(0.7)"/>
      <use xlink:href="#Cmr10-64" transform="translate(106.015625 -16.615625) scale(0.7)"/>
      <use xlink:href="#Cmr10-3d" transform="translate(168.813867 0.390625)"/>
      <use xlink:href="#Cmr10-33" transform="translate(264.058008 0.390625)"/>
      <use xlink:href="#Cmr10-30" transform="translate(314.058008 0.390625)"/>
      <use xlink:href="#Cmmi10-74" transform="translate(364.058008 0.390625)"/>
      <use xlink:href="#Cmr10-30" transform="translate(400.141992 -16.615625) scale(0.7)"/>
     </g>
    </g>
    <g id="line2d_72">
     <path d="M 341.986349 206.263435 
L 351.986349 206.263435 
L 361.986349 206.263435 
" style="fill: none; stroke-dasharray: 1,1.65; stroke-dashoffset: 0; stroke: #000000"/>
    </g>
    <g id="text_18">
     <!-- $\mathcal{S} = 0.07$ -->
     <g transform="translate(369.986349 209.763435) scale(0.1 -0.1)">
      <use xlink:href="#Cmsy10-53" transform="translate(0 0.484375)"/>
      <use xlink:href="#Cmr10-3d" transform="translate(78.056641 0.484375)"/>
      <use xlink:href="#Cmr10-30" transform="translate(173.300781 0.484375)"/>
      <use xlink:href="#Cmmi10-3a" transform="translate(223.300781 0.484375)"/>
      <use xlink:href="#Cmr10-30" transform="translate(250.986328 0.484375)"/>
      <use xlink:href="#Cmr10-37" transform="translate(300.986328 0.484375)"/>
     </g>
    </g>
    <g id="line2d_73">
     <path d="M 341.986349 220.624373 
L 351.986349 220.624373 
L 361.986349 220.624373 
" style="fill: none; stroke-dasharray: 3.7,1.6; stroke-dashoffset: 0; stroke: #000000"/>
    </g>
    <g id="text_19">
     <!-- $t_{\rm end} \propto t_{\rm s}$ -->
     <g transform="translate(369.986349 224.124373) scale(0.1 -0.1)">
      <defs>
       <path id="Cmsy10-2f" d="M 1466 -72 
Q 947 -72 653 379 
Q 359 831 359 1381 
Q 359 1725 487 2059 
Q 616 2394 872 2611 
Q 1128 2828 1484 2828 
Q 1891 2828 2234 2587 
Q 2578 2347 2822 1966 
L 2963 1753 
Q 3200 2222 3562 2525 
Q 3925 2828 4397 2828 
Q 4519 2828 4616 2803 
L 4622 2606 
Q 4534 2625 4453 2625 
Q 4144 2625 3889 2465 
Q 3634 2306 3440 2051 
Q 3247 1797 3122 1503 
L 3419 1050 
Q 3563 822 3709 644 
Q 3856 466 4048 342 
Q 4241 219 4469 219 
Q 4516 219 4622 231 
L 4622 -38 
Q 4469 -72 4378 -72 
Q 3978 -72 3628 173 
Q 3278 419 3041 794 
L 2900 1006 
Q 2747 706 2539 464 
Q 2331 222 2057 75 
Q 1784 -72 1466 -72 
z
M 1409 134 
Q 1859 134 2196 457 
Q 2534 781 2741 1253 
L 2444 1709 
Q 2219 2075 1967 2308 
Q 1716 2541 1394 2541 
Q 1113 2541 917 2364 
Q 722 2188 623 1917 
Q 525 1647 525 1375 
Q 525 1097 620 808 
Q 716 519 916 326 
Q 1116 134 1409 134 
z
" transform="scale(0.015625)"/>
      </defs>
      <use xlink:href="#Cmmi10-74" transform="translate(0 0.40625)"/>
      <use xlink:href="#Cmr10-65" transform="translate(36.083984 -16.6) scale(0.7)"/>
      <use xlink:href="#Cmr10-6e" transform="translate(67.15332 -16.6) scale(0.7)"/>
      <use xlink:href="#Cmr10-64" transform="translate(106.015625 -16.6) scale(0.7)"/>
      <use xlink:href="#Cmsy10-2f" transform="translate(168.813867 0.40625)"/>
      <use xlink:href="#Cmmi10-74" transform="translate(264.058008 0.40625)"/>
      <use xlink:href="#Cmr10-73" transform="translate(300.141992 -16.6) scale(0.7)"/>
     </g>
    </g>
   </g>
  </g>
 </g>
 <defs>
  <clipPath id="p6e9c6e5277">
   <rect x="37.70024" y="3.00024" width="285.986771" height="227.064758"/>
  </clipPath>
 </defs>
</svg>
